<svg id="图层_1" data-name="图层 1" xmlns="http://www.w3.org/2000/svg" viewBox="0 0 768 512"><defs><style>.cls-1{fill:#010101;}.cls-2{fill:#3c4747;}.cls-3{fill:none;stroke:#9bd4e0;stroke-miterlimit:10;}</style></defs><title>TeamLogo_Dim</title><rect class="cls-1" width="768" height="512"/><path class="cls-2" d="M255.82,222.84l-7.73-8.92a5.22,5.22,0,0,1-1.28-3.44V201H234.53a6.7,6.7,0,0,0-4.75,1.95L225,207.66a4.71,4.71,0,0,0-1.55-3.39l-9.39-8.56-9.4,8.56a4.7,4.7,0,0,0-1.54,3.39l-4.78-4.74a6.7,6.7,0,0,0-4.75-1.95H181.31v9.51a5.27,5.27,0,0,1-1.28,3.44l-7.73,8.92a6.72,6.72,0,0,0,.51,9.38L185.55,244l.5.29.47-.23a3.25,3.25,0,0,1,3.57.44l5.34,4.57,17.34-7.49a3.22,3.22,0,0,1,2.58,0l17.34,7.49,5.85-5a7.89,7.89,0,0,1,1.38-.35,6.18,6.18,0,0,1,1.84.43l.45.19,13.1-12.13A6.73,6.73,0,0,0,255.82,222.84Zm-51.2-15.13a3.18,3.18,0,0,1,1.06-2.33l8.38-7.64,8.38,7.64a3.22,3.22,0,0,1,1.06,2.33,3.26,3.26,0,0,1-.95,2.38l-8.49,8.4-.78-.77-7.71-7.63A3.26,3.26,0,0,1,204.62,207.71Zm27.81,39.64-16.49-7.13a4.75,4.75,0,0,0-3.77,0l-16.48,7.13-4.63-4a4.74,4.74,0,0,0-4.85-.8l-12.38-11.47a5.22,5.22,0,0,1-.4-7.29l7.73-8.92a6.74,6.74,0,0,0,1.65-4.42v-8h10.78a5.24,5.24,0,0,1,3.7,1.52l7.23,7.16h0l8.47,8.39h0l24.07,23.83Zm21.86-16.24-12.41,11.5a6.48,6.48,0,0,0-1.95-.38h0a7.08,7.08,0,0,0-1.55.33l-2.08-2.06-21.16-20.95,4.06-4,4.41-4.36h0l7.23-7.17a5.24,5.24,0,0,1,3.7-1.52h10.78v8A6.69,6.69,0,0,0,247,214.9l7.73,8.92A5.23,5.23,0,0,1,254.29,231.11Z"/><path class="cls-2" d="M246.65,255.36l7.66,6.48V251.69a4.73,4.73,0,0,0-2.63-4.25l-9.41-4.7a4.74,4.74,0,0,0-5.22.64l-4.62,4-16.49-7.13a4.75,4.75,0,0,0-3.77,0l-16.48,7.13-4.63-4a4.72,4.72,0,0,0-5.21-.64l-9.42,4.7a4.72,4.72,0,0,0-2.62,4.25v10.15l7.66-6.48a3.21,3.21,0,0,1,2.09-.77h6.66l-5.84,2.46a8.36,8.36,0,0,0-5.07,7.69v6.84a10.68,10.68,0,0,0,3.15,7.6l3.9,3.9a3.28,3.28,0,0,1,.95,2.3v3a2.41,2.41,0,0,1-.71,1.71,2.89,2.89,0,0,1-2.06.85h-5.88l3.59,5.39a4.74,4.74,0,0,0,3.95,2.11h3.52a6.37,6.37,0,0,0,4.53-1.88,8.35,8.35,0,0,0,1.06-1.3v.82a15.31,15.31,0,0,1-3.34,9.52l-5.47,6.84h2.93a16.59,16.59,0,0,0,11.84-4.91,11.77,11.77,0,0,0,2-2.7v14.36l2.8-2.1a16.84,16.84,0,0,0,6.7-13.4V265.57l1.25,1.18,1.25-1.18v38.15a16.81,16.81,0,0,0,6.7,13.4l2.8,2.1V304.86a12,12,0,0,0,2,2.7,16.63,16.63,0,0,0,11.85,4.91h2.93l-5.47-6.84a15.31,15.31,0,0,1-3.34-9.52v-.82a7.82,7.82,0,0,0,1.06,1.3,6.37,6.37,0,0,0,4.53,1.88h3.52a4.74,4.74,0,0,0,4-2.11l3.59-5.39h-5.89a2.88,2.88,0,0,1-2-.85,2.41,2.41,0,0,1-.71-1.71v-3a3.28,3.28,0,0,1,.95-2.3l3.9-3.9a10.68,10.68,0,0,0,3.15-7.6v-6.84a8.36,8.36,0,0,0-5.07-7.69L238,254.59h6.56A3.22,3.22,0,0,1,246.65,255.36ZM238,244.52a3.25,3.25,0,0,1,3.57-.44l9.41,4.71a3.22,3.22,0,0,1,1.8,2.9v6.91l-5.19-4.38a4.73,4.73,0,0,0-3.07-1.13H228.5l2.23-2.1,2.33-2.21Zm-54.47,8.57a4.7,4.7,0,0,0-3.06,1.13l-5.19,4.38v-6.91a3.22,3.22,0,0,1,1.8-2.9l9.41-4.71a3.22,3.22,0,0,1,3.57.44l4.95,4.25,4.58,4.32H183.56Zm9.62,42.44a4.83,4.83,0,0,1-3.46,1.44H186.2a3.22,3.22,0,0,1-2.7-1.45l-2-3h3.08a4.39,4.39,0,0,0,3.12-1.29,3.89,3.89,0,0,0,1.15-2.77v-3a4.8,4.8,0,0,0-1.39-3.36l-3.9-3.9a9.18,9.18,0,0,1-2.71-6.54v-6.84a6.86,6.86,0,0,1,4.16-6.31l9-3.84h1.72l-2,1.53a10.82,10.82,0,0,0-4.3,8.6V273a10.76,10.76,0,0,0,1.53,5.53l2.3,3.83a15.26,15.26,0,0,1,2.17,7.84v.26A7.26,7.26,0,0,1,193.18,295.53Zm7,11A15.13,15.13,0,0,1,189.62,311l3.52-4.4a16.78,16.78,0,0,0,3.67-10.46v-6a16.75,16.75,0,0,0-2.39-8.61l-2.29-3.83a9.18,9.18,0,0,1-1.32-4.76v-8.23a9.3,9.3,0,0,1,3.7-7.4l3.64-2.73h3l.37.35.71.67-.59,1.17a22.64,22.64,0,0,0-2.38,10.09v5.91a31.24,31.24,0,0,0,1.6,9.87l1.62,4.85a15.16,15.16,0,0,1,.78,4.82V299A10.46,10.46,0,0,1,200.21,306.5Zm11.1-42.35v39.57a15.31,15.31,0,0,1-6.1,12.2l-.4.3v-23.9A16.72,16.72,0,0,0,204,287l-1.62-4.84a29.75,29.75,0,0,1-1.52-9.4v-5.91a21.21,21.21,0,0,1,2.22-9.42l.39-.76,4.2,4Zm2.75.54-1.25-1.18h0l-9-8.56h0l-.39-.36h0l-1.26-1.18-.33-.32h0l-2.59-2.44-2.31-2.19,15.87-6.86a3.22,3.22,0,0,1,2.58,0l15.87,6.86-6.49,6.13h0l-.51.48-8.91,8.44h0Zm9.25,51.53-.4-.3a15.31,15.31,0,0,1-6.1-12.2V264.15l3.69-3.49,4.2-4,.39.77a21.14,21.14,0,0,1,2.22,9.41v5.91a29.48,29.48,0,0,1-1.53,9.4L224.17,287a16.72,16.72,0,0,0-.86,5.3v23.9ZM235,306.57l3.52,4.4a15.15,15.15,0,0,1-10.6-4.47,10.49,10.49,0,0,1-3.09-7.47v-6.71a15.16,15.16,0,0,1,.78-4.82l1.62-4.85a31.24,31.24,0,0,0,1.6-9.87v-5.91a22.64,22.64,0,0,0-2.38-10.09l-.59-1.17.7-.67.38-.35H230l3.64,2.73a9.3,9.3,0,0,1,3.7,7.4V273a9.28,9.28,0,0,1-1.32,4.76l-2.29,3.83a16.66,16.66,0,0,0-2.39,8.61v6A16.78,16.78,0,0,0,235,306.57Zm8.17-48.14a6.86,6.86,0,0,1,4.16,6.31v6.84a9.18,9.18,0,0,1-2.71,6.54l-3.9,3.9a4.8,4.8,0,0,0-1.39,3.36v3a3.89,3.89,0,0,0,1.15,2.77,4.38,4.38,0,0,0,3.11,1.29h3.09l-2,3a3.22,3.22,0,0,1-2.7,1.45H238.4a4.87,4.87,0,0,1-3.47-1.44,7.3,7.3,0,0,1-2.12-5.12v-.26a15.26,15.26,0,0,1,2.17-7.84l2.3-3.83a10.76,10.76,0,0,0,1.53-5.53v-8.23a10.82,10.82,0,0,0-4.3-8.6l-2-1.53h1.71Z"/><path class="cls-2" d="M315.59,202.29l-15.3,15.3L285,202.29a1,1,0,0,0-1.71.71v32a1,1,0,0,0,2,0V205.41l14.3,14.3a1,1,0,0,0,1.41,0l14.29-14.3V235a1,1,0,0,0,2,0V203A1,1,0,0,0,315.59,202.29Z"/><path class="cls-2" d="M364.29,202a1,1,0,0,0-1,1,15,15,0,0,1-30,0,1,1,0,1,0-2,0,17,17,0,0,0,16,16.95V235a1,1,0,0,0,2,0V220a17,17,0,0,0,16-16.95A1,1,0,0,0,364.29,202Z"/><path class="cls-2" d="M412.29,202h-32a1,1,0,1,0,0,2h15v31a1,1,0,0,0,2,0V204h15a1,1,0,0,0,0-2Z"/><path class="cls-2" d="M460.29,202a1,1,0,0,0-1,1v15h-30V203a1,1,0,1,0-2,0v32a1,1,0,0,0,2,0V220h30v15a1,1,0,0,0,2,0V203A1,1,0,0,0,460.29,202Z"/><path class="cls-2" d="M540.29,202a17,17,0,0,0-17,17v16a1,1,0,0,0,2,0V219a15,15,0,0,1,30,0v16a1,1,0,0,0,2,0V219A17,17,0,0,0,540.29,202Z"/><path class="cls-2" d="M572.29,202a1,1,0,0,0-1,1v32a1,1,0,0,0,2,0V203A1,1,0,0,0,572.29,202Z"/><path class="cls-2" d="M492.29,202a17,17,0,1,0,17,17A17,17,0,0,0,492.29,202Zm-1,2.05V218h-14A15,15,0,0,1,491.29,204.05Zm-14,15.95h14V234A15,15,0,0,1,477.34,220Zm16,13.95v-29.9a15,15,0,0,1,0,29.9Z"/><path class="cls-2" d="M613.91,220h6.38a1,1,0,0,0,0-2h-7.38l-7.72-15.45a1,1,0,0,0-1.79,0L595.68,218h-7.39a1,1,0,0,0,0,2h6.39l-7.28,14.55a1,1,0,0,0,.89,1.45h32a1,1,0,0,0,.9-1.45Zm-9.62-14.76L610.68,218H597.91ZM589.91,234l7-14h14.77l7,14Z"/><path class="cls-2" d="M316.29,250h-32a1,1,0,1,0,0,2h15v31a1,1,0,0,0,2,0V252h15a1,1,0,0,0,0-2Z"/><path class="cls-2" d="M396.29,250a17,17,0,0,0-17,17v16a1,1,0,0,0,2,0V268h30v15a1,1,0,0,0,2,0V267A17,17,0,0,0,396.29,250Zm-15,16a15,15,0,0,1,29.9,0Z"/><path class="cls-2" d="M459.59,250.29l-15.3,15.3L429,250.29a1,1,0,0,0-1.71.71v32a1,1,0,0,0,2,0V253.41l14.3,14.3a1,1,0,0,0,1.41,0l14.29-14.3V283a1,1,0,0,0,2,0V251A1,1,0,0,0,459.59,250.29Z"/><path class="cls-2" d="M365.29,267a1,1,0,0,0-1-1h-31a15,15,0,0,1,15-14h16a1,1,0,0,0,0-2h-16a17,17,0,1,0,0,34h16a1,1,0,0,0,0-2h-16a15,15,0,0,1-15-14h31A1,1,0,0,0,365.29,267Z"/><path class="cls-3" d="M-638.9,341"/></svg>