<?xml version="1.0" encoding="utf-8"?>
<!-- Generator: Adobe Illustrator 23.0.3, SVG Export Plug-In . SVG Version: 6.00 Build 0)  -->
<svg version="1.1" id="图层_1" xmlns="http://www.w3.org/2000/svg" xmlns:xlink="http://www.w3.org/1999/xlink" x="0px" y="0px"
	 viewBox="0 0 768 512" style="enable-background:new 0 0 768 512;" xml:space="preserve">
<style type="text/css">
	.st0{fill:#2B3333;}
</style>
<title>TeamLogo-Dimming</title>
<path class="st0" d="M255.8,222.8l-7.7-8.9c-0.8-1-1.3-2.2-1.3-3.4V201h-12.3c-1.8,0-3.5,0.7-4.8,1.9l-4.8,4.7
	c0-1.3-0.6-2.5-1.6-3.4l-9.4-8.6l-9.4,8.6c-1,0.9-1.5,2.1-1.5,3.4l-4.8-4.7c-1.3-1.3-3-2-4.8-1.9h-12.3v9.5c0,1.3-0.5,2.5-1.3,3.4
	l-7.7,8.9c-2.4,2.7-2.2,6.9,0.5,9.4l12.7,11.8l0.5,0.3l0.5-0.2c1.2-0.6,2.6-0.4,3.6,0.4l5.3,4.6l17.3-7.5c0.8-0.4,1.8-0.4,2.6,0
	l17.3,7.5l5.9-5c0.4-0.2,0.9-0.3,1.4-0.4c0.6,0,1.3,0.2,1.8,0.4l0.4,0.2l13.1-12.1C258,229.7,258.2,225.6,255.8,222.8z M204.6,207.7
	c0-0.9,0.4-1.7,1.1-2.3l8.4-7.6l8.4,7.6c0.7,0.6,1,1.4,1.1,2.3c0,0.9-0.3,1.7-0.9,2.4l-8.5,8.4l-0.8-0.8l-7.7-7.6
	C204.9,209.5,204.6,208.6,204.6,207.7L204.6,207.7z M232.4,247.3l-16.5-7.1c-1.2-0.5-2.6-0.5-3.8,0l-16.5,7.1l-4.6-4
	c-1.3-1.1-3.2-1.5-4.9-0.8L173.7,231c-2.1-1.9-2.3-5.2-0.4-7.3l7.7-8.9c1.1-1.2,1.7-2.8,1.6-4.4v-8h10.8c1.4,0,2.7,0.5,3.7,1.5
	l7.2,7.2l0,0l8.5,8.4l0,0l24.1,23.8L232.4,247.3z M254.3,231.1l-12.4,11.5c-0.6-0.2-1.3-0.4-1.9-0.4l0,0c-0.5,0.1-1,0.2-1.6,0.3
	l-2.1-2.1l-21.2-20.9l4.1-4l4.4-4.4l0,0l7.2-7.2c1-1,2.3-1.5,3.7-1.5h10.8v8c0,1.6,0.6,3.2,1.7,4.4l7.7,8.9
	C256.6,226,256.4,229.2,254.3,231.1L254.3,231.1z"/>
<path class="st0" d="M246.6,255.4l7.7,6.5v-10.1c0-1.8-1-3.4-2.6-4.3l-9.4-4.7c-1.7-0.9-3.8-0.6-5.2,0.6l-4.6,4l-16.5-7.1
	c-1.2-0.5-2.6-0.5-3.8,0l-16.5,7.1l-4.6-4c-1.4-1.2-3.5-1.5-5.2-0.6l-9.4,4.7c-1.6,0.8-2.6,2.4-2.6,4.3v10.1l7.7-6.5
	c0.6-0.5,1.3-0.8,2.1-0.8h6.7l-5.8,2.5c-3.1,1.3-5.1,4.3-5.1,7.7v6.8c0,2.9,1.1,5.6,3.1,7.6l3.9,3.9c0.6,0.6,0.9,1.4,0.9,2.3v3
	c0,0.6-0.3,1.3-0.7,1.7c-0.5,0.5-1.3,0.9-2.1,0.9h-5.9l3.6,5.4c0.9,1.3,2.4,2.1,3.9,2.1h3.5c1.7,0,3.3-0.7,4.5-1.9
	c0.4-0.4,0.8-0.8,1.1-1.3v0.8c0,3.5-1.2,6.8-3.3,9.5l-5.5,6.8h2.9c4.4,0,8.7-1.8,11.8-4.9c0.8-0.8,1.5-1.7,2-2.7v14.4l2.8-2.1
	c4.2-3.2,6.7-8.1,6.7-13.4v-38.1l1.3,1.2l1.3-1.2v38.1c0,5.3,2.5,10.2,6.7,13.4l2.8,2.1v-14.4c0.5,1,1.2,1.9,2,2.7
	c3.1,3.2,7.4,4.9,11.9,4.9h2.9l-5.5-6.8c-2.2-2.7-3.3-6.1-3.3-9.5v-0.8c0.3,0.5,0.7,0.9,1.1,1.3c1.2,1.2,2.8,1.9,4.5,1.9h3.5
	c1.6,0,3.1-0.8,4-2.1l3.6-5.4h-5.9c-0.8,0-1.5-0.3-2-0.9c-0.5-0.5-0.7-1.1-0.7-1.7v-3c0-0.9,0.3-1.7,0.9-2.3l3.9-3.9
	c2-2,3.2-4.7,3.1-7.6v-6.8c0-3.3-2-6.4-5.1-7.7l-5.8-2.5h6.6C245.3,254.6,246.1,254.9,246.6,255.4z M238,244.5c1-0.9,2.4-1,3.6-0.4
	l9.4,4.7c1.1,0.5,1.8,1.7,1.8,2.9v6.9l-5.2-4.4c-0.9-0.7-1.9-1.1-3.1-1.1h-16l2.2-2.1l2.3-2.2L238,244.5z M183.5,253.1
	c-1.1,0-2.2,0.4-3.1,1.1l-5.2,4.4v-6.9c0-1.2,0.7-2.4,1.8-2.9l9.4-4.7c1.2-0.6,2.6-0.4,3.6,0.4l4.9,4.3l4.6,4.3L183.5,253.1
	L183.5,253.1z M193.1,295.5c-0.9,0.9-2.2,1.4-3.5,1.4h-3.5c-1.1,0-2.1-0.5-2.7-1.5l-2-3h3.1c1.2,0,2.3-0.5,3.1-1.3
	c0.7-0.7,1.2-1.7,1.1-2.8v-3c0-1.3-0.5-2.5-1.4-3.4l-3.9-3.9c-1.7-1.7-2.7-4.1-2.7-6.5v-6.8c0-2.7,1.6-5.2,4.2-6.3l9-3.8h1.7l-2,1.5
	c-2.7,2-4.3,5.2-4.3,8.6v8.2c0,1.9,0.5,3.9,1.5,5.5l2.3,3.8c1.4,2.4,2.2,5.1,2.2,7.8v0.3C195.4,292.4,194.6,294.2,193.1,295.5
	L193.1,295.5z M200.1,306.5c-2.8,2.8-6.6,4.4-10.5,4.5l3.5-4.4c2.4-3,3.7-6.7,3.7-10.5v-6c0-3-0.8-6-2.4-8.6l-2.3-3.8
	c-0.9-1.4-1.3-3.1-1.3-4.8v-8.2c0-2.9,1.4-5.6,3.7-7.4l3.6-2.7h3l0.4,0.4l0.7,0.7l-0.6,1.2c-1.6,3.1-2.4,6.6-2.4,10.1v5.9
	c0,3.4,0.5,6.7,1.6,9.9l1.6,4.9c0.5,1.6,0.8,3.2,0.8,4.8v6.7C203.3,301.8,202.2,304.5,200.1,306.5L200.1,306.5z M211.3,264.2v39.6
	c0,4.8-2.3,9.3-6.1,12.2l-0.4,0.3v-23.9c0-1.8-0.2-3.6-0.8-5.4l-1.6-4.8c-1-3-1.5-6.2-1.5-9.4v-5.9c0-3.3,0.8-6.5,2.2-9.4l0.4-0.8
	l4.2,4L211.3,264.2z M214,264.7l-1.3-1.2l0,0l-9-8.6l0,0l-0.4-0.4l0,0l-1.3-1.2l-0.3-0.3l0,0l-2.6-2.4l-2.3-2.2l15.9-6.9
	c0.8-0.4,1.8-0.4,2.6,0l15.9,6.9l-6.5,6.1l0,0l-0.5,0.5l-8.9,8.4l0,0L214,264.7z M223.3,316.3l-0.4-0.3c-3.8-2.9-6.1-7.4-6.1-12.2
	v-39.6l3.7-3.5l4.2-4l0.4,0.8c1.5,2.9,2.2,6.1,2.2,9.4v5.9c0,3.2-0.5,6.4-1.5,9.4l-1.6,4.9c-0.6,1.7-0.9,3.5-0.9,5.3L223.3,316.3
	L223.3,316.3z M235,306.6l3.5,4.4c-4,0-7.8-1.6-10.6-4.5c-2-2-3.1-4.7-3.1-7.5v-6.7c0-1.6,0.3-3.3,0.8-4.8l1.6-4.9
	c1.1-3.2,1.6-6.5,1.6-9.9v-5.9c0-3.5-0.8-7-2.4-10.1l-0.6-1.2l0.7-0.7l0.4-0.4h3.1l3.6,2.7c2.3,1.8,3.7,4.5,3.7,7.4v8.3
	c0,1.7-0.5,3.3-1.3,4.8l-2.3,3.8c-1.6,2.6-2.4,5.6-2.4,8.6v6C231.4,300,232.6,303.6,235,306.6z M243.2,258.4
	c2.5,1.1,4.2,3.6,4.2,6.3v6.8c0,2.5-1,4.8-2.7,6.5l-3.9,3.9c-0.9,0.9-1.4,2.1-1.4,3.4v3c0,1,0.4,2,1.1,2.8c0.8,0.8,1.9,1.3,3.1,1.3
	h3.1l-2,3c-0.6,0.9-1.6,1.5-2.7,1.5h-3.6c-1.3,0-2.6-0.5-3.5-1.4c-1.4-1.4-2.1-3.2-2.1-5.1v-0.3c0-2.8,0.8-5.5,2.2-7.8l2.3-3.8
	c1-1.7,1.5-3.6,1.5-5.5v-8.2c0-3.4-1.6-6.6-4.3-8.6l-2-1.5h1.7L243.2,258.4z"/>
<path class="st0" d="M315.6,202.3l-15.3,15.3L285,202.3c-0.4-0.4-1-0.4-1.4,0c-0.2,0.2-0.3,0.4-0.3,0.7v32c0,0.6,0.4,1,1,1
	s1-0.4,1-1v-29.6l14.3,14.3c0.4,0.4,1,0.4,1.4,0l14.3-14.3V235c0,0.6,0.4,1,1,1s1-0.4,1-1v-32c0-0.6-0.5-1-1-1
	C316,202,315.8,202.1,315.6,202.3z"/>
<path class="st0" d="M364.3,202c-0.6,0-1,0.4-1,1c0,8.3-6.7,15-15,15s-15-6.7-15-15c0-0.6-0.4-1-1-1s-1,0.4-1,1c0,9,7,16.4,16,16.9
	V235c0,0.6,0.4,1,1,1s1-0.4,1-1v-15c9-0.5,16-8,16-16.9C365.3,202.5,364.9,202,364.3,202L364.3,202z"/>
<path class="st0" d="M412.3,202h-32c-0.6,0-1,0.4-1,1s0.4,1,1,1h15v31c0,0.6,0.4,1,1,1s1-0.4,1-1v-31h15c0.6,0,1-0.4,1-1
	S412.8,202,412.3,202z"/>
<path class="st0" d="M460.3,202c-0.6,0-1,0.4-1,1v15h-30v-15c0-0.6-0.4-1-1-1s-1,0.4-1,1v32c0,0.6,0.4,1,1,1s1-0.4,1-1v-15h30v15
	c0,0.6,0.4,1,1,1s1-0.4,1-1v-32C461.3,202.4,460.8,202,460.3,202z"/>
<path class="st0" d="M540.3,202c-9.4,0-17,7.6-17,17l0,0v16c0,0.6,0.4,1,1,1s1-0.4,1-1v-16c0-8.3,6.7-15,15-15s15,6.7,15,15v16
	c0,0.6,0.4,1,1,1s1-0.4,1-1v-16C557.3,209.6,549.7,202,540.3,202L540.3,202z"/>
<path class="st0" d="M572.3,202c-0.6,0-1,0.4-1,1v32c0,0.6,0.4,1,1,1s1-0.4,1-1v-32C573.3,202.4,572.8,202,572.3,202z"/>
<path class="st0" d="M492.3,202c-9.4,0-17,7.6-17,17s7.6,17,17,17s17-7.6,17-17S501.7,202,492.3,202L492.3,202z M491.3,204.1V218
	h-14C477.8,210.5,483.8,204.5,491.3,204.1z M477.3,220h14v14C483.8,233.5,477.8,227.5,477.3,220L477.3,220z M493.3,233.9V204
	c8.3,0.7,14.4,7.9,13.7,16.2C506.4,227.5,500.6,233.4,493.3,233.9z"/>
<path class="st0" d="M613.9,220h6.4c0.6,0,1-0.4,1-1s-0.4-1-1-1h-7.4l-7.7-15.4c-0.2-0.5-0.8-0.7-1.3-0.4c-0.2,0.1-0.4,0.3-0.4,0.4
	l-7.7,15.4h-7.4c-0.6,0-1,0.4-1,1s0.4,1,1,1h6.4l-7.3,14.6c-0.2,0.5-0.1,1.1,0.4,1.3c0.1,0.1,0.3,0.1,0.4,0.1h32c0.6,0,1-0.4,1-1
	c0-0.2,0-0.3-0.1-0.5L613.9,220z M604.3,205.2l6.4,12.8h-12.8L604.3,205.2z M589.9,234l7-14h14.8l7,14H589.9z"/>
<path class="st0" d="M316.3,250h-32c-0.6,0-1,0.4-1,1s0.4,1,1,1h15v31c0,0.6,0.4,1,1,1s1-0.4,1-1v-31h15c0.6,0,1-0.4,1-1
	S316.8,250,316.3,250z"/>
<path class="st0" d="M396.3,250c-9.4,0-17,7.6-17,17v16c0,0.6,0.4,1,1,1s1-0.4,1-1v-15h30v15c0,0.6,0.4,1,1,1s1-0.4,1-1v-16
	C413.3,257.6,405.7,250,396.3,250z M381.3,266c0.7-8.3,7.9-14.4,16.2-13.7c7.3,0.6,13.1,6.4,13.7,13.7H381.3z"/>
<path class="st0" d="M459.6,250.3l-15.3,15.3L429,250.3c-0.4-0.4-1-0.4-1.4,0c-0.2,0.2-0.3,0.4-0.3,0.7v32c0,0.6,0.4,1,1,1
	s1-0.4,1-1v-29.6l14.3,14.3c0.4,0.4,1,0.4,1.4,0l14.3-14.3V283c0,0.6,0.4,1,1,1s1-0.4,1-1v-32c0-0.6-0.5-1-1-1
	C460,250,459.8,250.1,459.6,250.3z"/>
<path class="st0" d="M365.3,267c0-0.6-0.4-1-1-1h-31c0.5-7.9,7.1-14,15-14h16c0.6,0,1-0.4,1-1s-0.4-1-1-1h-16c-9.4,0-17,7.6-17,17
	s7.6,17,17,17h16c0.6,0,1-0.4,1-1s-0.4-1-1-1h-16c-7.9,0-14.5-6.1-15-14h31C364.8,268,365.3,267.6,365.3,267z"/>
</svg>
