<?xml version="1.0" encoding="utf-8"?>
<!-- Generator: Adobe Illustrator 23.0.3, SVG Export Plug-In . SVG Version: 6.00 Build 0)  -->
<svg version="1.1" id="图层_1" xmlns="http://www.w3.org/2000/svg" xmlns:xlink="http://www.w3.org/1999/xlink" x="0px" y="0px"
	 viewBox="0 0 768 512" style="enable-background:new 0 0 768 512;" xml:space="preserve">
<style type="text/css">
	.st0{fill:#070708;}
	.st1{fill:#0A040A;}
	.st2{fill:#030808;}
	.st3{fill:#0F060F;}
	.st4{fill:#060F0F;}
	.st5{fill:#1A0B12;}
	.st6{fill:#0C1A17;}
	.st7{fill:#2B181F;}
	.st8{fill:#1A2B24;}
	.st9{fill:none;stroke:#9BD4E0;stroke-miterlimit:10;}
	.st10{fill:#D9CACF;}
	.st11{fill:#C5D9C8;}
	.st12{fill:#0E0C0F;}
	.st13{fill:#15131C;}
	.st14{fill:#191A29;}
	.st15{fill:#223033;}
	.st16{fill:#FCF5FF;}
</style>
<title>TeamLogo_Glowing</title>
<path class="st0" d="M492.3,243c-12.7,0-23-10.3-23-23s10.3-23,23-23s23,10.3,23,23S505,243,492.3,243L492.3,243z M499.3,225.6
	c2.7-3.2,2.7-7.9,0-11.2V225.6z"/>
<path class="st0" d="M492.3,242.2c-12.3,0-22.2-9.9-22.2-22.2c0-12.3,9.9-22.2,22.2-22.2c12.3,0,22.2,9.9,22.2,22.2v0
	C514.5,232.3,504.5,242.2,492.3,242.2z M498.5,227.5c4.2-3.4,4.8-9.5,1.4-13.6c-0.4-0.5-0.9-1-1.4-1.4V227.5z M484.8,226.2
	c0.4,0.5,0.8,0.9,1.3,1.3v-1.3H484.8z M486.1,213.8v-1.3c-0.5,0.4-0.9,0.9-1.3,1.3H486.1z"/>
<path class="st0" d="M588.3,244.6c-4.8,0-8.6-3.9-8.6-8.6c0-1.3,0.3-2.6,0.9-3.8l2.6-5.2c-3.8-2.8-4.7-8.2-1.9-12
	c1.6-2.2,4.2-3.5,7-3.5h2.7l5.6-11.2c2.1-4.2,7.3-6,11.5-3.9c1.7,0.8,3,2.2,3.9,3.9l5.6,11.2h2.7c4.7,0,8.6,3.8,8.6,8.6
	c0,2.7-1.3,5.3-3.5,6.9l2.6,5.2c2.1,4.3,0.4,9.4-3.9,11.5c-1.2,0.6-2.5,0.9-3.8,0.9H588.3z"/>
<path class="st0" d="M609,229l-1-2h-7.3l-1,2H609z"/>
<path class="st1" d="M214.2,245.4l-19.4,8.3l-6.9-5.9l-2,1l-2.8-1.6L170,235.2c-4.3-3.9-4.6-10.6-0.8-14.9l7.8-8.9
	c0.2-0.2,0.3-0.5,0.3-0.8V201c0-2.2,1.8-4,4-4h12.3c2.8,0,5.6,1.1,7.6,3.1l1,1l9.2-8.4c1.5-1.4,3.9-1.4,5.4,0l9.2,8.4l1.1-1
	c2-2,4.7-3.1,7.6-3.1h12.3c2.2,0,4,1.8,4,4v9.5c0,0.3,0.1,0.6,0.3,0.8l7.7,8.9c3.8,4.4,3.5,11-0.8,14.9L243,249l-2.8-1.2l-6.9,5.9
	L214.2,245.4z M188,238.3c2.1,0,4.1,0.7,5.7,2.1l2.7,2.3l14.2-6.1c2.2-1,4.7-1,6.9,0l12.3,5.3l-35.4-35c-0.2-0.2-0.6-0.4-0.9-0.4
	h-6.8v4c0,2.6-0.9,5.1-2.6,7.1l-7.7,8.9c-0.4,0.5-0.4,1.3,0.1,1.7l10.9,10.1L188,238.3z M239.9,238.3c0.2,0,0.5,0,0.8,0l10.9-10.1
	c0.5-0.5,0.5-1.2,0.1-1.7l-7.7-8.9c-1.7-1.9-2.6-4.4-2.6-7v-4h-6.8c-0.3,0-0.7,0.1-0.9,0.4l-12.8,12.7l18.9,18.7L239.9,238.3
	L239.9,238.3z M214.1,212.9l5.1-5.1l-5.1-4.6l-5.1,4.6L214.1,212.9z"/>
<path class="st2" d="M203.3,323.2c-1,0-2-0.4-2.8-1.1c-0.8-0.8-1.2-1.8-1.2-2.9V314c-3,1.6-6.4,2.5-9.9,2.5h-2.9c-2.2,0-4-1.8-4-4
	c0-0.9,0.3-1.8,0.9-2.5l5.5-6.8c0.2-0.2,0.3-0.4,0.5-0.7h-3.1c-2.9,0-5.7-1.5-7.3-3.9l-3.6-5.4c-0.8-1.2-0.9-2.8-0.2-4.1
	c0.7-1.3,2.1-2.1,3.5-2.1h4.6v-1.2l-3.7-3.8c-2.8-2.8-4.3-6.5-4.3-10.4v-6c-0.5,0.2-1,0.3-1.5,0.3c-1,0-2-0.4-2.8-1.1
	c-0.8-0.8-1.2-1.8-1.2-2.9v-10.2c0-3.3,1.9-6.3,4.8-7.8l9.4-4.7c3.1-1.6,6.9-1.1,9.6,1.2l2.7,2.3l14.2-6.1c2.2-1,4.7-1,6.9,0
	l14.2,6.1l2.7-2.3c2.7-2.3,6.5-2.8,9.6-1.2l9.4,4.7c3,1.5,4.9,4.5,4.8,7.8v10.1c0,2.2-1.8,4-4,4c-0.5,0-1-0.1-1.5-0.3v6
	c0,3.9-1.6,7.7-4.3,10.5l-3.6,3.6v1.4h4.6c1.5,0,2.8,0.8,3.5,2.1c0.7,1.3,0.6,2.9-0.2,4.1l-3.6,5.4c-1.6,2.4-4.4,3.9-7.3,3.9h-3.1
	c0.2,0.2,0.3,0.5,0.5,0.7l5.5,6.8c1.4,1.7,1.1,4.2-0.6,5.6c-0.7,0.6-1.6,0.9-2.5,0.9h-2.9c-3.5,0-6.8-0.8-9.9-2.5v5.2
	c0,2.2-1.8,4-4,4c-0.9,0-1.7-0.3-2.4-0.8l-2.8-2.1c-2.3-1.7-4.1-3.8-5.6-6.3c-1.4,2.5-3.3,4.6-5.6,6.3l-2.8,2.1
	C205,323,204.2,323.2,203.3,323.2z M220.8,284.5l1.2-3.5c0.9-2.6,1.3-5.4,1.3-8.1v-5.9c0-1-0.1-2.1-0.3-3.1l-2.2,2.1V284.5z
	 M205.1,263.8c-0.2,1-0.3,2.1-0.3,3.1v5.9c0,2.8,0.4,5.5,1.3,8.1l1.2,3.5v-18.6L205.1,263.8z M232.3,261.6c0.4,1.7,0.5,3.5,0.5,5.3
	v5.9c0,0.9,0,1.7-0.1,2.6c0.4-0.7,0.6-1.6,0.6-2.4v-8.2C233.3,263.6,232.9,262.5,232.3,261.6L232.3,261.6z M195.8,261.6
	c-0.7,0.9-1,2-1,3.1v8.3c0,0.8,0.2,1.7,0.6,2.4c-0.1-0.9-0.1-1.7-0.1-2.6v-5.9C195.3,265.1,195.5,263.4,195.8,261.6L195.8,261.6z
	 M242.7,263c0.1,0.6,0.1,1.2,0.1,1.7v8.3c0,0.3,0,0.6,0,0.9c0.4-0.7,0.5-1.5,0.5-2.3v-6.8C243.3,264.1,243.1,263.5,242.7,263z
	 M185.4,263c-0.4,0.5-0.6,1.1-0.6,1.8v6.8c0,0.8,0.2,1.6,0.5,2.3c0-0.3,0-0.6,0-0.9v-8.2C185.3,264.2,185.4,263.6,185.4,263z
	 M214.1,259.2l10-9.5l-10-4.3l-10,4.3L214.1,259.2z M242.7,249.1l-2.4-1.2l-1.4,1.2H242.7z M189.3,249.1l-1.4-1.2l-2.4,1.2H189.3z"
	/>
<path class="st3" d="M214.2,244.4l-19.3,8.2l-6.8-5.8l-0.7-0.9l0.4,0.9l-1.9,1l-2.2-1.3l-13-12c-3.9-3.6-4.2-9.6-0.7-13.5l7.7-8.9
	c0.4-0.4,0.5-0.9,0.6-1.5V201c0-1.7,1.3-3,3-3h12.3c2.6,0,5,1,6.9,2.8l1.7,1.7c0.1-0.2,0.3-0.3,0.5-0.5l9.4-8.6c1.1-1,2.9-1,4,0
	l9.4,8.6c0.2,0.1,0.3,0.3,0.5,0.5l1.7-1.7c1.8-1.8,4.3-2.8,6.9-2.8h12.3c1.7,0,3,1.3,3,3v9.5c0,0.5,0.2,1.1,0.6,1.5l7.7,8.9
	c3.4,4,3.1,10-0.7,13.5l-14.5,13.4l-2.2-0.9c-0.2-0.1-0.4-0.1-0.6-0.2l-6.8,5.8L214.2,244.4z M214.1,236.8c1.1,0,2.1,0.2,3.1,0.6
	l14.8,6.4l0.7-0.6l-37.5-37.1c-0.4-0.4-1-0.7-1.6-0.6h-7.8v5c0,2.3-0.8,4.6-2.4,6.4l-7.7,8.9c-0.8,0.9-0.7,2.3,0.2,3.1l11.2,10.4
	c0.3,0,0.6-0.1,0.9-0.1c1.8,0,3.6,0.7,5,1.9l3.2,2.7l14.8-6.4C212,237,213,236.8,214.1,236.8z M239.9,239.2c0.4,0,0.7,0,1.1,0.1
	l11.2-10.4c0.9-0.8,1-2.2,0.2-3.1l-7.7-8.9c-1.5-1.8-2.4-4-2.4-6.4v-5h-7.8c-0.6,0-1.2,0.2-1.6,0.6l-13.6,13.4l19.9,19.7
	C239.5,239.3,239.7,239.3,239.9,239.2L239.9,239.2z M214.1,214.2l6.4-6.3v-0.4l-6.4-5.8l-6.4,5.8l-0.7,1.1l0.7-0.7L214.1,214.2z"/>
<path class="st4" d="M220.2,319.5c-2.7-2-4.8-4.7-6.1-7.7c-1.4,3-3.5,5.7-6.1,7.7l-2.8,2.1c-1.3,1-3.2,0.7-4.2-0.6
	c-0.4-0.5-0.6-1.2-0.6-1.8v-7c-3.2,2.1-7,3.3-10.9,3.3h-2.9c-1.7,0-3-1.3-3-3c0-0.7,0.2-1.3,0.7-1.9l5.5-6.8
	c0.6-0.7,1.1-1.5,1.5-2.4c-0.5,0.1-0.9,0.1-1.4,0.1h-3.5c-2.6,0-5-1.3-6.4-3.5l-3.6-5.4c-0.9-1.4-0.5-3.2,0.8-4.2
	c0.5-0.3,1.1-0.5,1.7-0.5h5.6v-2.6l-4-4.1c-2.6-2.6-4-6.1-4-9.7v-6.8c0-0.4,0-0.8,0.1-1.1l-0.6,0.5c-1.3,1.1-3.2,0.9-4.2-0.3
	c-0.5-0.5-0.7-1.2-0.7-1.9v-10.2c0-2.9,1.7-5.6,4.3-6.9l9.4-4.7c2.8-1.4,6.1-1,8.5,1l3.2,2.8l14.8-6.3c1-0.4,2-0.6,3.1-0.6
	c1.1,0,2.1,0.2,3.1,0.6l14.8,6.4l3.2-2.8c1.4-1.2,3.2-1.9,5-1.9c1.2,0,2.4,0.3,3.5,0.8l9.4,4.7c2.6,1.3,4.3,4,4.3,6.9v10.2
	c0,1.7-1.3,3-3,3c-0.7,0-1.4-0.3-1.9-0.7l-0.6-0.5c0,0.4,0.1,0.8,0.1,1.1v6.8c0,3.6-1.4,7.1-4,9.7l-3.9,3.9l-0.1,2.8h5.6
	c1.7,0,3,1.3,3,3c0,0.6-0.2,1.2-0.5,1.7l-3.6,5.3c-1.4,2.2-3.9,3.5-6.4,3.5h-3.5c-0.5,0-0.9,0-1.4-0.1c0.4,0.9,0.9,1.7,1.5,2.4
	l5.5,6.9c1,1.3,0.8,3.2-0.5,4.2c-0.5,0.4-1.2,0.7-1.9,0.7h-2.9c-3.9,0-7.7-1.1-10.9-3.3v7c0,1.7-1.3,3-3,3c-0.6,0-1.3-0.2-1.8-0.6
	L220.2,319.5z M219.8,303.7c0,1.2,0.2,2.3,0.5,3.4v-14.8c0-2.1,0.3-4.2,1-6.3l1.6-4.8c0.9-2.7,1.4-5.6,1.4-8.4v-5.9
	c0-1.7-0.2-3.4-0.7-5l-3.8,3.6L219.8,303.7z M204.5,261.9c-0.5,1.6-0.7,3.3-0.7,5v5.9c0,2.9,0.5,5.7,1.4,8.4l1.6,4.9
	c0.7,2,1,4.1,1,6.3v14.8c0.3-1.1,0.5-2.3,0.5-3.4v-38.3L204.5,261.9z M228.4,288.7c-0.4,1.2-0.5,2.4-0.6,3.6v6.7c0,2,0.8,4,2.3,5.4
	l0.2,0.2c-1.3-2.6-1.9-5.5-1.9-8.5v-6C228.3,289.7,228.3,289.2,228.4,288.7L228.4,288.7z M199.8,288.7c0,0.5,0.1,1,0.1,1.5v6
	c0,2.9-0.7,5.8-1.9,8.5l0.2-0.1c1.4-1.4,2.2-3.4,2.3-5.4v-6.7C200.3,291.1,200.1,289.9,199.8,288.7L199.8,288.7z M236.3,286.7
	c-0.3,1.1-0.5,2.3-0.5,3.5v0.3c0,1.1,0.4,2.2,1.2,3c0.4,0.4,0.8,0.6,1.4,0.6h0.7c-0.3-0.2-0.6-0.5-0.9-0.8c-1.2-1.3-1.9-3-1.9-4.9
	V286.7z M189.7,294c0.5,0,1-0.2,1.3-0.6c0.8-0.8,1.2-1.9,1.3-3v-0.3c0-1.2-0.2-2.3-0.5-3.5v1.6c0,1.7-0.6,3.4-1.7,4.7
	c-0.3,0.4-0.7,0.7-1.1,1L189.7,294z M230.5,258.8c0.9,2.6,1.3,5.4,1.3,8.1v5.9c0,2.5-0.3,5-0.8,7.4c0-0.1,2.4-4,2.4-4
	c0.6-1,0.9-2.1,0.9-3.2v-8.2c0-2-0.9-3.8-2.5-5L230.5,258.8z M196.3,259.8c-1.6,1.2-2.5,3-2.5,5v8.3c0,1.1,0.3,2.2,0.9,3.2
	c0,0,2.4,4,2.4,4c-0.5-2.4-0.8-4.9-0.8-7.4v-5.9c0-2.8,0.5-5.5,1.3-8.1L196.3,259.8z M186.1,261.2c-1.4,0.6-2.3,2-2.3,3.5v6.8
	c0,1.7,0.7,3.2,1.8,4.4l1.4,1.4c-0.5-1.4-0.7-2.9-0.7-4.5v-8.2c0-1.3,0.2-2.6,0.6-3.8L186.1,261.2z M241.3,260.9
	c0.4,1.2,0.5,2.5,0.6,3.8v8.3c0,1.5-0.2,3-0.7,4.5l1.4-1.4c1.2-1.2,1.8-2.8,1.8-4.4v-6.8c0-1.5-0.9-2.9-2.3-3.5L241.3,260.9z
	 M214.1,260.6l11.8-11.2l-11.7-5.1h-0.1c0,0-0.1,0-0.1,0l-11.7,5.1L214.1,260.6z M244.6,250.1c1.8,0,3.6,0.7,5,1.8l0.3,0.2v-0.4
	c0-0.1-0.1-0.2-0.1-0.2l-9.4-4.7h-0.1c-0.1,0-0.1,0-0.2,0.1l-3.8,3.3L244.6,250.1z M188,246.7c0,0-0.1,0-0.1,0l-9.4,4.7
	c-0.1,0-0.1,0.1-0.1,0.2v0.4l0.2-0.2c1.4-1.2,3.2-1.8,5-1.9h8.4l-3.8-3.3L188,246.7z"/>
<path class="st5" d="M214.6,243.4c-0.2-0.1-0.3-0.1-0.5-0.1c-0.2,0-0.3,0-0.5,0.1l-18.5,8l-6.3-5.4c-0.4-0.3-0.9-0.4-1.4-0.2
	l-1.4,0.7l-1.6-1l-12.9-11.9c-3.5-3.2-3.8-8.6-0.7-12.1l7.7-8.9c0.5-0.6,0.8-1.3,0.8-2.1V201c0-1.1,0.9-2,2-2h12.3
	c2.3,0,4.5,0.9,6.2,2.5l2.5,2.5c0.3-0.4,0.6-0.9,1-1.2l9.4-8.6c0.8-0.7,1.9-0.7,2.7,0l9.4,8.6c0.4,0.4,0.7,0.8,1,1.2l2.5-2.5
	c1.6-1.6,3.9-2.5,6.2-2.5h12.3c1.1,0,2,0.9,2,2v9.5c0,0.8,0.3,1.5,0.8,2.1l7.7,8.9c3.1,3.6,2.8,8.9-0.7,12.1l-14.1,13L241,246
	c-0.3-0.1-0.7-0.2-1.1-0.3c0,0-0.1,0.1-0.4,0.1l-6.5,5.6L214.6,243.4z M214.1,237.8c0.9,0,1.8,0.2,2.7,0.6l15.3,6.6l2-1.7
	l-38.2-37.9c-0.6-0.6-1.4-0.9-2.3-0.9h-8.8v6c0,2.1-0.8,4.1-2.1,5.7l-7.7,8.9c-1.2,1.3-1,3.3,0.3,4.5l11.6,10.7
	c0.4-0.1,0.8-0.1,1.3-0.1c1.6,0,3.1,0.6,4.4,1.6l3.7,3.2l15.3-6.6C212.2,238,213.1,237.8,214.1,237.8L214.1,237.8z M239.9,240.2
	c0.5,0,0.9,0.1,1.4,0.2l11.6-10.7c1.3-1.2,1.4-3.2,0.3-4.5l-7.7-8.9c-1.4-1.6-2.1-3.6-2.1-5.7v-6h-8.8c-0.9,0-1.7,0.3-2.3,0.9
	L218,219.6l21,20.8C239.3,240.3,239.6,240.2,239.9,240.2L239.9,240.2z M207,206.9c-0.3,0.2-0.4,0.5-0.4,0.9c0,0.3,0.1,0.7,0.4,0.9
	l7.1,7l7.1-7c0.2-0.2,0.4-0.6,0.4-0.9c0-0.3-0.1-0.7-0.4-0.9l-7-6.4L207,206.9z"/>
<path class="st6" d="M220.8,318.7c-3.2-2.4-5.6-5.9-6.8-9.8c-1.1,3.9-3.5,7.3-6.8,9.8l-2.8,2.1c-0.9,0.7-2.1,0.5-2.8-0.4
	c-0.3-0.3-0.4-0.8-0.4-1.2v-9c-3.3,2.8-7.5,4.3-11.9,4.2h-2.9c-1.1,0-2-0.9-2-2c0-0.5,0.2-0.9,0.4-1.2l5.5-6.8
	c1.1-1.3,1.9-2.8,2.4-4.5c-1,0.4-2,0.6-3,0.6h-3.6c-2.3,0-4.4-1.1-5.6-3l-3.6-5.4c-0.6-0.9-0.4-2.2,0.6-2.8c0.3-0.2,0.7-0.3,1.1-0.3
	h5.9c0.2,0,0.5-0.1,0.6-0.3c0.1-0.1,0.1-0.2,0.1-0.3v-3c0-0.3-0.1-0.7-0.4-0.9l-3.9-3.9c-2.4-2.4-3.7-5.6-3.7-9v-6.8
	c0-1.3,0.3-2.6,0.8-3.9l-3,2.5c-0.8,0.7-2.1,0.6-2.8-0.2c-0.3-0.4-0.5-0.8-0.5-1.3v-10.2c0-2.5,1.5-4.9,3.7-6l9.5-4.7
	c2.4-1.2,5.4-0.9,7.4,0.9l3.6,3.1l15.3-6.6c1.7-0.7,3.6-0.7,5.4,0l15.4,6.6l3.7-3.1c2.1-1.8,5-2.1,7.4-0.9l9.4,4.7
	c2.3,1.1,3.7,3.5,3.7,6v10.2c0,1.1-0.9,2-2,2c-0.5,0-0.9-0.2-1.3-0.5l-3-2.5c0.5,1.2,0.8,2.6,0.8,3.9v6.8c0,3.4-1.3,6.6-3.7,9
	l-3.9,3.9c-0.2,0.2-0.4,0.6-0.4,0.9v3c0,0.1,0,0.2,0.1,0.3c0.2,0.2,0.4,0.3,0.6,0.3h5.9c1.1,0,2,0.9,2,2c0,0.4-0.1,0.8-0.3,1.1
	l-3.6,5.4c-1.3,1.9-3.4,3-5.6,3h-3.5c-1,0-2-0.2-3-0.6c0.5,1.6,1.3,3.1,2.3,4.5l5.5,6.8c0.7,0.9,0.6,2.1-0.3,2.8
	c-0.4,0.3-0.8,0.4-1.2,0.4h-2.9c-4.3,0-8.5-1.5-11.9-4.2v9c0,1.1-0.9,2-2,2c-0.4,0-0.9-0.1-1.2-0.4L220.8,318.7z M218.8,303.7
	c0,2.8,0.9,5.5,2.5,7.7v-19.1c0-2,0.3-4,1-5.9l1.6-4.9c0.9-2.8,1.4-5.8,1.4-8.8v-5.9c0-2.3-0.4-4.6-1.3-6.8l-5.3,4.9V303.7z
	 M204.1,260.1c-0.8,2.2-1.3,4.5-1.3,6.8v5.9c0,3,0.5,5.9,1.4,8.8l1.6,4.8c0.6,1.9,1,3.9,1,5.9v19.1c1.6-2.3,2.5-5,2.5-7.7V265
	L204.1,260.1z M228.5,256.6c1.5,3.2,2.3,6.7,2.3,10.3v5.9c0,3.6-0.6,7.1-1.7,10.5l-1.6,4.9c-0.5,1.4-0.7,2.8-0.7,4.2v6.7
	c0,2.1,0.7,4.1,2.1,5.7c1.3,1.4,2.8,2.5,4.5,3.2l-0.1-0.1c-2.7-3.3-4.1-7.5-4.1-11.7v-6c0-3.4,0.9-6.7,2.7-9.6l2.3-3.8
	c0.7-1.1,1-2.4,1-3.7v-8.2c0-2.3-1.1-4.4-2.9-5.8l-3.1-2.3L228.5,256.6z M195.7,258.9c-1.8,1.4-2.9,3.5-2.9,5.8v8.3
	c0,1.3,0.3,2.6,1,3.7l2.3,3.8c1.7,2.9,2.7,6.2,2.7,9.6v6c0,4.2-1.5,8.3-4.1,11.6l-0.1,0.1c1.7-0.7,3.3-1.8,4.6-3.2
	c1.4-1.6,2.2-3.6,2.1-5.7v-6.7c0-1.4-0.2-2.8-0.7-4.2l-1.6-4.9c-1.1-3.4-1.7-6.9-1.7-10.5v-5.9c0-3.5,0.8-7.1,2.3-10.3h-0.7
	L195.7,258.9z M239.5,259c0.9,1.8,1.3,3.7,1.3,5.7v8.3c0,2.3-0.6,4.6-1.8,6.6l-2.3,3.8c-1.2,2.1-1.9,4.4-1.9,6.8v0.3
	c0,1.5,0.6,2.9,1.7,3.9c0.5,0.5,1.2,0.7,1.9,0.7h3.5c0.4,0,0.8-0.2,1-0.5c-3.3-0.3-5.7-3.1-5.6-6.4v-2.4c-0.1-1.9,0.7-3.7,2-5.1
	l3.9-3.9c1.4-1.4,2.1-3.2,2.1-5.1v-6.8c0-1.9-1.2-3.7-2.9-4.5L239.5,259z M185.2,294.4c0.2,0.3,0.6,0.5,1,0.5h3.5
	c0.7,0,1.4-0.2,1.9-0.7c1.1-1,1.7-2.4,1.7-3.9v-0.3c0-2.4-0.7-4.8-1.9-6.8l-2.3-3.8c-1.2-2-1.8-4.2-1.8-6.6v-8.2
	c0-2,0.5-3.9,1.3-5.7l-2.9,1.2c-1.8,0.8-3,2.5-2.9,4.5v6.8c0,1.9,0.8,3.8,2.1,5.1l3.9,3.9c1.3,1.3,2,3,2,4.8v2.7
	C190.9,291.4,188.4,294.1,185.2,294.4L185.2,294.4z M214.1,261.9l13.6-12.8l-13.1-5.7c-0.2-0.1-0.3-0.1-0.5-0.1
	c-0.2,0-0.3,0-0.5,0.1l-13.1,5.7L214.1,261.9z M244.6,251.1c1.6,0,3.1,0.6,4.4,1.6l1.9,1.6v-2.6c0-0.5-0.3-0.9-0.7-1.1l-9.4-4.7
	c-0.2-0.1-0.4-0.1-0.6-0.1c-0.3,0-0.6,0.1-0.8,0.3l-5,4.3l-0.8,0.8L244.6,251.1z M188,245.7c-0.2,0-0.4,0-0.6,0.1l-9.4,4.7
	c-0.4,0.2-0.7,0.6-0.7,1.1v2.6l1.9-1.6c1.2-1,2.8-1.6,4.4-1.6h11l-0.9-0.9l-4.9-4.2C188.6,245.8,188.3,245.7,188,245.7z"/>
<path class="st7" d="M215,242.5c-0.6-0.2-1.2-0.2-1.8,0l-17.9,7.8l-5.8-5c-0.4-0.3-0.9-0.5-1.5-0.5c-0.3,0-0.7,0.1-1,0.2l-0.9,0.5
	l-1.1-0.6L172.1,233c-3.1-2.8-3.3-7.6-0.6-10.8l7.7-8.9c0.7-0.8,1-1.8,1-2.8V201c0-0.6,0.4-1,1-1h12.3c2,0,4,0.8,5.4,2.2l3.5,3.4
	c0.3-0.8,0.8-1.5,1.5-2.1l9.4-8.6c0.4-0.3,1-0.3,1.3,0l9.4,8.6c0.6,0.6,1.1,1.3,1.5,2.1l3.5-3.4c1.5-1.4,3.4-2.2,5.5-2.2h12.3
	c0.6,0,1,0.4,1,1v9.5c0,1,0.3,2,1,2.8l7.7,8.9c2.8,3.1,2.6,7.9-0.5,10.8l-13.6,12.6l-1-0.4c-0.5-0.2-1-0.3-1.5-0.4
	c-0.3,0.1-0.6,0.2-0.9,0.3l-6.2,5.3L215,242.5z M214.1,238.8c0.8,0,1.6,0.2,2.3,0.5l15.9,6.9l3.3-2.9l-39-38.6
	c-0.8-0.8-1.9-1.2-3-1.2h-9.8v7c0,1.9-0.7,3.7-1.9,5.1l-7.7,8.9c-1.5,1.7-1.4,4.3,0.3,5.9l12,11.1c0.5-0.1,1-0.2,1.6-0.2
	c1.4,0,2.7,0.5,3.7,1.4l4.1,3.6l15.9-6.9C212.6,239,213.3,238.8,214.1,238.8L214.1,238.8z M240,241.2c0.6,0,1.1,0.1,1.7,0.3l12-11.1
	c1.7-1.6,1.8-4.2,0.3-5.9l-7.7-8.9c-1.2-1.4-1.9-3.2-1.9-5.1v-7h-9.8c-1.1,0-2.2,0.4-3,1.2l-15,14.9l22.1,21.9
	C239.1,241.3,239.5,241.3,240,241.2L240,241.2z M206.4,206.1c-0.9,0.8-1,2.3-0.1,3.2c0,0,0,0,0.1,0.1l7.8,7.7l7.8-7.7
	c0.9-0.9,0.9-2.3,0-3.2c0,0,0,0-0.1-0.1l-7.7-7L206.4,206.1z"/>
<path class="st8" d="M221.4,317.9c-4.5-3.4-7.1-8.6-7.1-14.2v-35.8l-0.3,0.2l-0.3-0.2v35.8c0,5.6-2.6,10.8-7.1,14.2l-2.8,2.1
	c-0.4,0.3-1.1,0.2-1.4-0.2c-0.1-0.2-0.2-0.4-0.2-0.6v-11.3c-0.1,0.2-0.3,0.3-0.5,0.5c-3.4,3.3-7.9,5.1-12.5,5h-2.8c-0.6,0-1-0.5-1-1
	c0-0.2,0.1-0.4,0.2-0.6l5.5-6.8c1.6-2,2.6-4.4,3-7c-1.3,1-2.9,1.5-4.5,1.5h-3.5c-1.9,0-3.7-1-4.8-2.6l-3.6-5.4
	c-0.3-0.5-0.2-1.1,0.3-1.4c0.2-0.1,0.4-0.2,0.6-0.2h5.9c0.5,0,1-0.2,1.4-0.6c0.3-0.3,0.4-0.6,0.4-1v-3c0-0.6-0.2-1.2-0.7-1.6
	l-3.9-3.9c-2.2-2.2-3.4-5.2-3.4-8.3v-6.9c0-3.7,2.2-7.1,5.7-8.5l1.3-0.5h-1.7c-0.5,0-1,0.2-1.4,0.5l-7.7,6.5
	c-0.4,0.4-1.1,0.3-1.4-0.1c-0.1-0.2-0.2-0.4-0.2-0.6v-10.2c0-2.2,1.2-4.2,3.2-5.1l9.4-4.7c2.1-1,4.6-0.7,6.3,0.8l4.2,3.6l15.9-6.9
	c1.5-0.6,3.1-0.6,4.6,0l15.9,6.9l4.1-3.6c1.8-1.5,4.2-1.8,6.3-0.8l9.4,4.7c1.9,1,3.2,3,3.2,5.1v10.1c0,0.6-0.4,1-1,1
	c-0.2,0-0.5-0.1-0.7-0.2l-7.7-6.5c-0.4-0.3-0.9-0.5-1.5-0.5h-1.7l1.3,0.5c3.4,1.5,5.7,4.9,5.7,8.6v6.8c0,3.1-1.2,6.1-3.4,8.3
	l-3.9,3.9c-0.4,0.4-0.7,1-0.7,1.6v3c0,0.4,0.1,0.7,0.4,1c0.4,0.4,0.8,0.6,1.4,0.6h5.9c0.6,0,1,0.4,1,1c0,0.2-0.1,0.4-0.2,0.6
	l-3.6,5.4c-1.1,1.6-2.9,2.6-4.8,2.6h-3.5c-1.6,0-3.2-0.5-4.5-1.5c0.4,2.6,1.4,5,3,7l5.5,6.8c0.3,0.4,0.3,1.1-0.2,1.4
	c-0.2,0.1-0.4,0.2-0.6,0.2h-2.9c-4.7,0-9.2-1.9-12.6-5.2c-0.1-0.1-0.2-0.2-0.3-0.3v11.3c0,0.6-0.4,1-1,1c-0.2,0-0.4-0.1-0.6-0.2
	L221.4,317.9z M203.7,258.3c-1.2,2.7-1.9,5.6-1.9,8.5v5.9c0,3.1,0.5,6.2,1.5,9.1l1.6,4.8c0.6,1.8,0.9,3.7,0.9,5.6v21.8
	c2.9-2.7,4.5-6.5,4.5-10.4v-39.1L203.7,258.3z M217.8,303.7c0,3.9,1.6,7.7,4.5,10.4v-21.8c0-1.9,0.3-3.8,0.9-5.6l1.6-4.8
	c1-2.9,1.5-6,1.5-9.1v-5.9c0-2.9-0.7-5.9-1.9-8.5l-6.6,6.2V303.7z M195.1,258.1c-2.1,1.6-3.3,4-3.3,6.6v8.3c0,1.5,0.4,3,1.2,4.2
	l2.3,3.8c1.7,2.8,2.5,5.9,2.5,9.1v6c0,4-1.4,7.9-3.9,11.1l-2,2.5c2.8-0.5,5.4-1.8,7.5-3.8c1.9-1.9,3-4.5,3-7.2V293
	c0.1-1.8-0.2-3.5-0.7-5.2L200,283c-1.1-3.3-1.6-6.7-1.6-10.2v-5.9c0-3.6,0.9-7.2,2.5-10.5l0.3-0.5l-0.3-0.2h-2.3L195.1,258.1z
	 M227.3,256.3c1.6,3.3,2.5,6.9,2.5,10.5v5.9c0,3.5-0.6,6.9-1.7,10.2l-1.6,4.8c-0.5,1.5-0.7,3-0.7,4.5v6.5c0,2.7,1.1,5.3,3,7.2
	c2,2,4.6,3.3,7.5,3.8l-2.1-2.6c-2.5-3.1-3.9-7.1-3.9-11.1v-6c0-3.2,0.9-6.4,2.5-9.1l2.3-3.8c0.8-1.3,1.2-2.8,1.2-4.3v-8.2
	c0-2.6-1.2-5-3.3-6.6l-3.4-2.5h-2.3l-0.2,0.2L227.3,256.3z M236.7,256.8c2,2.2,3.1,5,3.1,8v8.3c0,2.1-0.6,4.2-1.7,6l-2.3,3.8
	c-1.3,2.2-2,4.8-2,7.3v0.3c0,1.6,0.7,3.2,1.8,4.4c0.8,0.7,1.8,1.1,2.8,1.1h3.1c0.9,0.1,1.7-0.3,2.2-1l1-1.5h-1.2
	c-1.6,0-3.2-0.7-4.2-2c-0.7-0.9-1.1-2.1-1.1-3.2v-2.9c0-1.5,0.6-3,1.7-4.1l3.9-3.9c1.5-1.5,2.4-3.6,2.4-5.8v-6.8
	c0-2.3-1.4-4.5-3.6-5.4L236.7,256.8z M184.3,295c0.4,0.6,1.1,1,1.9,1h3.4c1.1,0,2.1-0.4,2.9-1.2c1.2-1.2,1.8-2.8,1.8-4.4v-0.3
	c0-2.6-0.7-5.1-2-7.3L190,279c-1.1-1.8-1.7-3.9-1.7-6v-8.2c0-3,1.1-5.8,3.1-8l-6.1,2.6c-2.2,0.9-3.6,3-3.6,5.4v6.8
	c0,2.2,0.9,4.3,2.4,5.8l3.9,3.9c1.1,1.1,1.7,2.5,1.7,4.1v2.7c0,1.5-0.7,3-1.7,4c-1,0.9-2.3,1.4-3.6,1.4h-1.2L184.3,295z
	 M214.1,263.3l15.4-14.5l-14.4-6.3c-0.6-0.2-1.2-0.2-1.8,0l-14.5,6.3L214.1,263.3z M188,244.7c-0.3,0-0.7,0.1-1,0.2l-9.4,4.7
	c-0.8,0.4-1.2,1.2-1.2,2v4.8l3.5-3c1-0.9,2.4-1.4,3.7-1.4h13.5l-2.7-2.6l-4.9-4.2C189,244.9,188.5,244.7,188,244.7z M244.6,252.1
	c1.4,0,2.7,0.5,3.7,1.4l3.5,3v-4.8c0-0.8-0.5-1.6-1.3-2l-9.4-4.7c-0.3-0.2-0.7-0.2-1-0.2c-0.5,0-1.1,0.2-1.5,0.5l-5,4.3l-2.7,2.6
	L244.6,252.1z"/>
<path class="st9" d="M229.1,341"/>
<path class="st10" d="M255.8,222.8l-7.7-8.9c-0.8-1-1.3-2.2-1.3-3.4V201h-12.3c-1.8,0-3.5,0.7-4.8,1.9l-4.8,4.7
	c0-1.3-0.6-2.5-1.6-3.4l-9.4-8.6l-9.4,8.6c-1,0.9-1.5,2.1-1.5,3.4l-4.8-4.7c-1.3-1.3-3-2-4.8-1.9h-12.3v9.5c0,1.3-0.5,2.5-1.3,3.4
	l-7.7,8.9c-2.4,2.7-2.2,6.9,0.5,9.4l12.7,11.8l0.5,0.3l0.5-0.2c1.2-0.6,2.6-0.4,3.6,0.4l5.3,4.6l17.3-7.5c0.8-0.4,1.8-0.4,2.6,0
	l17.3,7.5l5.9-5c0.4-0.2,0.9-0.3,1.4-0.4c0.6,0,1.3,0.2,1.8,0.4l0.4,0.2l13.1-12.1C258,229.7,258.2,225.6,255.8,222.8z M204.6,207.7
	c0-0.9,0.4-1.7,1.1-2.3l8.4-7.6l8.4,7.6c0.7,0.6,1,1.4,1.1,2.3c0,0.9-0.3,1.7-0.9,2.4l-8.5,8.4l-0.8-0.8l-7.7-7.6
	C204.9,209.5,204.6,208.6,204.6,207.7L204.6,207.7z M232.4,247.3l-16.5-7.1c-1.2-0.5-2.6-0.5-3.8,0l-16.5,7.1l-4.6-4
	c-1.3-1.1-3.2-1.5-4.9-0.8l-12.4-11.5c-2.1-1.9-2.3-5.2-0.4-7.3l7.7-8.9c1.1-1.2,1.7-2.8,1.6-4.4v-8h10.8c1.4,0,2.7,0.5,3.7,1.5
	l7.2,7.2l0,0l8.5,8.4l0,0l24.1,23.8L232.4,247.3z M254.3,231.1l-12.4,11.5c-0.6-0.2-1.3-0.4-1.9-0.4l0,0c-0.5,0.1-1,0.2-1.6,0.3
	l-2.1-2.1l-21.2-20.9l4.1-4l4.4-4.4l0,0l7.2-7.2c1-1,2.3-1.5,3.7-1.5h10.8v8c0,1.6,0.6,3.2,1.7,4.4l7.7,8.9
	C256.6,226,256.4,229.2,254.3,231.1L254.3,231.1z"/>
<path class="st11" d="M246.6,255.4l7.7,6.5v-10.1c0-1.8-1-3.4-2.6-4.3l-9.4-4.7c-1.7-0.9-3.8-0.6-5.2,0.6l-4.6,4l-16.5-7.1
	c-1.2-0.5-2.6-0.5-3.8,0l-16.5,7.1l-4.6-4c-1.4-1.2-3.5-1.5-5.2-0.6l-9.4,4.7c-1.6,0.8-2.6,2.4-2.6,4.3v10.1l7.7-6.5
	c0.6-0.5,1.3-0.8,2.1-0.8h6.7l-5.8,2.5c-3.1,1.3-5.1,4.3-5.1,7.7v6.8c0,2.9,1.1,5.6,3.1,7.6l3.9,3.9c0.6,0.6,0.9,1.4,0.9,2.3v3
	c0,0.6-0.3,1.3-0.7,1.7c-0.5,0.5-1.3,0.9-2.1,0.9h-5.9l3.6,5.4c0.9,1.3,2.4,2.1,3.9,2.1h3.5c1.7,0,3.3-0.7,4.5-1.9
	c0.4-0.4,0.8-0.8,1.1-1.3v0.8c0,3.5-1.2,6.8-3.3,9.5l-5.5,6.8h2.9c4.4,0,8.7-1.8,11.8-4.9c0.8-0.8,1.5-1.7,2-2.7v14.4l2.8-2.1
	c4.2-3.2,6.7-8.1,6.7-13.4v-38.1l1.3,1.2l1.3-1.2v38.1c0,5.3,2.5,10.2,6.7,13.4l2.8,2.1v-14.4c0.5,1,1.2,1.9,2,2.7
	c3.1,3.2,7.4,4.9,11.9,4.9h2.9l-5.5-6.8c-2.2-2.7-3.3-6.1-3.3-9.5v-0.8c0.3,0.5,0.7,0.9,1.1,1.3c1.2,1.2,2.8,1.9,4.5,1.9h3.5
	c1.6,0,3.1-0.8,4-2.1l3.6-5.4h-5.9c-0.8,0-1.5-0.3-2-0.9c-0.5-0.5-0.7-1.1-0.7-1.7v-3c0-0.9,0.3-1.7,0.9-2.3l3.9-3.9
	c2-2,3.2-4.7,3.1-7.6v-6.8c0-3.3-2-6.4-5.1-7.7l-5.8-2.5h6.6C245.3,254.6,246.1,254.9,246.6,255.4z M238,244.5c1-0.9,2.4-1,3.6-0.4
	l9.4,4.7c1.1,0.5,1.8,1.7,1.8,2.9v6.9l-5.2-4.4c-0.9-0.7-1.9-1.1-3.1-1.1h-16l2.2-2.1l2.3-2.2L238,244.5z M183.5,253.1
	c-1.1,0-2.2,0.4-3.1,1.1l-5.2,4.4v-6.9c0-1.2,0.7-2.4,1.8-2.9l9.4-4.7c1.2-0.6,2.6-0.4,3.6,0.4l4.9,4.3l4.6,4.3L183.5,253.1
	L183.5,253.1z M193.1,295.5c-0.9,0.9-2.2,1.4-3.5,1.4h-3.5c-1.1,0-2.1-0.5-2.7-1.5l-2-3h3.1c1.2,0,2.3-0.5,3.1-1.3
	c0.7-0.7,1.2-1.7,1.1-2.8v-3c0-1.3-0.5-2.5-1.4-3.4l-3.9-3.9c-1.7-1.7-2.7-4.1-2.7-6.5v-6.8c0-2.7,1.6-5.2,4.2-6.3l9-3.8h1.7l-2,1.5
	c-2.7,2-4.3,5.2-4.3,8.6v8.2c0,1.9,0.5,3.9,1.5,5.5l2.3,3.8c1.4,2.4,2.2,5.1,2.2,7.8v0.3C195.4,292.4,194.6,294.2,193.1,295.5
	L193.1,295.5z M200.1,306.5c-2.8,2.8-6.6,4.4-10.5,4.5l3.5-4.4c2.4-3,3.7-6.7,3.7-10.5v-6c0-3-0.8-6-2.4-8.6l-2.3-3.8
	c-0.9-1.4-1.3-3.1-1.3-4.8v-8.2c0-2.9,1.4-5.6,3.7-7.4l3.6-2.7h3l0.4,0.4l0.7,0.7l-0.6,1.2c-1.6,3.1-2.4,6.6-2.4,10.1v5.9
	c0,3.4,0.5,6.7,1.6,9.9l1.6,4.9c0.5,1.6,0.8,3.2,0.8,4.8v6.7C203.3,301.8,202.2,304.5,200.1,306.5L200.1,306.5z M211.3,264.2v39.6
	c0,4.8-2.3,9.3-6.1,12.2l-0.4,0.3v-23.9c0-1.8-0.2-3.6-0.8-5.4l-1.6-4.8c-1-3-1.5-6.2-1.5-9.4v-5.9c0-3.3,0.8-6.5,2.2-9.4l0.4-0.8
	l4.2,4L211.3,264.2z M214,264.7l-1.3-1.2l0,0l-9-8.6l0,0l-0.4-0.4l0,0l-1.3-1.2l-0.3-0.3l0,0l-2.6-2.4l-2.3-2.2l15.9-6.9
	c0.8-0.4,1.8-0.4,2.6,0l15.9,6.9l-6.5,6.1l0,0l-0.5,0.5l-8.9,8.4l0,0L214,264.7z M223.3,316.3l-0.4-0.3c-3.8-2.9-6.1-7.4-6.1-12.2
	v-39.6l3.7-3.5l4.2-4l0.4,0.8c1.5,2.9,2.2,6.1,2.2,9.4v5.9c0,3.2-0.5,6.4-1.5,9.4l-1.6,4.9c-0.6,1.7-0.9,3.5-0.9,5.3L223.3,316.3
	L223.3,316.3z M235,306.6l3.5,4.4c-4,0-7.8-1.6-10.6-4.5c-2-2-3.1-4.7-3.1-7.5v-6.7c0-1.6,0.3-3.3,0.8-4.8l1.6-4.9
	c1.1-3.2,1.6-6.5,1.6-9.9v-5.9c0-3.5-0.8-7-2.4-10.1l-0.6-1.2l0.7-0.7l0.4-0.4h3.1l3.6,2.7c2.3,1.8,3.7,4.5,3.7,7.4v8.3
	c0,1.7-0.5,3.3-1.3,4.8l-2.3,3.8c-1.6,2.6-2.4,5.6-2.4,8.6v6C231.4,300,232.6,303.6,235,306.6z M243.2,258.4
	c2.5,1.1,4.2,3.6,4.2,6.3v6.8c0,2.5-1,4.8-2.7,6.5l-3.9,3.9c-0.9,0.9-1.4,2.1-1.4,3.4v3c0,1,0.4,2,1.1,2.8c0.8,0.8,1.9,1.3,3.1,1.3
	h3.1l-2,3c-0.6,0.9-1.6,1.5-2.7,1.5h-3.6c-1.3,0-2.6-0.5-3.5-1.4c-1.4-1.4-2.1-3.2-2.1-5.1v-0.3c0-2.8,0.8-5.5,2.2-7.8l2.3-3.8
	c1-1.7,1.5-3.6,1.5-5.5v-8.2c0-3.4-1.6-6.6-4.3-8.6l-2-1.5h1.7L243.2,258.4z"/>
<path class="st9" d="M129.1,341"/>
<path class="st2" d="M300.3,288c-2.8,0-5-2.2-5-5v-27h-11c-2.8,0-5-2.2-5-5s2.2-5,5-5h32c2.8,0,5,2.2,5,5s-2.2,5-5,5h-11v27
	C305.3,285.8,303.1,288,300.3,288z"/>
<path class="st2" d="M412.3,288c-2.8,0-5-2.2-5-5v-11h-22v11c0,2.8-2.2,5-5,5s-5-2.2-5-5v-16c0-11.6,9.4-21,21-21s21,9.4,21,21v16
	C417.3,285.8,415.1,288,412.3,288z M406.1,262c-2.8-5.4-9.4-7.5-14.8-4.7c-2,1-3.7,2.7-4.7,4.7H406.1z"/>
<path class="st2" d="M460.3,288c-2.8,0-5-2.2-5-5v-19.9l-7.5,7.5c-2,2-5.1,2-7.1,0c0,0,0,0,0,0l-7.5-7.5V283c0,2.8-2.2,5-5,5
	s-5-2.2-5-5v-32c0-2.8,2.2-5,5-5c1.3,0,2.6,0.5,3.5,1.5l12.5,12.5l12.5-12.5c2-1.9,5.1-1.9,7.1,0c0.9,0.9,1.5,2.2,1.5,3.5v32
	C465.3,285.8,463.1,288,460.3,288L460.3,288z"/>
<path class="st1" d="M316.3,240c-2.8,0-5-2.2-5-5v-19.9l-7.5,7.5c-2,2-5.1,2-7.1,0l-7.5-7.5V235c0,2.8-2.2,5-5,5s-5-2.2-5-5v-32
	c0-2.8,2.2-5,5-5c1.3,0,2.6,0.5,3.5,1.5l12.5,12.5l12.5-12.5c2-1.9,5.1-1.9,7.1,0c0.9,0.9,1.5,2.2,1.5,3.5v32
	C321.3,237.8,319.1,240,316.3,240z"/>
<path class="st1" d="M348.3,240c-2.8,0-5-2.2-5-5v-11.6c-9.4-2.2-16.1-10.7-16-20.4c0-2.8,2.2-5,5-5s5,2.2,5,5c0,6.1,4.9,11,11,11
	s11-4.9,11-11c0-2.8,2.2-5,5-5s5,2.2,5,5c0.1,9.7-6.6,18.2-16,20.4V235C353.3,237.8,351.1,240,348.3,240z"/>
<path class="st1" d="M396.3,240c-2.8,0-5-2.2-5-5v-27h-11c-2.8,0-5-2.2-5-5s2.2-5,5-5h32c2.8,0,5,2.2,5,5s-2.2,5-5,5h-11v27
	C401.3,237.8,399.1,240,396.3,240z"/>
<path class="st1" d="M460.3,240c-2.8,0-5-2.2-5-5v-11h-22v11c0,2.8-2.2,5-5,5s-5-2.2-5-5v-32c0-2.8,2.2-5,5-5s5,2.2,5,5v11h22v-11
	c0-2.8,2.2-5,5-5s5,2.2,5,5v32C465.3,237.8,463.1,240,460.3,240z"/>
<path class="st1" d="M556.3,240c-2.8,0-5-2.2-5-5v-16c0-6.1-4.9-11-11-11s-11,4.9-11,11v16c0,2.8-2.2,5-5,5s-5-2.2-5-5v-16
	c0-11.6,9.4-21,21-21s21,9.4,21,21v16C561.3,237.8,559.1,240,556.3,240z"/>
<path class="st1" d="M572.3,240c-2.8,0-5-2.2-5-5v-32c0-2.8,2.2-5,5-5s5,2.2,5,5v32C577.3,237.8,575.1,240,572.3,240z"/>
<path class="st12" d="M492.3,242.4c-12.5,0-22.6-10.1-22.6-22.6s10.1-22.6,22.6-22.6s22.6,10.1,22.6,22.6
	C514.9,232.3,504.8,242.4,492.3,242.4z M485.7,226.4L485.7,226.4L485.7,226.4z M498.9,226.4c3.7-3.6,3.7-9.4,0.2-13.1
	c-0.1-0.1-0.1-0.1-0.2-0.2V226.4z M485.7,213.2L485.7,213.2L485.7,213.2z"/>
<path class="st12" d="M492.3,241.6c-12,0-21.8-9.8-21.8-21.8c0-12,9.8-21.8,21.8-21.8c12,0,21.8,9.8,21.8,21.8
	C514.1,231.8,504.3,241.6,492.3,241.6z M498.1,228.2c4.6-3.2,5.8-9.5,2.6-14.1c-0.7-1-1.6-1.9-2.6-2.6V228.2z M484,225.6
	c0.7,1,1.6,1.9,2.5,2.6v-2.6H484z M486.5,214v-2.6c-1,0.7-1.8,1.6-2.5,2.6H486.5z"/>
<path class="st12" d="M492.3,241.6c-12,0-21.8-9.8-21.8-21.8c0-12,9.8-21.8,21.8-21.8c12,0,21.8,9.8,21.8,21.8
	C514.1,231.8,504.3,241.6,492.3,241.6z M498.1,228.2c4.6-3.2,5.8-9.5,2.6-14.1c-0.7-1-1.6-1.9-2.6-2.6V228.2z M484,225.6
	c0.7,1,1.6,1.9,2.5,2.6v-2.6H484z M486.5,214v-2.6c-1,0.7-1.8,1.6-2.5,2.6H486.5z"/>
<path class="st12" d="M492.3,240.8c-11.6,0-21-9.4-21-21s9.4-21,21-21c11.6,0,21,9.4,21,21C513.3,231.4,503.9,240.8,492.3,240.8
	L492.3,240.8z M497.3,229.6c5.4-2.8,7.5-9.4,4.7-14.8c-1-2-2.7-3.7-4.7-4.7V229.6z M482.5,224.8c1.1,2,2.7,3.7,4.8,4.8v-4.8H482.5z
	 M487.3,214.8V210c-2,1.1-3.7,2.7-4.8,4.8L487.3,214.8z"/>
<path class="st12" d="M588.3,242.4c-3.6,0-6.6-3-6.6-6.6c0-1,0.2-2,0.7-2.9l3.5-6.9c-2.5-1-4.1-3.4-4.2-6.1c0-3.6,3-6.6,6.6-6.6h3.9
	l6.2-12.4c1.6-3.3,5.6-4.6,8.9-3c1.3,0.6,2.3,1.7,3,3l6.2,12.4h3.9c3.6,0,6.6,3,6.6,6.6c0,2.7-1.7,5.1-4.2,6.1l3.5,6.9
	c1.6,3.3,0.3,7.2-3,8.9c-0.9,0.5-1.9,0.7-3,0.7H588.3z M609.6,229.2l-1.4-2.8h-7.8l-1.4,2.8H609.6z"/>
<path class="st2" d="M348.3,288c-11.6,0-21-9.4-21-21c0-11.6,9.4-21,21-21h16c2.8,0,5,2.2,5,5s-2.2,5-5,5h-16
	c-4.1,0.1-7.9,2.4-9.8,6h25.8c2.8,0,5,2.2,5,5s-2.2,5-5,5h-25.8c1.9,3.6,5.7,5.9,9.8,6h16c2.8,0,5,2.2,5,5s-2.2,5-5,5H348.3z"/>
<path class="st4" d="M300.3,287c-2.2,0-4-1.8-4-4v-28h-12c-2.2,0-4-1.8-4-4s1.8-4,4-4h32c2.2,0,4,1.8,4,4s-1.8,4-4,4h-12v28
	C304.3,285.2,302.5,287,300.3,287z"/>
<path class="st4" d="M412.3,287c-2.2,0-4-1.8-4-4v-12h-24v12c0,2.2-1.8,4-4,4s-4-1.8-4-4v-16c0-11,9-20,20-20s20,9,20,20v16
	C416.3,285.2,414.5,287,412.3,287z M407.6,263c-2.2-6.2-9.1-9.5-15.3-7.2c-3.4,1.2-6,3.9-7.2,7.2H407.6z"/>
<path class="st4" d="M460.3,287c-2.2,0-4-1.8-4-4v-22.3l-9.2,9.2c-1.6,1.6-4.1,1.6-5.7,0c0,0,0,0,0,0l-9.2-9.2V283c0,2.2-1.8,4-4,4
	s-4-1.8-4-4v-32c0-2.2,1.8-4,4-4c1.1,0,2.1,0.4,2.8,1.2l13.2,13.2l13.2-13.2c0.7-0.7,1.8-1.2,2.8-1.2c2.2,0,4,1.8,4,4v32
	C464.3,285.2,462.5,287,460.3,287z"/>
<path class="st3" d="M316.3,239c-2.2,0-4-1.8-4-4v-22.3l-9.2,9.2c-1.6,1.6-4.1,1.6-5.6,0l-9.2-9.2V235c0,2.2-1.8,4-4,4s-4-1.8-4-4
	v-32c0-2.2,1.8-4,4-4c1.1,0,2.1,0.4,2.8,1.2l13.2,13.2l13.2-13.2c1.6-1.6,4.1-1.5,5.7,0c0.7,0.7,1.2,1.8,1.2,2.8v32
	C320.3,237.2,318.5,239,316.3,239z"/>
<path class="st3" d="M348.3,239c-2.2,0-4-1.8-4-4v-12.4c-9.3-1.9-16-10.1-16-19.6c0-2.2,1.8-4,4-4s4,1.8,4,4c0,6.6,5.4,12,12,12
	s12-5.4,12-12c0-2.2,1.8-4,4-4s4,1.8,4,4c0,9.5-6.7,17.7-16,19.6V235C352.3,237.2,350.5,239,348.3,239z"/>
<path class="st3" d="M396.3,239c-2.2,0-4-1.8-4-4v-28h-12c-2.2,0-4-1.8-4-4s1.8-4,4-4h32c2.2,0,4,1.8,4,4s-1.8,4-4,4h-12v28
	C400.3,237.2,398.5,239,396.3,239z"/>
<path class="st3" d="M460.3,239c-2.2,0-4-1.8-4-4v-12h-24v12c0,2.2-1.8,4-4,4s-4-1.8-4-4v-32c0-2.2,1.8-4,4-4s4,1.8,4,4v12h24v-12
	c0-2.2,1.8-4,4-4s4,1.8,4,4v32C464.3,237.2,462.5,239,460.3,239z"/>
<path class="st3" d="M556.3,239c-2.2,0-4-1.8-4-4v-16c0-6.6-5.4-12-12-12s-12,5.4-12,12v16c0,2.2-1.8,4-4,4s-4-1.8-4-4v-16
	c0-11,9-20,20-20s20,9,20,20v16C560.3,237.2,558.5,239,556.3,239z"/>
<path class="st3" d="M572.3,239c-2.2,0-4-1.8-4-4v-32c0-2.2,1.8-4,4-4s4,1.8,4,4v32C576.3,237.2,574.5,239,572.3,239z"/>
<path class="st13" d="M492.3,240.6c-11.6,0-21-9.4-21-21s9.4-21,21-21c11.6,0,21,9.4,21,21C513.3,231.2,503.9,240.6,492.3,240.6
	L492.3,240.6z M497.3,229.4c5.4-2.8,7.5-9.4,4.7-14.8c-1-2-2.7-3.7-4.7-4.7V229.4z M482.5,224.6c1.1,2,2.7,3.7,4.8,4.8v-4.8H482.5z
	 M487.3,214.6v-4.8c-2,1.1-3.7,2.7-4.8,4.8H487.3z"/>
<path class="st13" d="M492.3,240.2c-11.4,0-20.6-9.2-20.6-20.6s9.2-20.6,20.6-20.6c11.4,0,20.6,9.2,20.6,20.6
	C512.9,231,503.7,240.2,492.3,240.2z M496.9,230c5.7-2.5,8.4-9.2,5.8-15c-1.1-2.6-3.2-4.7-5.8-5.8V230z M481.9,224.2
	c1.2,2.6,3.2,4.6,5.8,5.8v-5.8H481.9z M487.7,215v-5.8c-2.6,1.2-4.6,3.2-5.8,5.8H487.7z"/>
<path class="st13" d="M492.3,240c-11.3,0-20.4-9.1-20.4-20.4s9.1-20.4,20.4-20.4c11.3,0,20.4,9.1,20.4,20.4c0,0,0,0,0,0
	C512.7,230.9,503.5,240,492.3,240z M496.7,230.3c5.9-2.4,8.8-9.2,6.3-15.1c-1.2-2.9-3.5-5.2-6.3-6.3V230.3z M481.6,224
	c1.2,2.8,3.5,5.1,6.3,6.3V224H481.6z M487.9,215.2v-6.3c-2.8,1.2-5.1,3.5-6.3,6.3H487.9z"/>
<path class="st13" d="M492.3,239.6c-11,0-20-9-20-20s9-20,20-20s20,9,20,20C512.3,230.6,503.3,239.6,492.3,239.6L492.3,239.6z
	 M496.3,230.9c6.2-2.2,9.5-9.1,7.2-15.4c-1.2-3.4-3.9-6-7.2-7.2V230.9z M481,223.6c1.2,3.4,3.9,6.1,7.3,7.3v-7.3H481z M488.3,215.6
	v-7.3c-3.4,1.2-6.1,3.9-7.3,7.3H488.3z"/>
<path class="st13" d="M588.3,240.6c-2.8,0-5-2.2-5-5c0-0.8,0.2-1.5,0.5-2.2l4.4-8.8c-2.8,0-5-2.3-5-5c0-2.8,2.3-5,5-5h4.9l6.6-13.2
	c1.2-2.5,4.2-3.5,6.7-2.2c1,0.5,1.8,1.3,2.2,2.2l6.6,13.2h4.9c2.8,0,5,2.2,5,5c0,2.8-2.2,5-5,5l4.4,8.8c1.2,2.5,0.2,5.5-2.2,6.7
	c-0.7,0.3-1.5,0.5-2.2,0.5H588.3z M612.2,230.6l-3-6h-9.8l-3,6H612.2z"/>
<path class="st4" d="M348.3,287c-11,0-20-9-20-20c0-11,9-20,20-20h16c2.2,0,4,1.8,4,4s-1.8,4-4,4h-16c-5.1,0-9.6,3.2-11.3,8h27.3
	c2.2,0,4,1.8,4,4s-1.8,4-4,4H337c1.7,4.8,6.2,8,11.3,8h16c2.2,0,4,1.8,4,4s-1.8,4-4,4H348.3z"/>
<path class="st6" d="M300.3,286c-1.7,0-3-1.3-3-3v-29h-13c-1.7,0-3-1.3-3-3s1.3-3,3-3h32c1.7,0,3,1.3,3,3s-1.3,3-3,3h-13v29
	C303.3,284.7,301.9,286,300.3,286z"/>
<path class="st6" d="M412.3,286c-1.7,0-3-1.3-3-3v-13h-26v13c0,1.7-1.3,3-3,3s-3-1.3-3-3v-16c0-10.5,8.5-19,19-19s19,8.5,19,19v16
	C415.3,284.7,413.9,286,412.3,286z M408.9,264c-1.7-7-8.7-11.3-15.7-9.6c-4.7,1.1-8.4,4.8-9.6,9.6H408.9z"/>
<path class="st6" d="M460.3,286c-1.7,0-3-1.3-3-3v-24.8l-10.9,10.9c-0.6,0.6-1.3,0.9-2.1,0.9c-0.8,0-1.6-0.3-2.1-0.9l-10.9-10.9V283
	c0,1.7-1.3,3-3,3s-3-1.3-3-3v-32c0-1.7,1.3-3,3-3c0.8,0,1.6,0.3,2.1,0.9l13.9,13.9l13.9-13.9c1.2-1.2,3.1-1.2,4.2,0
	c0.6,0.6,0.9,1.3,0.9,2.1v32C463.3,284.7,461.9,286,460.3,286z"/>
<path class="st5" d="M316.3,238c-1.7,0-3-1.3-3-3v-24.8l-10.9,10.9c-1.2,1.2-3.1,1.2-4.2,0l-10.9-10.9V235c0,1.7-1.3,3-3,3
	s-3-1.3-3-3v-32c0-1.7,1.3-3,3-3c0.8,0,1.6,0.3,2.1,0.9l13.9,13.9l13.9-13.9c1.2-1.2,3.1-1.2,4.2,0c0.6,0.6,0.9,1.3,0.9,2.1v32
	C319.3,236.7,317.9,238,316.3,238z"/>
<path class="st5" d="M348.3,238c-1.7,0-3-1.3-3-3v-13.3c-9.2-1.5-16-9.4-16-18.7c0-1.7,1.3-3,3-3s3,1.3,3,3c0,7.2,5.8,13,13,13
	s13-5.8,13-13c0-1.7,1.3-3,3-3s3,1.3,3,3c0,9.3-6.8,17.3-16,18.7V235C351.3,236.7,349.9,238,348.3,238z"/>
<path class="st5" d="M396.3,238c-1.7,0-3-1.3-3-3v-29h-13c-1.7,0-3-1.3-3-3s1.3-3,3-3h32c1.7,0,3,1.3,3,3s-1.3,3-3,3h-13v29
	C399.3,236.7,397.9,238,396.3,238z"/>
<path class="st5" d="M460.3,238c-1.7,0-3-1.3-3-3v-13h-26v13c0,1.7-1.3,3-3,3s-3-1.3-3-3v-32c0-1.7,1.3-3,3-3s3,1.3,3,3v13h26v-13
	c0-1.7,1.3-3,3-3s3,1.3,3,3v32C463.3,236.7,461.9,238,460.3,238z"/>
<path class="st5" d="M556.3,238c-1.7,0-3-1.3-3-3v-16c0-7.2-5.8-13-13-13s-13,5.8-13,13v16c0,1.7-1.3,3-3,3s-3-1.3-3-3v-16
	c0-10.5,8.5-19,19-19s19,8.5,19,19v16C559.3,236.7,557.9,238,556.3,238z"/>
<path class="st5" d="M572.3,238c-1.7,0-3-1.3-3-3v-32c0-1.7,1.3-3,3-3s3,1.3,3,3v32C575.3,236.7,573.9,238,572.3,238z"/>
<path class="st14" d="M492.3,238.8c-10.7,0-19.4-8.7-19.4-19.4s8.7-19.4,19.4-19.4s19.4,8.7,19.4,19.4v0
	C511.7,230.1,503,238.8,492.3,238.8z M495.7,231.5c6.7-1.9,10.6-8.8,8.7-15.5c-1.2-4.2-4.5-7.6-8.7-8.7V231.5z M480.2,222.8
	c1.2,4.2,4.5,7.5,8.7,8.7v-8.7H480.2z M488.9,216v-8.7c-4.2,1.2-7.5,4.5-8.7,8.7H488.9z"/>
<path class="st14" d="M492.3,238.4c-10.5,0-19-8.5-19-19s8.5-19,19-19s19,8.5,19,19C511.3,229.9,502.8,238.4,492.3,238.4
	L492.3,238.4z M495.3,232c7-1.7,11.3-8.7,9.6-15.7c-1.2-4.7-4.8-8.4-9.6-9.6V232z M479.7,222.4c1.2,4.8,4.9,8.5,9.6,9.6v-9.6H479.7z
	 M489.3,216.4v-9.6c-4.8,1.2-8.5,4.9-9.6,9.6H489.3z"/>
<path class="st14" d="M588.3,238.8c-1.9,0-3.4-1.6-3.4-3.4c0-0.5,0.1-1,0.4-1.5l5.5-11.1h-2.5c-1.9,0-3.4-1.5-3.4-3.4
	c0-1.9,1.5-3.4,3.4-3.4h5.9l7.1-14.1c0.8-1.7,2.9-2.4,4.6-1.5c0.7,0.3,1.2,0.9,1.5,1.5l7,14.1h5.9c1.9,0,3.4,1.5,3.4,3.4
	c0,1.9-1.5,3.4-3.4,3.4l0,0h-2.5l5.5,11.1c0.8,1.7,0.2,3.7-1.5,4.6c-0.5,0.2-1,0.4-1.5,0.4H588.3z M614.8,232l-4.6-9.2h-11.8
	l-4.6,9.2H614.8z M606.8,216l-2.5-5l-2.5,5H606.8z"/>
<path class="st6" d="M348.3,286c-10.5,0-19-8.5-19-19s8.5-19,19-19h16c1.7,0,3,1.3,3,3s-1.3,3-3,3h-16c-6,0-11.2,4.2-12.6,10h28.6
	c1.7,0,3,1.3,3,3s-1.3,3-3,3h-28.6c1.4,5.8,6.6,10,12.6,10h16c1.7,0,3,1.3,3,3s-1.3,3-3,3H348.3z"/>
<path class="st8" d="M300.3,285c-1.1,0-2-0.9-2-2v-30h-14c-1.1,0-2-0.9-2-2s0.9-2,2-2h32c1.1,0,2,0.9,2,2s-0.9,2-2,2h-14v30
	C302.3,284.1,301.4,285,300.3,285z"/>
<path class="st8" d="M412.3,285c-1.1,0-2-0.9-2-2v-14h-28v14c0,1.1-0.9,2-2,2s-2-0.9-2-2v-16c0-9.9,8.1-18,18-18s18,8.1,18,18v16
	C414.3,284.1,413.4,285,412.3,285z M410.1,265c-1.2-7.6-8.3-12.9-16-11.7c-6.1,0.9-10.8,5.7-11.7,11.7H410.1z"/>
<path class="st8" d="M460.3,285c-1.1,0-2-0.9-2-2v-27.2l-12.6,12.6c-0.8,0.8-2,0.8-2.8,0c0,0,0,0,0,0l-12.6-12.6V283
	c0,1.1-0.9,2-2,2s-2-0.9-2-2v-32c0-1.1,0.9-2,2-2c0.5,0,1,0.2,1.4,0.6l14.6,14.6l14.6-14.6c0.4-0.4,0.9-0.6,1.4-0.6c1.1,0,2,0.9,2,2
	v32C462.3,284.1,461.4,285,460.3,285z"/>
<path class="st7" d="M316.3,237c-1.1,0-2-0.9-2-2v-27.2l-12.6,12.6c-0.8,0.8-2,0.8-2.8,0c0,0,0,0,0,0l-12.6-12.6V235
	c0,1.1-0.9,2-2,2s-2-0.9-2-2v-32c0-1.1,0.9-2,2-2c0.5,0,1,0.2,1.4,0.6l14.6,14.6l14.6-14.6c0.4-0.4,0.9-0.6,1.4-0.6c1.1,0,2,0.9,2,2
	v32C318.3,236.1,317.4,237,316.3,237z"/>
<path class="st7" d="M348.3,237c-1.1,0-2-0.9-2-2v-14.1c-9.1-1-16-8.7-16-17.9c0-1.1,0.9-2,2-2s2,0.9,2,2c0,7.7,6.3,14,14,14
	s14-6.3,14-14c0-1.1,0.9-2,2-2s2,0.9,2,2c0,9.2-6.9,16.9-16,17.9V235C350.3,236.1,349.4,237,348.3,237z"/>
<path class="st7" d="M396.3,237c-1.1,0-2-0.9-2-2v-30h-14c-1.1,0-2-0.9-2-2s0.9-2,2-2h32c1.1,0,2,0.9,2,2s-0.9,2-2,2h-14v30
	C398.3,236.1,397.4,237,396.3,237z"/>
<path class="st7" d="M460.3,237c-1.1,0-2-0.9-2-2v-14h-28v14c0,1.1-0.9,2-2,2s-2-0.9-2-2v-32c0-1.1,0.9-2,2-2s2,0.9,2,2v14h28v-14
	c0-1.1,0.9-2,2-2s2,0.9,2,2v32C462.3,236.1,461.4,237,460.3,237z"/>
<path class="st7" d="M556.3,237c-1.1,0-2-0.9-2-2v-16c0-7.7-6.3-14-14-14s-14,6.3-14,14v16c0,1.1-0.9,2-2,2s-2-0.9-2-2v-16
	c0-9.9,8.1-18,18-18s18,8.1,18,18v16C558.3,236.1,557.4,237,556.3,237z"/>
<path class="st7" d="M572.3,237c-1.1,0-2-0.9-2-2v-32c0-1.1,0.9-2,2-2s2,0.9,2,2v32C574.3,236.1,573.4,237,572.3,237z"/>
<path class="st15" d="M492.3,237.4c-10.1,0-18.2-8.1-18.2-18.2s8.1-18.2,18.2-18.2c10.1,0,18.2,8.1,18.2,18.2
	C510.5,229.2,502.3,237.4,492.3,237.4z M494.5,232.8c7.5-1.2,12.6-8.3,11.5-15.8c-0.9-5.9-5.6-10.5-11.5-11.5V232.8z M478.7,221.4
	c1,5.9,5.6,10.4,11.4,11.4v-11.4H478.7z M490.1,217v-11.4c-5.8,1-10.4,5.6-11.4,11.4H490.1z"/>
<path class="st15" d="M492.3,237.2c-9.9,0-18-8.1-18-18s8.1-18,18-18s18,8.1,18,18l0,0C510.3,229.1,502.2,237.2,492.3,237.2z
	 M494.3,233h0.2c7.6-1.3,12.7-8.5,11.4-16.2c-1-5.9-5.6-10.4-11.4-11.4h-0.2V233z M478.5,221.4c1,5.9,5.6,10.6,11.6,11.6h0.2v-11.8
	h-11.8L478.5,221.4z M490.1,205.4c-5.9,1-10.6,5.6-11.6,11.6v0.2h11.8v-11.9L490.1,205.4z"/>
<path class="st15" d="M492.3,237.2c-9.9,0-18-8.1-18-18s8.1-18,18-18s18,8.1,18,18l0,0C510.3,229.1,502.2,237.2,492.3,237.2z
	 M494.3,233c7.6-1.2,12.9-8.3,11.7-16c-0.9-6.1-5.7-10.8-11.7-11.7V233z M478.5,221.2c0.9,6.1,5.7,10.9,11.8,11.8v-11.8H478.5z
	 M490.3,217.2v-11.8c-6.1,0.9-10.9,5.7-11.8,11.8H490.3z"/>
<path class="st15" d="M492.3,237c-9.8,0-17.8-8-17.8-17.8s8-17.8,17.8-17.8c9.8,0,17.8,8,17.8,17.8l0,0
	C510.1,229,502.1,237,492.3,237z M494.1,233.3h0.2c7.8-1.1,13.2-8.3,12.1-16c-0.9-6.3-5.8-11.2-12.1-12.1h-0.2V233.3z M478.3,221.3
	c0.9,6.2,5.8,11.1,12,12h0.2V221h-12.3L478.3,221.3z M490.3,205.2c-6.2,0.9-11.1,5.8-12,12v0.2h12.3v-12.3L490.3,205.2z"/>
<path class="st15" d="M588.3,237.2c-1.1,0-2-0.9-2-2c0-0.3,0.1-0.6,0.2-0.9l6.6-13.1h-4.8c-1.1,0-2-0.9-2-2s0.9-2,2-2h6.8l7.4-14.9
	c0.3-0.7,1-1.1,1.8-1.1c0.8,0,1.5,0.4,1.8,1.1l7.5,14.9h6.8c1.1,0,2,0.9,2,2s-0.9,2-2,2h-4.8l6.5,13.1c0.5,1,0.1,2.2-0.9,2.7
	c-0.3,0.1-0.6,0.2-0.9,0.2H588.3z M591.5,233.2h25.5l-6-12h-13.5L591.5,233.2z M599.5,217.2h9.5l-4.8-9.5L599.5,217.2z"/>
<path class="st8" d="M348.3,285c-9.9,0-18-8.1-18-18s8.1-18,18-18l0,0h16c1.1,0,2,0.9,2,2s-0.9,2-2,2h-16c-7,0-12.8,5.1-13.8,12
	h29.8c1.1,0,2,0.9,2,2s-0.9,2-2,2h-29.8c1,6.9,6.9,12,13.8,12h16c1.1,0,2,0.9,2,2s-0.9,2-2,2H348.3z"/>
<path class="st10" d="M315.6,202.3l-15.3,15.3L285,202.3c-0.4-0.4-1-0.4-1.4,0c-0.2,0.2-0.3,0.4-0.3,0.7v32c0,0.6,0.4,1,1,1
	s1-0.4,1-1v-29.6l14.3,14.3c0.4,0.4,1,0.4,1.4,0l14.3-14.3V235c0,0.6,0.4,1,1,1s1-0.4,1-1v-32c0-0.6-0.5-1-1-1
	C316,202,315.8,202.1,315.6,202.3z"/>
<path class="st10" d="M364.3,202c-0.6,0-1,0.4-1,1c0,8.3-6.7,15-15,15s-15-6.7-15-15c0-0.6-0.4-1-1-1s-1,0.4-1,1c0,9,7,16.4,16,16.9
	V235c0,0.6,0.4,1,1,1s1-0.4,1-1v-15c9-0.5,16-8,16-16.9C365.3,202.5,364.9,202,364.3,202C364.3,202,364.3,202,364.3,202z"/>
<path class="st10" d="M412.3,202h-32c-0.6,0-1,0.4-1,1s0.4,1,1,1h15v31c0,0.6,0.4,1,1,1s1-0.4,1-1v-31h15c0.6,0,1-0.4,1-1
	S412.8,202,412.3,202z"/>
<path class="st10" d="M460.3,202c-0.6,0-1,0.4-1,1v15h-30v-15c0-0.6-0.4-1-1-1s-1,0.4-1,1v32c0,0.6,0.4,1,1,1s1-0.4,1-1v-15h30v15
	c0,0.6,0.4,1,1,1s1-0.4,1-1v-32C461.3,202.4,460.8,202,460.3,202z"/>
<path class="st10" d="M540.3,202c-9.4,0-17,7.6-17,17l0,0v16c0,0.6,0.4,1,1,1s1-0.4,1-1v-16c0-8.3,6.7-15,15-15s15,6.7,15,15v16
	c0,0.6,0.4,1,1,1s1-0.4,1-1v-16C557.3,209.6,549.7,202,540.3,202L540.3,202z"/>
<path class="st10" d="M572.3,202c-0.6,0-1,0.4-1,1v32c0,0.6,0.4,1,1,1s1-0.4,1-1v-32C573.3,202.4,572.8,202,572.3,202z"/>
<path class="st16" d="M492.3,202c-9.4,0-17,7.6-17,17s7.6,17,17,17s17-7.6,17-17S501.7,202,492.3,202L492.3,202z M491.3,204.1V218
	h-14C477.8,210.5,483.8,204.5,491.3,204.1z M477.3,220h14v14C483.8,233.5,477.8,227.5,477.3,220L477.3,220z M493.3,233.9v-29.9
	c8.3,0.7,14.4,7.9,13.7,16.2C506.4,227.5,500.6,233.4,493.3,233.9z"/>
<path class="st16" d="M613.9,220h6.4c0.6,0,1-0.4,1-1s-0.4-1-1-1h-7.4l-7.7-15.4c-0.2-0.5-0.8-0.7-1.3-0.4c-0.2,0.1-0.4,0.3-0.4,0.4
	l-7.7,15.4h-7.4c-0.6,0-1,0.4-1,1s0.4,1,1,1h6.4l-7.3,14.6c-0.2,0.5-0.1,1.1,0.4,1.3c0.1,0.1,0.3,0.1,0.4,0.1h32c0.6,0,1-0.4,1-1
	c0-0.2,0-0.3-0.1-0.5L613.9,220z M604.3,205.2l6.4,12.8h-12.8L604.3,205.2z M589.9,234l7-14h14.8l7,14H589.9z"/>
<path class="st11" d="M316.3,250h-32c-0.6,0-1,0.4-1,1s0.4,1,1,1h15v31c0,0.6,0.4,1,1,1s1-0.4,1-1v-31h15c0.6,0,1-0.4,1-1
	S316.8,250,316.3,250z"/>
<path class="st11" d="M396.3,250c-9.4,0-17,7.6-17,17v16c0,0.6,0.4,1,1,1s1-0.4,1-1v-15h30v15c0,0.6,0.4,1,1,1s1-0.4,1-1v-16
	C413.3,257.6,405.7,250,396.3,250z M381.3,266c0.7-8.3,7.9-14.4,16.2-13.7c7.3,0.6,13.1,6.4,13.7,13.7H381.3z"/>
<path class="st11" d="M459.6,250.3l-15.3,15.3L429,250.3c-0.4-0.4-1-0.4-1.4,0c-0.2,0.2-0.3,0.4-0.3,0.7v32c0,0.6,0.4,1,1,1
	s1-0.4,1-1v-29.6l14.3,14.3c0.4,0.4,1,0.4,1.4,0l14.3-14.3V283c0,0.6,0.4,1,1,1s1-0.4,1-1v-32c0-0.6-0.5-1-1-1
	C460,250,459.8,250.1,459.6,250.3z"/>
<path class="st11" d="M365.3,267c0-0.6-0.4-1-1-1h-31c0.5-7.9,7.1-14,15-14h16c0.6,0,1-0.4,1-1s-0.4-1-1-1h-16c-9.4,0-17,7.6-17,17
	s7.6,17,17,17h16c0.6,0,1-0.4,1-1s-0.4-1-1-1h-16c-7.9,0-14.5-6.1-15-14h31C364.8,268,365.3,267.6,365.3,267z"/>
</svg>
