<svg id="图层_1" data-name="图层 1" xmlns="http://www.w3.org/2000/svg" viewBox="0 0 768 512"><defs><style>.cls-1{fill:#040405;}.cls-2{fill:#070708;}.cls-3{fill:#0a040a;}.cls-4{fill:#030808;}.cls-5{fill:#0f060f;}.cls-6{fill:#060f0f;}.cls-7{fill:#1a0b12;}.cls-8{fill:#0c1a17;}.cls-9{fill:#2b181f;}.cls-10{fill:#1a2b24;}.cls-11{fill:none;stroke:#9bd4e0;stroke-miterlimit:10;}.cls-12{fill:#ebdadf;}.cls-13{fill:#d4ebd8;}.cls-14{fill:#0e0c0f;}.cls-15{fill:#15131c;}.cls-16{fill:#191a29;}.cls-17{fill:#223033;}.cls-18{fill:#ebdcda;}.cls-19{fill:#fcf5ff;}</style></defs><title>TeamLogo_Glow</title><rect class="cls-1" width="768" height="512"/><path class="cls-2" d="M492.29,243a23,23,0,1,1,23-23A23,23,0,0,1,492.29,243Zm7-17.42a8.78,8.78,0,0,0,0-11.16Z"/><path class="cls-2" d="M492.29,242.2a22.2,22.2,0,1,1,22.2-22.2A22.23,22.23,0,0,1,492.29,242.2Zm6.2-14.66a9.7,9.7,0,0,0,0-15.08Zm-13.73-1.34a10.52,10.52,0,0,0,1.33,1.34V226.2Zm1.33-12.4v-1.34a10.52,10.52,0,0,0-1.33,1.34Z"/><path class="cls-2" d="M588.29,244.6a8.61,8.61,0,0,1-7.69-12.45l2.62-5.23a8.58,8.58,0,0,1,5.07-15.52H591l5.62-11.24a8.6,8.6,0,0,1,15.39,0l5.62,11.24h2.68a8.59,8.59,0,0,1,5.08,15.52l2.62,5.23a8.61,8.61,0,0,1-7.7,12.45Z"/><path class="cls-2" d="M609,229l-1-2h-7.35l-1,2Z"/><path class="cls-3" d="M214.16,245.44l-19.44,8.32-6.86-5.88-2,1-2.75-1.61-13.07-12.1a10.71,10.71,0,0,1-.82-14.93L177,211.3a1.25,1.25,0,0,0,.31-.82V201a4,4,0,0,1,4-4h12.28a10.67,10.67,0,0,1,7.56,3.11l1,1,9.17-8.36a4,4,0,0,1,5.39,0l9.17,8.36,1.05-1a10.69,10.69,0,0,1,7.56-3.11h12.28a4,4,0,0,1,4,4v9.51a1.29,1.29,0,0,0,.3.82l7.74,8.92a10.71,10.71,0,0,1-.82,14.93L243,249l-2.77-1.16-6.87,5.89ZM188,238.25a8.64,8.64,0,0,1,5.66,2.1l2.73,2.33,14.19-6.13a8.72,8.72,0,0,1,6.94,0l12.33,5.33-35.39-35a1.25,1.25,0,0,0-.88-.36h-6.78v4a10.75,10.75,0,0,1-2.63,7.05l-7.73,8.92a1.24,1.24,0,0,0,.1,1.73l10.89,10.08Zm51.92,0a6.28,6.28,0,0,1,.75,0l10.89-10.09a1.24,1.24,0,0,0,.1-1.73l-7.74-8.93a10.75,10.75,0,0,1-2.62-7v-4h-6.78a1.27,1.27,0,0,0-.89.36l-12.83,12.72,18.87,18.68h.25Zm-25.87-25.37,5.1-5.06-5.1-4.65L209,207.8Z"/><path class="cls-4" d="M203.32,323.23a4.08,4.08,0,0,1-2.77-1.11,4,4,0,0,1-1.24-2.9V314a20.53,20.53,0,0,1-9.88,2.49H186.5a4,4,0,0,1-3.12-6.5l5.46-6.84c.17-.21.34-.43.5-.66H186.2a8.73,8.73,0,0,1-7.28-3.89l-3.59-5.39a4,4,0,0,1-.2-4.11,4,4,0,0,1,3.53-2.11h4.65v-1.19L179.62,282a14.64,14.64,0,0,1-4.31-10.42v-6a3.94,3.94,0,0,1-1.48.29,4.11,4.11,0,0,1-2.78-1.1,3.94,3.94,0,0,1-1.24-2.9V251.69a8.7,8.7,0,0,1,4.83-7.82l9.42-4.71a8.73,8.73,0,0,1,9.61,1.18l2.73,2.34,14.19-6.13a8.72,8.72,0,0,1,6.94,0l14.19,6.13,2.73-2.34a8.73,8.73,0,0,1,9.61-1.18l9.41,4.71a8.69,8.69,0,0,1,4.84,7.82v10.15a4,4,0,0,1-4,4,3.76,3.76,0,0,1-1.48-.29v6A14.69,14.69,0,0,1,248.49,282l-3.62,3.62,0,1.36h4.6A4,4,0,0,1,253,289.1a3.93,3.93,0,0,1-.2,4.1l-3.58,5.37a8.74,8.74,0,0,1-7.28,3.9h-3.14c.16.23.32.45.49.66l5.47,6.84a4,4,0,0,1-3.12,6.5h-2.93a20.53,20.53,0,0,1-9.88-2.49v5.24a4,4,0,0,1-4,4,3.93,3.93,0,0,1-2.39-.8l-2.8-2.1a20.84,20.84,0,0,1-5.55-6.3,20.84,20.84,0,0,1-5.55,6.3l-2.8,2.1A3.94,3.94,0,0,1,203.32,323.23Zm17.49-38.78,1.18-3.54a25.87,25.87,0,0,0,1.32-8.13v-5.91a16.93,16.93,0,0,0-.29-3.09l-2.21,2.1Zm-15.72-20.67a16.91,16.91,0,0,0-.28,3.09v5.91a25.59,25.59,0,0,0,1.32,8.13l1.18,3.54V265.88Zm27.19-2.18a26.61,26.61,0,0,1,.53,5.27v5.91c0,.87,0,1.74-.1,2.6a5.26,5.26,0,0,0,.6-2.43v-8.23A5.26,5.26,0,0,0,232.28,261.6Zm-36.44,0a5.28,5.28,0,0,0-1,3.12V273a5.14,5.14,0,0,0,.6,2.43c-.07-.87-.1-1.74-.1-2.6v-5.91A26.61,26.61,0,0,1,195.84,261.6ZM242.71,263a16.91,16.91,0,0,1,.1,1.74V273q0,.46,0,.93a5.15,5.15,0,0,0,.53-2.3v-6.84A2.88,2.88,0,0,0,242.71,263Zm-57.3,0a2.88,2.88,0,0,0-.6,1.76v6.84a5.15,5.15,0,0,0,.53,2.3q0-.47,0-.93v-8.23A14.5,14.5,0,0,1,185.41,263Zm28.65-3.8,10-9.46-10-4.32-10,4.32Zm28.62-10.09-2.42-1.21-1.42,1.21Zm-53.4,0-1.42-1.21-2.42,1.21Z"/><path class="cls-5" d="M214.16,244.35l-19.26,8.24-6.76-5.79-.73-.93.45.89-1.92,1-2.18-1.28-13-12a9.71,9.71,0,0,1-.74-13.54l7.73-8.92a2.3,2.3,0,0,0,.55-1.48V201a3,3,0,0,1,3-3h12.28a9.7,9.7,0,0,1,6.85,2.82l1.74,1.72c.15-.16.3-.31.46-.46l9.4-8.56a3,3,0,0,1,4,0l9.39,8.56c.16.15.32.3.46.46l1.74-1.72a9.73,9.73,0,0,1,6.86-2.82h12.28a3,3,0,0,1,3,3v9.51a2.22,2.22,0,0,0,.55,1.47l7.73,8.93a9.75,9.75,0,0,1-.74,13.54l-14.52,13.44-2.23-.94c-.16-.06-.4-.13-.56-.17l-6.82,5.84Zm-.1-7.52a7.67,7.67,0,0,1,3.07.63l14.77,6.39.74-.63-37.46-37.1a2.26,2.26,0,0,0-1.59-.65h-7.78v5a9.78,9.78,0,0,1-2.38,6.39l-7.73,8.92a2.24,2.24,0,0,0,.17,3.12l11.21,10.39a7.25,7.25,0,0,1,.93-.05,7.67,7.67,0,0,1,5,1.86l3.2,2.74L211,237.46A7.75,7.75,0,0,1,214.06,236.83Zm25.87,2.4a6.87,6.87,0,0,1,1.09.09l11.23-10.41a2.24,2.24,0,0,0,.17-3.12l-7.73-8.92a9.73,9.73,0,0,1-2.38-6.39v-5h-7.78a2.28,2.28,0,0,0-1.59.65l-13.55,13.43,19.92,19.72a3.87,3.87,0,0,1,.61,0Zm-25.87-25,6.37-6.32v-.35l-6.36-5.8-6.36,5.8-.72,1.07.71-.71Z"/><path class="cls-6" d="M220.21,319.52a19.86,19.86,0,0,1-6.15-7.7,19.86,19.86,0,0,1-6.15,7.7l-2.8,2.1a3,3,0,0,1-4.8-2.4v-7a19.45,19.45,0,0,1-10.88,3.26H186.5a3,3,0,0,1-2.34-4.87l5.46-6.84a11.69,11.69,0,0,0,1.5-2.39,9.32,9.32,0,0,1-1.4.1H186.2a7.76,7.76,0,0,1-6.45-3.45l-3.59-5.39a3,3,0,0,1,2.5-4.66h5.65v-2.59l-4-4.08a13.65,13.65,0,0,1-4-9.72v-6.84c0-.38,0-.76.05-1.14l-.61.53a3,3,0,0,1-4.94-2.29V251.69a7.76,7.76,0,0,1,4.28-6.93l9.42-4.71a7.74,7.74,0,0,1,8.51,1l3.2,2.75L211,237.46a7.75,7.75,0,0,1,3.08-.63,7.67,7.67,0,0,1,3.07.63l14.77,6.39,3.2-2.75a7.76,7.76,0,0,1,5-1.87,7.87,7.87,0,0,1,3.47.82l9.42,4.71a7.76,7.76,0,0,1,4.28,6.93v10.15a3,3,0,0,1-4.94,2.29l-.62-.52a10.55,10.55,0,0,1,.06,1.13v6.84a13.72,13.72,0,0,1-4,9.72l-3.9,3.9-.06,2.8,5.63,0a3,3,0,0,1,2.5,4.67L248.37,298a7.75,7.75,0,0,1-6.45,3.45H238.4a9.32,9.32,0,0,1-1.4-.1,12.09,12.09,0,0,0,1.49,2.39L244,310.6a3,3,0,0,1-2.34,4.87h-2.93a19.45,19.45,0,0,1-10.88-3.26v7a3,3,0,0,1-4.8,2.4Zm-.4-15.8a12.06,12.06,0,0,0,.5,3.43V292.32a19.87,19.87,0,0,1,1-6.26l1.62-4.84a26.6,26.6,0,0,0,1.37-8.44v-5.91a18.6,18.6,0,0,0-.71-5l-3.79,3.58Zm-15.29-41.86a18.21,18.21,0,0,0-.71,5v5.91a26.6,26.6,0,0,0,1.37,8.44l1.61,4.85a19.49,19.49,0,0,1,1,6.25v14.83a12.06,12.06,0,0,0,.5-3.43V265.44Zm23.84,26.81a12.51,12.51,0,0,0-.55,3.65V299a7.59,7.59,0,0,0,2.26,5.39l.16.16a19.8,19.8,0,0,1-1.92-8.48v-6C228.31,289.66,228.33,289.16,228.36,288.67Zm-28.61,0c0,.49.06,1,.06,1.48v6a19.75,19.75,0,0,1-1.91,8.46l.16-.15a7.62,7.62,0,0,0,2.25-5.38v-6.72A12.2,12.2,0,0,0,199.75,288.67Zm36.56-2a12.22,12.22,0,0,0-.5,3.46v.26a4.26,4.26,0,0,0,1.24,3,1.92,1.92,0,0,0,1.35.56h.7a8.15,8.15,0,0,1-.88-.79,7,7,0,0,1-1.91-4.85ZM189.72,294a1.89,1.89,0,0,0,1.34-.56,4.27,4.27,0,0,0,1.25-3v-.26a12.22,12.22,0,0,0-.5-3.46v1.6a7,7,0,0,1-1.73,4.69,7.59,7.59,0,0,1-1.06,1Zm40.75-35.25a25.69,25.69,0,0,1,1.34,8.15v5.91a34.25,34.25,0,0,1-.82,7.43c0-.07,2.43-4,2.43-4a6.27,6.27,0,0,0,.89-3.22v-8.23a6.26,6.26,0,0,0-2.5-5Zm-34.16,1a6.26,6.26,0,0,0-2.5,5V273a6.21,6.21,0,0,0,.89,3.21s2.38,4,2.43,4a33.64,33.64,0,0,1-.82-7.43v-5.91a25.69,25.69,0,0,1,1.34-8.15Zm-10.16,1.47a3.86,3.86,0,0,0-2.34,3.55v6.84a6.25,6.25,0,0,0,1.83,4.42l1.41,1.41a13.73,13.73,0,0,1-.74-4.46v-8.23a13.8,13.8,0,0,1,.55-3.83Zm55.11-.3a13.8,13.8,0,0,1,.55,3.83V273a13.77,13.77,0,0,1-.74,4.46l1.41-1.41a6.25,6.25,0,0,0,1.83-4.42v-6.84a3.86,3.86,0,0,0-2.34-3.55Zm-27.2-.33,11.79-11.16-11.69-5.05-.1,0s-.07,0-.09,0l-11.7,5.05Zm30.49-10.47a7.79,7.79,0,0,1,5,1.83l.25.22v-.45a.23.23,0,0,0-.14-.22l-9.41-4.71-.12,0a.27.27,0,0,0-.16.06l-3.84,3.29ZM188,246.73a.23.23,0,0,0-.11,0l-9.41,4.71a.23.23,0,0,0-.14.22v.44l.23-.19a7.76,7.76,0,0,1,5-1.85H192l-3.84-3.29Z"/><path class="cls-7" d="M214.56,243.43a1.24,1.24,0,0,0-.5-.1,1.16,1.16,0,0,0-.49.1l-18.5,8L188.79,246a1.27,1.27,0,0,0-1.38-.17l-1.43.72-1.62-1-12.91-11.95a8.75,8.75,0,0,1-.67-12.15l7.74-8.92a3.26,3.26,0,0,0,.79-2.13V201a2,2,0,0,1,2-2h12.27a8.78,8.78,0,0,1,6.17,2.53l2.52,2.5a6.29,6.29,0,0,1,1-1.21l9.39-8.56a2,2,0,0,1,2.7,0l9.39,8.56a7.07,7.07,0,0,1,1,1.21l2.52-2.5a8.76,8.76,0,0,1,6.16-2.53h12.28a2,2,0,0,1,2,2v9.51a3.26,3.26,0,0,0,.79,2.13l7.74,8.92a8.75,8.75,0,0,1-.67,12.15l-14.05,13L241,246a4.16,4.16,0,0,0-1.08-.27s-.14.06-.38.14L233,251.43Zm-.5-5.6a6.84,6.84,0,0,1,2.68.55L232.07,245l2-1.74-38.23-37.86a3.26,3.26,0,0,0-2.29-.94h-8.78v6a8.73,8.73,0,0,1-2.14,5.73l-7.73,8.92a3.25,3.25,0,0,0,.25,4.52l11.57,10.71a7.45,7.45,0,0,1,1.25-.11,6.71,6.71,0,0,1,4.36,1.61L196,245l15.34-6.63A6.84,6.84,0,0,1,214.06,237.83Zm25.87,2.4a7.08,7.08,0,0,1,1.4.16l11.6-10.74a3.25,3.25,0,0,0,.25-4.52l-7.73-8.92a8.73,8.73,0,0,1-2.14-5.73v-6h-8.78a3.26,3.26,0,0,0-2.29.94L218,219.55l21,20.79a4.21,4.21,0,0,1,.95-.11ZM207,206.86a1.18,1.18,0,0,0-.4.89,1.21,1.21,0,0,0,.36.92l7.08,7,7.08-7a1.21,1.21,0,0,0,.36-.9,1.2,1.2,0,0,0-.4-.9l-7-6.42Z"/><path class="cls-8" d="M220.81,318.72a18.83,18.83,0,0,1-6.75-9.77,18.83,18.83,0,0,1-6.75,9.77l-2.8,2.1a2,2,0,0,1-3.2-1.6v-9a18.59,18.59,0,0,1-11.88,4.24H186.5a2,2,0,0,1-1.56-3.25l5.46-6.84a13.05,13.05,0,0,0,2.35-4.47,8.4,8.4,0,0,1-3,.56H186.2a6.75,6.75,0,0,1-5.62-3L177,292.08a2,2,0,0,1,1.67-3.11h5.88a.88.88,0,0,0,.64-.26.41.41,0,0,0,.13-.3v-3a1.26,1.26,0,0,0-.37-.89l-3.9-3.9a12.74,12.74,0,0,1-3.73-9v-6.84a10.31,10.31,0,0,1,.75-3.88l-3,2.5a2,2,0,0,1-3.29-1.52V251.69a6.74,6.74,0,0,1,3.73-6L185,241a6.73,6.73,0,0,1,7.42.91L196,245l15.34-6.63a6.8,6.8,0,0,1,5.36,0L232.08,245l3.67-3.15a6.71,6.71,0,0,1,7.41-.91l9.42,4.71a6.75,6.75,0,0,1,3.73,6v10.15a2,2,0,0,1-3.29,1.53l-3-2.51a10.31,10.31,0,0,1,.75,3.88v6.84a12.71,12.71,0,0,1-3.74,9l-3.89,3.9a1.26,1.26,0,0,0-.37.89v3a.4.4,0,0,0,.12.29.89.89,0,0,0,.64.27h5.89a2,2,0,0,1,1.67,3.11l-3.59,5.38a6.76,6.76,0,0,1-5.62,3H238.4a8.36,8.36,0,0,1-3-.56,13.2,13.2,0,0,0,2.34,4.47l5.47,6.84a2,2,0,0,1-1.56,3.25h-2.93a18.57,18.57,0,0,1-11.88-4.24v9a2,2,0,0,1-3.2,1.6Zm-2-15a13.33,13.33,0,0,0,2.5,7.74V292.32a18.75,18.75,0,0,1,1-5.94l1.62-4.85a27.7,27.7,0,0,0,1.42-8.75v-5.91a19.07,19.07,0,0,0-1.26-6.81L218.81,265Zm-14.74-43.66a19.07,19.07,0,0,0-1.26,6.81v5.91a27.8,27.8,0,0,0,1.42,8.76l1.62,4.84a19,19,0,0,1,1,5.94v19.14a13.33,13.33,0,0,0,2.5-7.74V265Zm24.48-3.47a24.6,24.6,0,0,1,2.26,10.28v5.91a33.18,33.18,0,0,1-1.71,10.5l-1.61,4.85a13.23,13.23,0,0,0-.68,4.19V299a8.35,8.35,0,0,0,2.15,5.69,13.28,13.28,0,0,0,4.53,3.2l-.07-.09a18.77,18.77,0,0,1-4.11-11.72v-6a18.69,18.69,0,0,1,2.67-9.64l2.3-3.83a7.32,7.32,0,0,0,1-3.73v-8.23a7.27,7.27,0,0,0-2.9-5.8l-3.11-2.33Zm-32.84,2.33a7.26,7.26,0,0,0-2.9,5.8V273a7.17,7.17,0,0,0,1,3.72l2.3,3.84a18.72,18.72,0,0,1,2.67,9.64v6.05a18.48,18.48,0,0,1-4.11,11.62l-.08.1a13.23,13.23,0,0,0,4.55-3.22,8.31,8.31,0,0,0,2.14-5.67v-6.72a13.21,13.21,0,0,0-.68-4.18L199,283.28a33.13,33.13,0,0,1-1.7-10.5v-5.91a24.78,24.78,0,0,1,2.25-10.28h-.74Zm43.76.11a12.8,12.8,0,0,1,1.34,5.69V273a12.74,12.74,0,0,1-1.82,6.56l-2.29,3.82a13.23,13.23,0,0,0-1.89,6.82v.26a5.27,5.27,0,0,0,1.71,3.87,2.77,2.77,0,0,0,1.88.69h3.52a1.24,1.24,0,0,0,1-.53,6.16,6.16,0,0,1-5.63-6.36v-2.4a6.92,6.92,0,0,1,2-5.07l3.89-3.9a7.27,7.27,0,0,0,2.13-5.13v-6.84a4.86,4.86,0,0,0-2.95-4.47Zm-54.29,35.41a1.24,1.24,0,0,0,1,.53h3.52a2.8,2.8,0,0,0,1.88-.69,5.29,5.29,0,0,0,1.71-3.87v-.26a13.23,13.23,0,0,0-1.89-6.82l-2.29-3.82a12.74,12.74,0,0,1-1.82-6.56v-8.23a12.67,12.67,0,0,1,1.34-5.69l-2.89,1.24a4.86,4.86,0,0,0-2.95,4.47v6.84a7.24,7.24,0,0,0,2.12,5.12l3.9,3.9a6.76,6.76,0,0,1,2,4.78v2.7a6.18,6.18,0,0,1-5.63,6.36Zm28.88-32.51,13.58-12.84-13.08-5.66a1.24,1.24,0,0,0-.5-.1,1.16,1.16,0,0,0-.49.1l-13.09,5.66Zm30.49-10.84a6.75,6.75,0,0,1,4.36,1.6l1.9,1.6v-2.6a1.25,1.25,0,0,0-.69-1.11l-9.42-4.71a1.18,1.18,0,0,0-.56-.13,1.23,1.23,0,0,0-.81.3l-5,4.26-.84.79ZM188,245.73a1.18,1.18,0,0,0-.55.14L178,250.58a1.25,1.25,0,0,0-.69,1.11v2.6l1.89-1.6a6.77,6.77,0,0,1,4.36-1.6h11l-.92-.87L188.79,246A1.25,1.25,0,0,0,188,245.73Z"/><path class="cls-9" d="M215,242.51a2.29,2.29,0,0,0-1.78,0l-17.92,7.75-5.81-5a2.26,2.26,0,0,0-1.47-.54,2.32,2.32,0,0,0-1,.23l-.95.48-1.06-.62L172.13,233a7.74,7.74,0,0,1-.59-10.76l7.73-8.92a4.29,4.29,0,0,0,1-2.79V201a1,1,0,0,1,1-1h12.28a7.77,7.77,0,0,1,5.45,2.24l3.48,3.45a5.67,5.67,0,0,1,1.47-2.13l9.4-8.56a1,1,0,0,1,1.34,0l9.4,8.56a5.92,5.92,0,0,1,1.47,2.12l3.47-3.44a7.8,7.8,0,0,1,5.46-2.24h12.28a1,1,0,0,1,1,1v9.51a4.24,4.24,0,0,0,1,2.78l7.73,8.93A7.74,7.74,0,0,1,256,233l-13.57,12.57-1-.44a4.73,4.73,0,0,0-1.47-.35,9,9,0,0,0-.87.25l-6.17,5.28Zm-.89-3.68a5.74,5.74,0,0,1,2.28.47l15.91,6.88,3.33-2.86-39-38.62a4.23,4.23,0,0,0-3-1.23h-9.78v7a7.76,7.76,0,0,1-1.89,5.08l-7.74,8.92a4.25,4.25,0,0,0,.33,5.9l12,11.07a6.28,6.28,0,0,1,1.55-.2,5.69,5.69,0,0,1,3.71,1.37l4.15,3.56,15.91-6.88A5.74,5.74,0,0,1,214.06,238.83Zm25.87,2.4a6.88,6.88,0,0,1,1.69.25l12-11.1a4.24,4.24,0,0,0,.32-5.9l-7.73-8.92a7.76,7.76,0,0,1-1.89-5.08v-7h-9.78a4.23,4.23,0,0,0-3,1.23l-15,14.85,22.1,21.89a4.85,4.85,0,0,1,1.27-.21Zm-33.58-35.11a2.26,2.26,0,0,0-.07,3.26l7.78,7.7,7.78-7.7a2.26,2.26,0,0,0-.07-3.26l-7.71-7Z"/><path class="cls-10" d="M221.4,317.91a17.76,17.76,0,0,1-7.09-14.19V267.89l-.25.24-.25-.24v35.83a17.76,17.76,0,0,1-7.09,14.19L203.91,320a1,1,0,0,1-1.6-.8V307.93c-.15.17-.31.33-.47.49a17.84,17.84,0,0,1-12.54,5.05h-2.8a1,1,0,0,1-.78-1.62l5.47-6.84a14.44,14.44,0,0,0,3-7,7.4,7.4,0,0,1-4.47,1.5H186.2a5.77,5.77,0,0,1-4.79-2.56l-3.59-5.38a1,1,0,0,1,.84-1.56h5.88a1.9,1.9,0,0,0,1.35-.56,1.4,1.4,0,0,0,.42-1v-3a2.25,2.25,0,0,0-.66-1.59l-3.9-3.9a11.77,11.77,0,0,1-3.44-8.31v-6.9a9.27,9.27,0,0,1,5.67-8.55l1.29-.54h-1.71a2.27,2.27,0,0,0-1.45.53l-7.66,6.48a1,1,0,0,1-1.64-.76V251.69a5.74,5.74,0,0,1,3.18-5.14l9.41-4.71a5.72,5.72,0,0,1,6.31.78l4.16,3.56,15.91-6.88a5.77,5.77,0,0,1,4.56,0l15.91,6.88,4.15-3.56a5.74,5.74,0,0,1,6.32-.78l9.41,4.71a5.74,5.74,0,0,1,3.18,5.14v10.15a1,1,0,0,1-1.65.76L246,256.12a2.28,2.28,0,0,0-1.46-.53h-1.68l1.26.54a9.36,9.36,0,0,1,5.68,8.61v6.84a11.77,11.77,0,0,1-3.44,8.31l-3.9,3.9a2.25,2.25,0,0,0-.66,1.59v3a1.43,1.43,0,0,0,.41,1,1.92,1.92,0,0,0,1.35.56h5.89a1,1,0,0,1,.83,1.56l-3.59,5.38a5.74,5.74,0,0,1-4.78,2.56H238.4a7.38,7.38,0,0,1-4.47-1.5,14.35,14.35,0,0,0,3,7l5.47,6.84a1,1,0,0,1-.78,1.62h-2.93a17.64,17.64,0,0,1-12.55-5.2c-.12-.11-.22-.22-.33-.34v11.29a1,1,0,0,1-1.6.8Zm-17.69-59.57a20.23,20.23,0,0,0-1.9,8.53v5.9a28.93,28.93,0,0,0,1.47,9.09l1.62,4.84a17.88,17.88,0,0,1,.91,5.62v21.79a14.32,14.32,0,0,0,4.5-10.39V264.58Zm14.1,45.38a14.32,14.32,0,0,0,4.5,10.39V292.32a17.88,17.88,0,0,1,.91-5.62l1.61-4.84a28.66,28.66,0,0,0,1.48-9.09v-5.9a20.23,20.23,0,0,0-1.9-8.53l-6.6,6.24Zm-22.7-45.6a8.24,8.24,0,0,0-3.3,6.59V273a8.33,8.33,0,0,0,1.17,4.24l2.3,3.83a17.82,17.82,0,0,1,2.53,9.14v5.95a17.79,17.79,0,0,1-3.9,11.1l-2,2.55a14.07,14.07,0,0,0,7.46-3.78,10,10,0,0,0,3-7.18V293a15.65,15.65,0,0,0-.73-5.2L200,283a32.3,32.3,0,0,1-1.65-10.18v-5.93a23.38,23.38,0,0,1,2.49-10.51l.25-.51-.25-.24h-2.32Zm32.21-1.78a23.47,23.47,0,0,1,2.49,10.53v5.9a32.15,32.15,0,0,1-1.66,10.2l-1.61,4.84a14.33,14.33,0,0,0-.73,4.5v6.49a10,10,0,0,0,3,7.18,14.11,14.11,0,0,0,7.46,3.78l-2.05-2.56a17.75,17.75,0,0,1-3.89-11.09v-6a17.72,17.72,0,0,1,2.53-9.13l2.29-3.82a8.28,8.28,0,0,0,1.18-4.25v-8.24a8.24,8.24,0,0,0-3.3-6.59l-3.37-2.53h-2.33l-.24.24Zm9.37.41a11.82,11.82,0,0,1,3.12,8V273a11.74,11.74,0,0,1-1.68,6.05l-2.29,3.82a14.23,14.23,0,0,0-2,7.33v.26a6.31,6.31,0,0,0,1.81,4.4A4.05,4.05,0,0,0,238.5,296h3.07a2.46,2.46,0,0,0,2.22-1l1-1.5h-1.22a5.37,5.37,0,0,1-4.17-2,5,5,0,0,1-1.09-3.23v-2.89a5.74,5.74,0,0,1,1.68-4.07l3.9-3.9a8.23,8.23,0,0,0,2.42-5.83v-6.84a5.86,5.86,0,0,0-3.55-5.39ZM184.33,295a2.27,2.27,0,0,0,1.87,1h3.43a4,4,0,0,0,2.87-1.16,6.32,6.32,0,0,0,1.81-4.4v-.26a14.29,14.29,0,0,0-2-7.34L190,279a11.83,11.83,0,0,1-1.67-6.05v-8.23a11.82,11.82,0,0,1,3.12-8l-6.07,2.6a5.86,5.86,0,0,0-3.55,5.39v6.84a8.27,8.27,0,0,0,2.41,5.83l3.91,3.9a5.79,5.79,0,0,1,1.68,4.07v2.69a6.18,6.18,0,0,1-1.69,4.05,5.4,5.4,0,0,1-3.58,1.35h-1.21Zm29.73-31.66,15.37-14.54L215,242.51a2.29,2.29,0,0,0-1.78,0l-14.48,6.26ZM188,244.73a2.17,2.17,0,0,0-1,.24l-9.42,4.71a2.25,2.25,0,0,0-1.24,2v4.76l3.54-3a5.73,5.73,0,0,1,3.71-1.36H197.1l-2.74-2.6-4.92-4.21A2.27,2.27,0,0,0,188,244.73Zm56.58,7.36a5.76,5.76,0,0,1,3.72,1.36l3.54,3v-4.76a2.24,2.24,0,0,0-1.25-2L241.15,245a2.33,2.33,0,0,0-1-.23,2.25,2.25,0,0,0-1.46.54l-5,4.26-2.7,2.55Z"/><path class="cls-11" d="M229.1,341"/><path class="cls-12" d="M255.82,222.84l-7.73-8.92a5.22,5.22,0,0,1-1.28-3.44V201H234.53a6.7,6.7,0,0,0-4.75,1.95L225,207.66a4.71,4.71,0,0,0-1.55-3.39l-9.39-8.56-9.4,8.56a4.7,4.7,0,0,0-1.54,3.39l-4.78-4.74a6.7,6.7,0,0,0-4.75-1.95H181.31v9.51a5.27,5.27,0,0,1-1.28,3.44l-7.73,8.92a6.72,6.72,0,0,0,.51,9.38L185.55,244l.5.29.47-.23a3.25,3.25,0,0,1,3.57.44l5.34,4.57,17.34-7.49a3.22,3.22,0,0,1,2.58,0l17.34,7.49,5.85-5a7.89,7.89,0,0,1,1.38-.35,6.18,6.18,0,0,1,1.84.43l.45.19,13.1-12.13A6.73,6.73,0,0,0,255.82,222.84Zm-51.2-15.13a3.18,3.18,0,0,1,1.06-2.33l8.38-7.64,8.38,7.64a3.22,3.22,0,0,1,1.06,2.33,3.26,3.26,0,0,1-.95,2.38l-8.49,8.4-.78-.77-7.71-7.63A3.26,3.26,0,0,1,204.62,207.71Zm27.81,39.64-16.49-7.13a4.75,4.75,0,0,0-3.77,0l-16.48,7.13-4.63-4a4.74,4.74,0,0,0-4.85-.8l-12.38-11.47a5.22,5.22,0,0,1-.4-7.29l7.73-8.92a6.74,6.74,0,0,0,1.65-4.42v-8h10.78a5.24,5.24,0,0,1,3.7,1.52l7.23,7.16h0l8.47,8.39h0l24.07,23.83Zm21.86-16.24-12.41,11.5a6.48,6.48,0,0,0-1.95-.38h0a7.08,7.08,0,0,0-1.55.33l-2.08-2.06-21.16-20.95,4.06-4,4.41-4.36h0l7.23-7.17a5.24,5.24,0,0,1,3.7-1.52h10.78v8A6.69,6.69,0,0,0,247,214.9l7.73,8.92A5.23,5.23,0,0,1,254.29,231.11Z"/><path class="cls-13" d="M246.65,255.36l7.66,6.48V251.69a4.73,4.73,0,0,0-2.63-4.25l-9.41-4.7a4.74,4.74,0,0,0-5.22.64l-4.62,4-16.49-7.13a4.75,4.75,0,0,0-3.77,0l-16.48,7.13-4.63-4a4.72,4.72,0,0,0-5.21-.64l-9.42,4.7a4.72,4.72,0,0,0-2.62,4.25v10.15l7.66-6.48a3.21,3.21,0,0,1,2.09-.77h6.66l-5.84,2.46a8.36,8.36,0,0,0-5.07,7.69v6.84a10.68,10.68,0,0,0,3.15,7.6l3.9,3.9a3.28,3.28,0,0,1,.95,2.3v3a2.41,2.41,0,0,1-.71,1.71,2.89,2.89,0,0,1-2.06.85h-5.88l3.59,5.39a4.74,4.74,0,0,0,3.95,2.11h3.52a6.37,6.37,0,0,0,4.53-1.88,8.35,8.35,0,0,0,1.06-1.3v.82a15.31,15.31,0,0,1-3.34,9.52l-5.47,6.84h2.93a16.59,16.59,0,0,0,11.84-4.91,11.77,11.77,0,0,0,2-2.7v14.36l2.8-2.1a16.84,16.84,0,0,0,6.7-13.4V265.57l1.25,1.18,1.25-1.18v38.15a16.81,16.81,0,0,0,6.7,13.4l2.8,2.1V304.86a12,12,0,0,0,2,2.7,16.63,16.63,0,0,0,11.85,4.91h2.93l-5.47-6.84a15.31,15.31,0,0,1-3.34-9.52v-.82a7.82,7.82,0,0,0,1.06,1.3,6.37,6.37,0,0,0,4.53,1.88h3.52a4.74,4.74,0,0,0,4-2.11l3.59-5.39h-5.89a2.88,2.88,0,0,1-2-.85,2.41,2.41,0,0,1-.71-1.71v-3a3.28,3.28,0,0,1,.95-2.3l3.9-3.9a10.68,10.68,0,0,0,3.15-7.6v-6.84a8.36,8.36,0,0,0-5.07-7.69L238,254.59h6.56A3.22,3.22,0,0,1,246.65,255.36ZM238,244.52a3.25,3.25,0,0,1,3.57-.44l9.41,4.71a3.22,3.22,0,0,1,1.8,2.9v6.91l-5.19-4.38a4.73,4.73,0,0,0-3.07-1.13H228.5l2.23-2.1,2.33-2.21Zm-54.47,8.57a4.7,4.7,0,0,0-3.06,1.13l-5.19,4.38v-6.91a3.22,3.22,0,0,1,1.8-2.9l9.41-4.71a3.22,3.22,0,0,1,3.57.44l4.95,4.25,4.58,4.32H183.56Zm9.62,42.44a4.83,4.83,0,0,1-3.46,1.44H186.2a3.22,3.22,0,0,1-2.7-1.45l-2-3h3.08a4.39,4.39,0,0,0,3.12-1.29,3.89,3.89,0,0,0,1.15-2.77v-3a4.8,4.8,0,0,0-1.39-3.36l-3.9-3.9a9.18,9.18,0,0,1-2.71-6.54v-6.84a6.86,6.86,0,0,1,4.16-6.31l9-3.84h1.72l-2,1.53a10.82,10.82,0,0,0-4.3,8.6V273a10.76,10.76,0,0,0,1.53,5.53l2.3,3.83a15.26,15.26,0,0,1,2.17,7.84v.26A7.26,7.26,0,0,1,193.18,295.53Zm7,11A15.13,15.13,0,0,1,189.62,311l3.52-4.4a16.78,16.78,0,0,0,3.67-10.46v-6a16.75,16.75,0,0,0-2.39-8.61l-2.29-3.83a9.18,9.18,0,0,1-1.32-4.76v-8.23a9.3,9.3,0,0,1,3.7-7.4l3.64-2.73h3l.37.35.71.67-.59,1.17a22.64,22.64,0,0,0-2.38,10.09v5.91a31.24,31.24,0,0,0,1.6,9.87l1.62,4.85a15.16,15.16,0,0,1,.78,4.82V299A10.46,10.46,0,0,1,200.21,306.5Zm11.1-42.35v39.57a15.31,15.31,0,0,1-6.1,12.2l-.4.3v-23.9A16.72,16.72,0,0,0,204,287l-1.62-4.84a29.75,29.75,0,0,1-1.52-9.4v-5.91a21.21,21.21,0,0,1,2.22-9.42l.39-.76,4.2,4Zm2.75.54-1.25-1.18h0l-9-8.56h0l-.39-.36h0l-1.26-1.18-.33-.32h0l-2.59-2.44-2.31-2.19,15.87-6.86a3.22,3.22,0,0,1,2.58,0l15.87,6.86-6.49,6.13h0l-.51.48-8.91,8.44h0Zm9.25,51.53-.4-.3a15.31,15.31,0,0,1-6.1-12.2V264.15l3.69-3.49,4.2-4,.39.77a21.14,21.14,0,0,1,2.22,9.41v5.91a29.48,29.48,0,0,1-1.53,9.4L224.17,287a16.72,16.72,0,0,0-.86,5.3v23.9ZM235,306.57l3.52,4.4a15.15,15.15,0,0,1-10.6-4.47,10.49,10.49,0,0,1-3.09-7.47v-6.71a15.16,15.16,0,0,1,.78-4.82l1.62-4.85a31.24,31.24,0,0,0,1.6-9.87v-5.91a22.64,22.64,0,0,0-2.38-10.09l-.59-1.17.7-.67.38-.35H230l3.64,2.73a9.3,9.3,0,0,1,3.7,7.4V273a9.28,9.28,0,0,1-1.32,4.76l-2.29,3.83a16.66,16.66,0,0,0-2.39,8.61v6A16.78,16.78,0,0,0,235,306.57Zm8.17-48.14a6.86,6.86,0,0,1,4.16,6.31v6.84a9.18,9.18,0,0,1-2.71,6.54l-3.9,3.9a4.8,4.8,0,0,0-1.39,3.36v3a3.89,3.89,0,0,0,1.15,2.77,4.38,4.38,0,0,0,3.11,1.29h3.09l-2,3a3.22,3.22,0,0,1-2.7,1.45H238.4a4.87,4.87,0,0,1-3.47-1.44,7.3,7.3,0,0,1-2.12-5.12v-.26a15.26,15.26,0,0,1,2.17-7.84l2.3-3.83a10.76,10.76,0,0,0,1.53-5.53v-8.23a10.82,10.82,0,0,0-4.3-8.6l-2-1.53h1.71Z"/><path class="cls-11" d="M129.1,341"/><path class="cls-4" d="M300.29,288a5,5,0,0,1-5-5V256h-11a5,5,0,1,1,0-10h32a5,5,0,0,1,0,10h-11v27A5,5,0,0,1,300.29,288Z"/><path class="cls-4" d="M412.29,288a5,5,0,0,1-5-5V272h-22v11a5,5,0,0,1-10,0V267a21,21,0,0,1,42,0v16A5,5,0,0,1,412.29,288Zm-6.23-26a11,11,0,0,0-19.54,0Z"/><path class="cls-4" d="M460.29,288a5,5,0,0,1-5-5V263.07l-7.46,7.47a5,5,0,0,1-7.08,0l-7.46-7.46V283a5,5,0,0,1-10,0V251a5,5,0,0,1,8.54-3.54l12.46,12.47,12.47-12.47a5,5,0,0,1,8.53,3.54v32A5,5,0,0,1,460.29,288Z"/><path class="cls-3" d="M316.29,240a5,5,0,0,1-5-5V215.07l-7.46,7.47a5,5,0,0,1-7.07,0l-7.47-7.47V235a5,5,0,0,1-10,0V203a5,5,0,0,1,8.54-3.54l12.46,12.47,12.47-12.47a5,5,0,0,1,8.53,3.54v32A5,5,0,0,1,316.29,240Z"/><path class="cls-3" d="M348.29,240a5,5,0,0,1-5-5V223.38a20.75,20.75,0,0,1-16-20.38,5,5,0,1,1,10,0,11,11,0,0,0,22,0,5,5,0,1,1,10,0,20.74,20.74,0,0,1-16,20.38V235A5,5,0,0,1,348.29,240Z"/><path class="cls-3" d="M396.29,240a5,5,0,0,1-5-5V208h-11a5,5,0,1,1,0-10h32a5,5,0,0,1,0,10h-11v27A5,5,0,0,1,396.29,240Z"/><path class="cls-3" d="M460.29,240a5,5,0,0,1-5-5V224h-22v11a5,5,0,0,1-10,0V203a5,5,0,1,1,10,0v11h22V203a5,5,0,1,1,10,0v32A5,5,0,0,1,460.29,240Z"/><path class="cls-3" d="M556.29,240a5,5,0,0,1-5-5V219a11,11,0,0,0-22,0v16a5,5,0,0,1-10,0V219a21,21,0,0,1,42,0v16A5,5,0,0,1,556.29,240Z"/><path class="cls-3" d="M572.29,240a5,5,0,0,1-5-5V203a5,5,0,0,1,10,0v32A5,5,0,0,1,572.29,240Z"/><path class="cls-14" d="M492.29,242.4a22.6,22.6,0,1,1,22.6-22.6A22.63,22.63,0,0,1,492.29,242.4Zm-6.6-16v0h0Zm13.2,0a9.25,9.25,0,0,0,0-13.26Zm-13.2-13.23v0l0,0Z"/><path class="cls-14" d="M492.29,241.6a21.8,21.8,0,1,1,21.8-21.8A21.83,21.83,0,0,1,492.29,241.6Zm5.8-13.45a10.12,10.12,0,0,0,0-16.7ZM484,225.6a10.61,10.61,0,0,0,2.54,2.55V225.6Zm2.54-11.6v-2.55A10.61,10.61,0,0,0,484,214Z"/><path class="cls-14" d="M492.29,241.6a21.8,21.8,0,1,1,21.8-21.8A21.83,21.83,0,0,1,492.29,241.6Zm5.8-13.45a10.12,10.12,0,0,0,0-16.7ZM484,225.6a10.61,10.61,0,0,0,2.54,2.55V225.6Zm2.54-11.6v-2.55A10.61,10.61,0,0,0,484,214Z"/><path class="cls-14" d="M492.29,240.8a21,21,0,1,1,21-21A21,21,0,0,1,492.29,240.8Zm5-11.23a11,11,0,0,0,0-19.54Zm-14.76-4.77a11.24,11.24,0,0,0,4.76,4.77V224.8Zm4.76-10V210a11.24,11.24,0,0,0-4.76,4.77Z"/><path class="cls-14" d="M588.29,242.4a6.6,6.6,0,0,1-5.9-9.55l3.46-6.92a6.68,6.68,0,0,1-4.16-6.13,6.61,6.61,0,0,1,6.6-6.6h3.93l6.17-12.35a6.6,6.6,0,0,1,11.81,0l6.17,12.35h3.92a6.61,6.61,0,0,1,6.6,6.6,6.68,6.68,0,0,1-4.16,6.13l3.47,6.92a6.6,6.6,0,0,1-5.91,9.55Zm21.33-13.2-1.4-2.8h-7.85l-1.4,2.8Z"/><path class="cls-4" d="M348.29,288a21,21,0,1,1,0-42h16a5,5,0,0,1,0,10h-16a11.21,11.21,0,0,0-9.77,6h25.77a5,5,0,0,1,0,10H338.52a11.21,11.21,0,0,0,9.77,6h16a5,5,0,0,1,0,10Z"/><path class="cls-6" d="M300.29,287a4,4,0,0,1-4-4V255h-12a4,4,0,1,1,0-8h32a4,4,0,0,1,0,8h-12v28A4,4,0,0,1,300.29,287Z"/><path class="cls-6" d="M412.29,287a4,4,0,0,1-4-4V271h-24v12a4,4,0,0,1-8,0V267a20,20,0,0,1,40,0v16A4,4,0,0,1,412.29,287Zm-4.7-24A12,12,0,0,0,385,263Z"/><path class="cls-6" d="M460.29,287a4,4,0,0,1-4-4V260.66l-9.17,9.17a4,4,0,0,1-5.66,0l-9.17-9.17V283a4,4,0,0,1-8,0V251a4,4,0,0,1,6.83-2.83l13.17,13.17,13.18-13.17a4,4,0,0,1,2.82-1.17,4,4,0,0,1,4,4v32A4,4,0,0,1,460.29,287Z"/><path class="cls-5" d="M316.29,239a4,4,0,0,1-4-4V212.66l-9.17,9.17a4,4,0,0,1-5.65,0l-9.18-9.17V235a4,4,0,0,1-8,0V203a4,4,0,0,1,6.83-2.83l13.17,13.17,13.18-13.17a4,4,0,0,1,6.82,2.83v32A4,4,0,0,1,316.29,239Z"/><path class="cls-5" d="M348.29,239a4,4,0,0,1-4-4V222.58a19.88,19.88,0,0,1-16-19.58,4,4,0,1,1,8,0,12,12,0,0,0,24,0,4,4,0,1,1,8,0,19.88,19.88,0,0,1-16,19.58V235A4,4,0,0,1,348.29,239Z"/><path class="cls-5" d="M396.29,239a4,4,0,0,1-4-4V207h-12a4,4,0,1,1,0-8h32a4,4,0,0,1,0,8h-12v28A4,4,0,0,1,396.29,239Z"/><path class="cls-5" d="M460.29,239a4,4,0,0,1-4-4V223h-24v12a4,4,0,0,1-8,0V203a4,4,0,1,1,8,0v12h24V203a4,4,0,1,1,8,0v32A4,4,0,0,1,460.29,239Z"/><path class="cls-5" d="M556.29,239a4,4,0,0,1-4-4V219a12,12,0,0,0-24,0v16a4,4,0,0,1-8,0V219a20,20,0,0,1,40,0v16A4,4,0,0,1,556.29,239Z"/><path class="cls-5" d="M572.29,239a4,4,0,0,1-4-4V203a4,4,0,0,1,8,0v32A4,4,0,0,1,572.29,239Z"/><path class="cls-15" d="M492.29,240.6a21,21,0,1,1,21-21A21,21,0,0,1,492.29,240.6Zm5-11.23a11,11,0,0,0,0-19.54Zm-14.76-4.77a11.35,11.35,0,0,0,4.76,4.77V224.6Zm4.76-10v-4.77a11.29,11.29,0,0,0-4.76,4.77Z"/><path class="cls-15" d="M492.29,240.2a20.6,20.6,0,1,1,20.6-20.6A20.62,20.62,0,0,1,492.29,240.2Zm4.6-10.19a11.37,11.37,0,0,0,0-20.82Zm-15-5.81a11.58,11.58,0,0,0,5.8,5.8v-5.8Zm5.8-9.2v-5.8a11.58,11.58,0,0,0-5.8,5.8Z"/><path class="cls-15" d="M492.29,240a20.4,20.4,0,1,1,20.4-20.4A20.43,20.43,0,0,1,492.29,240Zm4.4-9.69a11.57,11.57,0,0,0,0-21.42ZM481.59,224a11.79,11.79,0,0,0,6.3,6.31V224Zm6.3-8.8v-6.31a11.79,11.79,0,0,0-6.3,6.31Z"/><path class="cls-15" d="M492.29,239.6a20,20,0,1,1,20-20A20,20,0,0,1,492.29,239.6Zm4-8.71a12,12,0,0,0,0-22.58ZM481,223.6a12.15,12.15,0,0,0,7.29,7.29V223.6Zm7.29-8v-7.29A12.15,12.15,0,0,0,481,215.6Z"/><path class="cls-15" d="M588.29,240.6a5,5,0,0,1-4.47-7.24l4.38-8.76a5,5,0,0,1,.09-10h4.92l6.61-13.24a5,5,0,0,1,8.95,0l6.61,13.24h4.91a5,5,0,0,1,.09,10l4.39,8.76a5,5,0,0,1-4.48,7.24Zm23.92-10-3-6h-9.83l-3,6Z"/><path class="cls-6" d="M348.29,287a20,20,0,1,1,0-40h16a4,4,0,0,1,0,8h-16A12.12,12.12,0,0,0,337,263h27.29a4,4,0,0,1,0,8H337a12.12,12.12,0,0,0,11.29,8h16a4,4,0,0,1,0,8Z"/><path class="cls-8" d="M300.29,286a3,3,0,0,1-3-3V254h-13a3,3,0,1,1,0-6h32a3,3,0,0,1,0,6h-13v29A3,3,0,0,1,300.29,286Z"/><path class="cls-8" d="M412.29,286a3,3,0,0,1-3-3V270h-26v13a3,3,0,0,1-6,0V267a19,19,0,0,1,38,0v16A3,3,0,0,1,412.29,286Zm-3.36-22a13,13,0,0,0-25.27,0Z"/><path class="cls-8" d="M460.29,286a3,3,0,0,1-3-3V258.24l-10.88,10.88a2.94,2.94,0,0,1-2.12.88,3,3,0,0,1-2.12-.88l-10.88-10.88V283a3,3,0,0,1-6,0V251a3,3,0,0,1,3-3,2.93,2.93,0,0,1,2.11.88l13.88,13.88,13.88-13.88a3,3,0,0,1,5.12,2.12v32A3,3,0,0,1,460.29,286Z"/><path class="cls-7" d="M316.29,238a3,3,0,0,1-3-3V210.24l-10.88,10.88a3,3,0,0,1-4.24,0l-10.88-10.88V235a3,3,0,0,1-6,0V203a3,3,0,0,1,3-3,2.93,2.93,0,0,1,2.11.88l13.88,13.88,13.88-13.88a3,3,0,0,1,5.12,2.12v32A3,3,0,0,1,316.29,238Z"/><path class="cls-7" d="M348.29,238a3,3,0,0,1-3-3V221.74a19,19,0,0,1-16-18.74,3,3,0,1,1,6,0,13,13,0,0,0,26,0,3,3,0,1,1,6,0,19,19,0,0,1-16,18.74V235A3,3,0,0,1,348.29,238Z"/><path class="cls-7" d="M396.29,238a3,3,0,0,1-3-3V206h-13a3,3,0,1,1,0-6h32a3,3,0,0,1,0,6h-13v29A3,3,0,0,1,396.29,238Z"/><path class="cls-7" d="M460.29,238a3,3,0,0,1-3-3V222h-26v13a3,3,0,0,1-6,0V203a3,3,0,1,1,6,0v13h26V203a3,3,0,1,1,6,0v32A3,3,0,0,1,460.29,238Z"/><path class="cls-7" d="M556.29,238a3,3,0,0,1-3-3V219a13,13,0,0,0-26,0v16a3,3,0,0,1-6,0V219a19,19,0,0,1,38,0v16A3,3,0,0,1,556.29,238Z"/><path class="cls-7" d="M572.29,238a3,3,0,0,1-3-3V203a3,3,0,0,1,6,0v32A3,3,0,0,1,572.29,238Z"/><path class="cls-16" d="M492.29,238.8a19.4,19.4,0,1,1,19.4-19.4A19.42,19.42,0,0,1,492.29,238.8Zm3.4-7.28a12.58,12.58,0,0,0,0-24.24Zm-15.51-8.72a12.72,12.72,0,0,0,8.71,8.71V222.8Zm8.71-6.8v-8.71a12.72,12.72,0,0,0-8.71,8.71Z"/><path class="cls-16" d="M492.29,238.4a19,19,0,1,1,19-19A19,19,0,0,1,492.29,238.4Zm3-6.37a13,13,0,0,0,0-25.26Zm-15.63-9.63a13.07,13.07,0,0,0,9.63,9.63V222.4Zm9.63-6v-9.63a13.07,13.07,0,0,0-9.63,9.63Z"/><path class="cls-16" d="M588.29,238.8a3.4,3.4,0,0,1-3-4.92l5.54-11.08h-2.5a3.4,3.4,0,1,1,0-6.8h5.9l7.06-14.12a3.4,3.4,0,0,1,6.08,0L614.39,216h5.9a3.4,3.4,0,1,1,0,6.8h-2.5l5.54,11.08a3.4,3.4,0,0,1-3,4.92ZM614.8,232l-4.61-9.2h-11.8l-4.6,9.2Zm-8-16-2.5-5-2.5,5Z"/><path class="cls-8" d="M348.29,286a19,19,0,1,1,0-38h16a3,3,0,0,1,0,6h-16a13.05,13.05,0,0,0-12.63,10h28.63a3,3,0,0,1,0,6H335.66a13.05,13.05,0,0,0,12.63,10h16a3,3,0,0,1,0,6Z"/><path class="cls-10" d="M300.29,285a2,2,0,0,1-2-2V253h-14a2,2,0,1,1,0-4h32a2,2,0,0,1,0,4h-14v30A2,2,0,0,1,300.29,285Z"/><path class="cls-10" d="M412.29,285a2,2,0,0,1-2-2V269h-28v14a2,2,0,0,1-4,0V267a18,18,0,0,1,36,0v16A2,2,0,0,1,412.29,285Zm-2.16-20a14,14,0,0,0-27.68,0Z"/><path class="cls-10" d="M460.29,285a2,2,0,0,1-2-2V255.83l-12.58,12.58a2,2,0,0,1-2.83,0l-12.59-12.58V283a2,2,0,0,1-4,0V251a2,2,0,0,1,2-2,2,2,0,0,1,1.41.59l14.58,14.58,14.59-14.58a2,2,0,0,1,1.41-.59,2,2,0,0,1,2,2v32A2,2,0,0,1,460.29,285Z"/><path class="cls-9" d="M316.29,237a2,2,0,0,1-2-2V207.83l-12.58,12.58a2,2,0,0,1-2.83,0l-12.59-12.58V235a2,2,0,0,1-4,0V203a2,2,0,0,1,2-2,2,2,0,0,1,1.41.59l14.58,14.58,14.59-14.58a2,2,0,0,1,1.41-.59,2,2,0,0,1,2,2v32A2,2,0,0,1,316.29,237Z"/><path class="cls-9" d="M348.29,237a2,2,0,0,1-2-2V220.87a18,18,0,0,1-16-17.87,2,2,0,1,1,4,0,14,14,0,0,0,28,0,2,2,0,1,1,4,0,18,18,0,0,1-16,17.87V235A2,2,0,0,1,348.29,237Z"/><path class="cls-9" d="M396.29,237a2,2,0,0,1-2-2V205h-14a2,2,0,1,1,0-4h32a2,2,0,0,1,0,4h-14v30A2,2,0,0,1,396.29,237Z"/><path class="cls-9" d="M460.29,237a2,2,0,0,1-2-2V221h-28v14a2,2,0,0,1-4,0V203a2,2,0,1,1,4,0v14h28V203a2,2,0,1,1,4,0v32A2,2,0,0,1,460.29,237Z"/><path class="cls-9" d="M556.29,237a2,2,0,0,1-2-2V219a14,14,0,0,0-28,0v16a2,2,0,0,1-4,0V219a18,18,0,0,1,36,0v16A2,2,0,0,1,556.29,237Z"/><path class="cls-9" d="M572.29,237a2,2,0,0,1-2-2V203a2,2,0,0,1,4,0v32A2,2,0,0,1,572.29,237Z"/><path class="cls-17" d="M492.29,237.4a18.2,18.2,0,1,1,18.2-18.2A18.22,18.22,0,0,1,492.29,237.4Zm2.2-4.59a13.78,13.78,0,0,0,0-27.22Zm-15.8-11.41a13.86,13.86,0,0,0,11.4,11.41V221.4Zm11.4-4.4V205.59A13.86,13.86,0,0,0,478.69,217Z"/><path class="cls-17" d="M492.29,237.2a18,18,0,1,1,18-18A18,18,0,0,1,492.29,237.2Zm2-4.16.23,0a14,14,0,0,0,0-27.6l-.23,0Zm-15.8-11.61A14.13,14.13,0,0,0,490.06,233l.23,0V221.2H478.45Zm11.57-16A14.13,14.13,0,0,0,478.49,217l0,.23h11.84V205.36Z"/><path class="cls-17" d="M492.29,237.2a18,18,0,1,1,18-18A18,18,0,0,1,492.29,237.2Zm2-4.16a14,14,0,0,0,0-27.68ZM478.45,221.2A14,14,0,0,0,490.29,233V221.2Zm11.84-4V205.36a14,14,0,0,0-11.84,11.84Z"/><path class="cls-17" d="M492.29,237a17.8,17.8,0,1,1,17.8-17.8A17.82,17.82,0,0,1,492.29,237Zm1.8-3.73.23,0a14.18,14.18,0,0,0,0-28.08l-.23,0Zm-15.83-12a14.26,14.26,0,0,0,12,12l.23,0V221H478.22Zm12-16.07a14.26,14.26,0,0,0-12,12l0,.23h12.27V205.13Z"/><path class="cls-17" d="M588.29,237.2a2,2,0,0,1-1.79-2.89l6.56-13.11h-4.77a2,2,0,0,1,0-4h6.77l7.44-14.89a2,2,0,0,1,1.79-1.11,2,2,0,0,1,1.79,1.11l7.45,14.89h6.76a2,2,0,0,1,0,4h-4.76l6.55,13.11a2,2,0,0,1-1.79,2.89Zm3.24-4h25.53l-6-12H597.53Zm8-16h9.53l-4.77-9.53Z"/><path class="cls-10" d="M348.29,285a18,18,0,1,1,0-36h16a2,2,0,0,1,0,4h-16a14,14,0,0,0-13.84,12h29.84a2,2,0,0,1,0,4H334.45a14,14,0,0,0,13.84,12h16a2,2,0,0,1,0,4Z"/><path class="cls-18" d="M315.59,202.29l-15.3,15.3L285,202.29a1,1,0,0,0-1.71.71v32a1,1,0,0,0,2,0V205.41l14.3,14.3a1,1,0,0,0,1.41,0l14.29-14.3V235a1,1,0,0,0,2,0V203A1,1,0,0,0,315.59,202.29Z"/><path class="cls-18" d="M364.29,202a1,1,0,0,0-1,1,15,15,0,0,1-30,0,1,1,0,1,0-2,0,17,17,0,0,0,16,16.95V235a1,1,0,0,0,2,0V220a17,17,0,0,0,16-16.95A1,1,0,0,0,364.29,202Z"/><path class="cls-18" d="M412.29,202h-32a1,1,0,1,0,0,2h15v31a1,1,0,0,0,2,0V204h15a1,1,0,0,0,0-2Z"/><path class="cls-18" d="M460.29,202a1,1,0,0,0-1,1v15h-30V203a1,1,0,1,0-2,0v32a1,1,0,0,0,2,0V220h30v15a1,1,0,0,0,2,0V203A1,1,0,0,0,460.29,202Z"/><path class="cls-18" d="M540.29,202a17,17,0,0,0-17,17v16a1,1,0,0,0,2,0V219a15,15,0,0,1,30,0v16a1,1,0,0,0,2,0V219A17,17,0,0,0,540.29,202Z"/><path class="cls-18" d="M572.29,202a1,1,0,0,0-1,1v32a1,1,0,0,0,2,0V203A1,1,0,0,0,572.29,202Z"/><path class="cls-19" d="M492.29,202a17,17,0,1,0,17,17A17,17,0,0,0,492.29,202Zm-1,2.05V218h-14A15,15,0,0,1,491.29,204.05Zm-14,15.95h14V234A15,15,0,0,1,477.34,220Zm16,13.95v-29.9a15,15,0,0,1,0,29.9Z"/><path class="cls-19" d="M613.91,220h6.38a1,1,0,0,0,0-2h-7.38l-7.72-15.45a1,1,0,0,0-1.79,0L595.68,218h-7.39a1,1,0,0,0,0,2h6.39l-7.28,14.55a1,1,0,0,0,.89,1.45h32a1,1,0,0,0,.9-1.45Zm-9.62-14.76L610.68,218H597.91ZM589.91,234l7-14h14.77l7,14Z"/><path class="cls-13" d="M316.29,250h-32a1,1,0,1,0,0,2h15v31a1,1,0,0,0,2,0V252h15a1,1,0,0,0,0-2Z"/><path class="cls-13" d="M396.29,250a17,17,0,0,0-17,17v16a1,1,0,0,0,2,0V268h30v15a1,1,0,0,0,2,0V267A17,17,0,0,0,396.29,250Zm-15,16a15,15,0,0,1,29.9,0Z"/><path class="cls-13" d="M459.59,250.29l-15.3,15.3L429,250.29a1,1,0,0,0-1.71.71v32a1,1,0,0,0,2,0V253.41l14.3,14.3a1,1,0,0,0,1.41,0l14.29-14.3V283a1,1,0,0,0,2,0V251A1,1,0,0,0,459.59,250.29Z"/><path class="cls-13" d="M365.29,267a1,1,0,0,0-1-1h-31a15,15,0,0,1,15-14h16a1,1,0,0,0,0-2h-16a17,17,0,1,0,0,34h16a1,1,0,0,0,0-2h-16a15,15,0,0,1-15-14h31A1,1,0,0,0,365.29,267Z"/></svg>