<svg id="图层_1" data-name="图层 1" xmlns="http://www.w3.org/2000/svg" viewBox="0 0 768 512"><defs><style>.cls-1{fill:none;stroke:#9bd4e0;stroke-miterlimit:10;}.cls-2{fill:#070708;}.cls-3{fill:#0b0b0c;}.cls-4{fill:#110e12;}.cls-5{fill:#15131c;}.cls-6{fill:#191a29;}.cls-7{fill:#223033;}.cls-8{fill:#fcf5ff;}</style></defs><title>TeamLogo_Shine</title><path class="cls-1" d="M129.1,341" transform="translate(0)"/><rect class="cls-2" width="768" height="512"/><path class="cls-3" d="M300.29,293a9,9,0,0,1-9-9V261h-7a9,9,0,1,1,0-18h32a9,9,0,0,1,0,18h-7v23A9,9,0,0,1,300.29,293Z" transform="translate(0)"/><path class="cls-3" d="M412.29,293a9,9,0,0,1-9-9v-7h-14v7a9,9,0,0,1-18,0V268a25,25,0,0,1,50,0v16A9,9,0,0,1,412.29,293Z" transform="translate(0)"/><path class="cls-3" d="M460.29,293a9,9,0,0,1-9-9V273.73l-.63.64a9,9,0,0,1-12.74,0l-.63-.62V284a9,9,0,0,1-18,0V252a9,9,0,0,1,15.37-6.36l9.63,9.63,9.64-9.63A9,9,0,0,1,469.29,252v32A9,9,0,0,1,460.29,293Z" transform="translate(0)"/><path class="cls-3" d="M348.29,293a25,25,0,1,1,0-50h16a9,9,0,0,1,4.12,17,9,9,0,0,1,0,16,9,9,0,0,1-4.12,17Z" transform="translate(0)"/><path class="cls-3" d="M316.29,245a9,9,0,0,1-9-9V225.73l-.63.63a9,9,0,0,1-12.73,0l-.64-.63V236a9,9,0,0,1-18,0V204a9,9,0,0,1,15.37-6.36l9.63,9.63,9.64-9.63A9,9,0,0,1,325.29,204v32A9,9,0,0,1,316.29,245Z" transform="translate(0)"/><path class="cls-3" d="M348.29,245a9,9,0,0,1-9-9v-8.67a24.78,24.78,0,0,1-16-23.33,9,9,0,1,1,18,0,7,7,0,0,0,14,0,9,9,0,1,1,18,0,24.76,24.76,0,0,1-16,23.33V236A9,9,0,0,1,348.29,245Z" transform="translate(0)"/><path class="cls-3" d="M396.29,245a9,9,0,0,1-9-9V213h-7a9,9,0,1,1,0-18h32a9,9,0,0,1,0,18h-7v23A9,9,0,0,1,396.29,245Z" transform="translate(0)"/><path class="cls-3" d="M460.29,245a9,9,0,0,1-9-9v-7h-14v7a9,9,0,0,1-18,0V204a9,9,0,1,1,18,0v7h14v-7a9,9,0,1,1,18,0v32A9,9,0,0,1,460.29,245Z" transform="translate(0)"/><path class="cls-3" d="M556.29,245a9,9,0,0,1-9-9V220a7,7,0,0,0-14,0v16a9,9,0,0,1-18,0V220a25,25,0,0,1,50,0v16A9,9,0,0,1,556.29,245Z" transform="translate(0)"/><path class="cls-3" d="M572.29,245a9,9,0,0,1-9-9V204a9,9,0,0,1,18,0v32A9,9,0,0,1,572.29,245Z" transform="translate(0)"/><circle class="cls-3" cx="492.29" cy="220" r="25"/><path class="cls-3" d="M588.29,245a9,9,0,0,1-8-13l2.46-4.93a9,9,0,0,1,5.58-16h2.44l5.51-11a9,9,0,0,1,16.11,0l5.5,11h2.44a9,9,0,0,1,5.58,16l2.47,4.94a9,9,0,0,1-8.05,13Z" transform="translate(0)"/><path class="cls-2" d="M499.29,225.58a8.78,8.78,0,0,0,0-11.16Z" transform="translate(0)"/><path class="cls-2" d="M492.29,242.2a22.2,22.2,0,1,1,22.2-22.2A22.23,22.23,0,0,1,492.29,242.2Zm6.2-14.66a9.7,9.7,0,0,0,0-15.08Zm-13.73-1.34a10.52,10.52,0,0,0,1.33,1.34V226.2Zm1.33-12.4v-1.34a10.52,10.52,0,0,0-1.33,1.34Z" transform="translate(0)"/><path class="cls-2" d="M588.29,244.6a8.61,8.61,0,0,1-7.69-12.45l2.62-5.23a8.58,8.58,0,0,1,5.07-15.52H591l5.62-11.24a8.6,8.6,0,0,1,15.39,0l5.62,11.24h2.68a8.59,8.59,0,0,1,5.08,15.52l2.62,5.23a8.61,8.61,0,0,1-7.7,12.45Z" transform="translate(0)"/><path class="cls-2" d="M609,229l-1-2h-7.35l-1,2Z" transform="translate(0)"/><path class="cls-3" d="M203.32,328.23a8.14,8.14,0,0,1-5.53-2.21,7.87,7.87,0,0,1-2.46-5.25,25.26,25.26,0,0,1-5.9.7H186.5a8,8,0,0,1-6.25-13l1.46-1.82a12.72,12.72,0,0,1-6.11-4.84l-3.6-5.4a8,8,0,0,1-.4-8.21,7.88,7.88,0,0,1,4-3.65,18.58,18.58,0,0,1-4.31-12v-2.15a8.17,8.17,0,0,1-3-1.78,7.91,7.91,0,0,1-2.5-5.81V252.69A12.67,12.67,0,0,1,171,242.43l-3.62-3.35a14.69,14.69,0,0,1-1.12-20.48l7.06-8.15V202a8,8,0,0,1,8-8h12.28a14.62,14.62,0,0,1,8.58,2.75l6.5-5.93a8,8,0,0,1,10.78,0l6.5,5.93a14.6,14.6,0,0,1,8.58-2.75h12.28a8,8,0,0,1,8,8v8.49l7.06,8.14a14.69,14.69,0,0,1-1.13,20.49l-3.61,3.34a12.67,12.67,0,0,1,5.18,10.26v10.15a8.07,8.07,0,0,1-5.5,7.6v2.14a18.62,18.62,0,0,1-4.34,12,8,8,0,0,1,3.64,11.84l-3.58,5.37a12.67,12.67,0,0,1-6.12,4.86l1.46,1.83a8,8,0,0,1-6.25,13h-2.93a25.26,25.26,0,0,1-5.9-.7,8,8,0,0,1-8,7.46,7.89,7.89,0,0,1-4.8-1.62l-2.79-2.09a24,24,0,0,1-3.15-2.82,24.71,24.71,0,0,1-3.15,2.82l-2.8,2.1A7.94,7.94,0,0,1,203.32,328.23Zm10.74-73.55,2.84-2.7-2.75-1.19L211.26,252Zm-25-19.4a12.64,12.64,0,0,1,5.42,1.72l.49.31.13.08.33.23c.12.08.24.18.37.28l.13.1.38.3.83.72,11.9-5.15a12.8,12.8,0,0,1,5-1l-21.57-21.36h-1.65a14.72,14.72,0,0,1-3.61,9.66l-6,6.91Zm51.25-1.09,6.63-6.14-6-6.91a14.76,14.76,0,0,1-3.6-9.66h-1.65l-9.16,9.08Z" transform="translate(0)"/><path class="cls-4" d="M203.32,325.63a5.73,5.73,0,0,1-3.88-1.55,5.56,5.56,0,0,1-1.73-4.06V317.3a22.6,22.6,0,0,1-8.28,1.57H186.5a5.6,5.6,0,0,1-4.37-9.1l3.92-4.9a10.35,10.35,0,0,1-8.46-4.6L174,294.88a5.6,5.6,0,0,1,4.66-8.71h2l-2.19-2.25a16.25,16.25,0,0,1-4.77-11.54v-4.14A5.69,5.69,0,0,1,170,266.7a5.52,5.52,0,0,1-1.74-4.06V252.49a10.28,10.28,0,0,1,5.72-9.25l1.09-.55-6-5.57a12.28,12.28,0,0,1-.93-17.15l7.64-8.82v-9.38a5.6,5.6,0,0,1,5.6-5.6h12.28a12.27,12.27,0,0,1,8.65,3.54l8-7.34a5.6,5.6,0,0,1,7.54,0l8,7.33a12.3,12.3,0,0,1,8.65-3.53h12.28a5.6,5.6,0,0,1,5.6,5.6v9.38l7.65,8.82a12.32,12.32,0,0,1-.95,17.16l-6,5.56,1.09.55a10.28,10.28,0,0,1,5.72,9.25v10.15a5.62,5.62,0,0,1-5.5,5.6v4.14a16.23,16.23,0,0,1-4.79,11.56l-2.25,2.25h2.07a5.61,5.61,0,0,1,4.95,3,5.51,5.51,0,0,1-.28,5.75l-3.58,5.37a10.32,10.32,0,0,1-8.46,4.61l3.92,4.9a5.6,5.6,0,0,1-4.37,9.1h-2.93a22.41,22.41,0,0,1-8.28-1.58V320a5.6,5.6,0,0,1-9,4.48l-2.8-2.1a22.49,22.49,0,0,1-4.59-4.65,22.49,22.49,0,0,1-4.59,4.65l-2.8,2.1A5.52,5.52,0,0,1,203.32,325.63Zm10.74-67.85L221.2,251l-7-3.05-7.2,3.08Zm-26-20.35a10.32,10.32,0,0,1,5.19,1.44,2.92,2.92,0,0,1,.37.24l.15.09.25.17.26.19.17.14.29.23,2,1.69L210,235.88a10.34,10.34,0,0,1,8.21,0l4.54,2-29.25-29h-5v2.41a12.33,12.33,0,0,1-3,8.09L177.88,228Zm52.19-.12,10-9.27-7.51-8.67a12.33,12.33,0,0,1-3-8.09v-2.41h-5l-11.59,11.48Zm-26.16-25.9,2.78-2.76-2.78-2.53-2.78,2.53Z" transform="translate(0)"/><path class="cls-5" d="M203.32,323.83a4,4,0,0,1-4-4v-5.24a20.53,20.53,0,0,1-9.88,2.49H186.5a4,4,0,0,1-3.13-6.5l5.47-6.84a8.16,8.16,0,0,0,.5-.66H186.2a8.73,8.73,0,0,1-7.28-3.89l-3.59-5.39a3.93,3.93,0,0,1-.2-4.11,4,4,0,0,1,3.53-2.11h4.65v-1.19l-3.69-3.78a14.64,14.64,0,0,1-4.31-10.42v-6a3.94,3.94,0,0,1-1.48.29,4,4,0,0,1-4-4V252.29a8.69,8.69,0,0,1,4.84-7.82l3.15-1.58-7.71-7.14a10.71,10.71,0,0,1-.82-14.93L177,211.9a1.25,1.25,0,0,0,.31-.82v-9.51a4,4,0,0,1,4-4h12.28a10.67,10.67,0,0,1,7.56,3.11l1,1,9.17-8.36a4,4,0,0,1,2.7-1,4,4,0,0,1,2.69,1l9.17,8.36,1-1a10.73,10.73,0,0,1,7.57-3.11h12.28a4,4,0,0,1,4,4v9.51a1.29,1.29,0,0,0,.3.82l7.74,8.92a10.71,10.71,0,0,1-.82,14.93l-7.71,7.14,3.15,1.58a8.69,8.69,0,0,1,4.84,7.82v10.15a3.93,3.93,0,0,1-1.24,2.9,4.11,4.11,0,0,1-2.78,1.1h0a3.76,3.76,0,0,1-1.48-.29v6a14.69,14.69,0,0,1-4.32,10.43l-3.62,3.61,0,1.37h4.6A4,4,0,0,1,253,289.7a3.93,3.93,0,0,1-.2,4.1l-3.58,5.37a8.74,8.74,0,0,1-7.28,3.9h-3.14c.16.23.32.45.49.66l5.47,6.84a4,4,0,0,1-3.12,6.5h-2.93a20.53,20.53,0,0,1-9.88-2.49v5.24a4,4,0,0,1-4,4,3.94,3.94,0,0,1-2.39-.81l-2.8-2.1a20.84,20.84,0,0,1-5.55-6.3,20.84,20.84,0,0,1-5.55,6.3l-2.8,2.1A3.94,3.94,0,0,1,203.32,323.83Zm1.77-59.45a16.91,16.91,0,0,0-.28,3.09v5.91a25.59,25.59,0,0,0,1.32,8.13l1.18,3.54V266.47Zm15.72,20.67,1.18-3.54a25.87,25.87,0,0,0,1.32-8.13v-5.91a16.93,16.93,0,0,0-.29-3.09l-2.21,2.09Zm11.47-22.85a26.61,26.61,0,0,1,.53,5.27v5.91c0,.87,0,1.74-.1,2.6a5.26,5.26,0,0,0,.6-2.43v-8.23A5.26,5.26,0,0,0,232.28,262.2Zm-36.44,0a5.26,5.26,0,0,0-1,3.12v8.23a5.14,5.14,0,0,0,.6,2.43c-.07-.87-.1-1.74-.1-2.6v-5.91A26.61,26.61,0,0,1,195.84,262.2Zm-10.43,1.38a2.88,2.88,0,0,0-.6,1.76v6.84a5.18,5.18,0,0,0,.53,2.3q0-.47,0-.93v-8.23A14.5,14.5,0,0,1,185.41,263.58Zm57.3,0a16.91,16.91,0,0,1,.1,1.74v8.23q0,.46,0,.93a5.18,5.18,0,0,0,.53-2.3v-6.84A2.88,2.88,0,0,0,242.71,263.58Zm-28.65-3.8,10-9.46-9.9-4.28-10.07,4.31Zm28.62-10.09-2.42-1.21-1.41,1.21Zm-53.41,0-1.41-1.21-2.42,1.21ZM188,238.83a8.7,8.7,0,0,1,4.44,1.22l.35.22.29.19.24.18.08.07.3.23,2.73,2.34,14.19-6.13a8.72,8.72,0,0,1,6.94,0l12.33,5.33-35.39-35a1.25,1.25,0,0,0-.88-.36h-6.78v4a10.7,10.7,0,0,1-2.63,7L176.45,227a1.25,1.25,0,0,0,.1,1.74l10.87,10.07Zm52.17,0,.56,0,10.87-10.07a1.25,1.25,0,0,0,.1-1.74l-7.73-8.92a10.7,10.7,0,0,1-2.63-7v-4h-6.78a1.27,1.27,0,0,0-.89.36l-12.83,12.72,18.87,18.68h.46Zm-26.08-25.37,5.1-5.06-5.1-4.65L209,208.4Z" transform="translate(0)"/><path class="cls-6" d="M224.8,322a2.35,2.35,0,0,1-1.43-.48l-2.8-2.1a19.27,19.27,0,0,1-6.51-8.81,19.27,19.27,0,0,1-6.51,8.81l-2.8,2.1a2.35,2.35,0,0,1-1.43.48,2.4,2.4,0,0,1-2.41-2.4v-8.17a18.89,18.89,0,0,1-11.48,3.82H186.5a2.41,2.41,0,0,1-1.88-3.9l5.47-6.84a12.75,12.75,0,0,0,2-3.59,8.8,8.8,0,0,1-2.4.33H186.2a7.12,7.12,0,0,1-5.95-3.19l-3.59-5.38a2.4,2.4,0,0,1,2-3.73h5.88a.52.52,0,0,0,.36-.14v-3.05a.84.84,0,0,0-.25-.6l-3.9-3.9a13.1,13.1,0,0,1-3.85-9.3v-6.84a10.71,10.71,0,0,1,.33-2.66l-1.88,1.59a2.4,2.4,0,0,1-4-1.83V252.09a7.1,7.1,0,0,1,4-6.39l5.22-2.61-9.4-8.71a9.12,9.12,0,0,1-.7-12.71l7.73-8.92a2.85,2.85,0,0,0,.7-1.87v-9.51a2.41,2.41,0,0,1,2.4-2.4h12.27a9.12,9.12,0,0,1,6.45,2.65l2.19,2.17a7,7,0,0,1,.83-.89l9.39-8.57a2.43,2.43,0,0,1,3.24,0l9.39,8.57a7.74,7.74,0,0,1,.83.89l2.19-2.17a9.08,9.08,0,0,1,6.44-2.65h12.28a2.41,2.41,0,0,1,2.4,2.4v9.51a2.9,2.9,0,0,0,.69,1.87l7.74,8.92a9.12,9.12,0,0,1-.7,12.71l-9.41,8.71,5.23,2.61a7.12,7.12,0,0,1,3.95,6.39v10.15A2.37,2.37,0,0,1,256,264a2.43,2.43,0,0,1-1.66.66h0a2.31,2.31,0,0,1-1.54-.57l-1.88-1.59a10.77,10.77,0,0,1,.33,2.66V272a13.1,13.1,0,0,1-3.85,9.3l-3.9,3.9a.84.84,0,0,0-.25.6v3a.48.48,0,0,0,.36.16h5.89a2.4,2.4,0,0,1,2,3.73l-3.59,5.39a7.15,7.15,0,0,1-6,3.18H238.4a8.75,8.75,0,0,1-2.4-.33,12.75,12.75,0,0,0,2,3.59l5.46,6.84a2.4,2.4,0,0,1-1.87,3.9h-2.93a18.89,18.89,0,0,1-11.48-3.82v8.17A2.4,2.4,0,0,1,224.8,322Zm-5.59-17.9a13,13,0,0,0,1.7,6.37V292.72a19.13,19.13,0,0,1,1-6.06l1.62-4.85a27.27,27.27,0,0,0,1.4-8.63v-5.91a19,19,0,0,0-1-6.1l-4.67,4.42Zm-15-42.95a18.69,18.69,0,0,0-1,6.1v5.91a27.22,27.22,0,0,0,1.4,8.63l1.61,4.84a19,19,0,0,1,1,6.07v17.77a13,13,0,0,0,1.7-6.37V265.59Zm24.93-3.78a25,25,0,0,1,2,9.88v5.91a33.43,33.43,0,0,1-1.73,10.63l-1.61,4.85a12.7,12.7,0,0,0-.66,4.06v6.71a7.94,7.94,0,0,0,2,5.42,12.93,12.93,0,0,0,2.93,2.36,19.21,19.21,0,0,1-3.27-10.7v-6a19.11,19.11,0,0,1,2.73-9.85l2.29-3.83a6.82,6.82,0,0,0,1-3.52v-8.23a6.91,6.91,0,0,0-2.74-5.48ZM196,259.64a6.88,6.88,0,0,0-2.74,5.48v8.23a6.93,6.93,0,0,0,1,3.52l2.3,3.84a19.08,19.08,0,0,1,2.73,9.84v6.05A19,19,0,0,1,196,307.2a13.2,13.2,0,0,0,2.92-2.37,7.89,7.89,0,0,0,2-5.4v-6.72a12.74,12.74,0,0,0-.66-4.06l-1.62-4.84a33.66,33.66,0,0,1-1.72-10.63v-5.91a25.11,25.11,0,0,1,2-9.88ZM237,283.94a12.81,12.81,0,0,0-1.83,6.61v.26a4.86,4.86,0,0,0,1.58,3.58,2.42,2.42,0,0,0,1.61.58h3.16a6.7,6.7,0,0,1-2.74-1.63,6.81,6.81,0,0,1-1.91-4.86v-2.4a8.3,8.3,0,0,1,.39-2.58Zm-47.32,11a2.36,2.36,0,0,0,1.61-.59,4.84,4.84,0,0,0,1.58-3.57v-.26a12.88,12.88,0,0,0-1.84-6.62l-.22-.36a6.87,6.87,0,0,1,.36,2.21v2.7a6.78,6.78,0,0,1-1.92,4.86,6.6,6.6,0,0,1-2.73,1.63ZM185.91,261a4.45,4.45,0,0,0-2.7,4.1V272a6.8,6.8,0,0,0,2,4.84l4,4-.42-.7a13.19,13.19,0,0,1-1.87-6.76v-8.23a13.37,13.37,0,0,1,1-4.92Zm54.34-.84a13.18,13.18,0,0,1,1,4.92v8.23a13.13,13.13,0,0,1-1.88,6.77l-.41.69,4-4a6.77,6.77,0,0,0,2-4.84v-6.84a4.44,4.44,0,0,0-2.71-4.1Zm-26.19,1.58,12.86-12.16L214.4,244.2a.8.8,0,0,0-.34-.07.72.72,0,0,0-.33.07l-12.53,5.42Zm30.49-10.69a7.17,7.17,0,0,1,4.62,1.69l1.24,1.05v-1.74a.86.86,0,0,0-.47-.76l-9.19-4.59a5.41,5.41,0,0,0-.69-.19.8.8,0,0,0-.46.19l-5,4.27-.08.08ZM188,246.54a.89.89,0,0,0-.39.09l-9.41,4.7a.86.86,0,0,0-.47.76v1.74l1.24-1.05a7.12,7.12,0,0,1,4.61-1.69h10l-.16-.15-4.9-4.2A.89.89,0,0,0,188,246.54Zm0-6.31a7.22,7.22,0,0,1,3.63,1,5.88,5.88,0,0,1,.51.36l.12.1.13.09.27.19,3.48,3,15.11-6.53a7.13,7.13,0,0,1,5.68,0L232,245l1.52-1.3L195.6,206.1a2.81,2.81,0,0,0-2-.83h-8.38v5.61a9.15,9.15,0,0,1-2.24,6l-7.73,8.92a2.84,2.84,0,0,0,.22,3.95l11.42,10.58A6.13,6.13,0,0,1,188,240.23Zm52.17,0a6.33,6.33,0,0,1,1.1.1l11.42-10.58a2.84,2.84,0,0,0,.22-3.95l-7.73-8.92a9.15,9.15,0,0,1-2.24-6v-5.61h-8.38a2.81,2.81,0,0,0-2,.83l-14,13.85,20.56,20.36a4.5,4.5,0,0,1,.82-.08h.22Zm-32.85-32.68a.8.8,0,0,0-.27.61.79.79,0,0,0,.24.62l6.8,6.73,6.8-6.73a.81.81,0,0,0,.24-.61.78.78,0,0,0-.27-.61l-6.77-6.18Z" transform="translate(0)"/><path class="cls-7" d="M256.73,222.26,249,213.33a4,4,0,0,1-1-2.65v-9.51a1.2,1.2,0,0,0-1.2-1.2H234.53a7.93,7.93,0,0,0-5.6,2.3l-3.26,3.23a6,6,0,0,0-1.41-1.92L214.87,195a1.21,1.21,0,0,0-1.62,0l-9.39,8.56a5.9,5.9,0,0,0-1.41,1.93l-3.27-3.24a7.91,7.91,0,0,0-5.59-2.3H181.31a1.2,1.2,0,0,0-1.2,1.2v9.51a4,4,0,0,1-1,2.65l-7.73,8.93a7.92,7.92,0,0,0,.6,11l10.69,9.88-6.78,3.39a5.91,5.91,0,0,0-3.29,5.32V262a1.19,1.19,0,0,0,.37.87,1.24,1.24,0,0,0,.83.33,1.15,1.15,0,0,0,.77-.29l7.66-6.47a2,2,0,0,1,1.32-.49h.72l-.37.16a9.44,9.44,0,0,0-5.8,8.73v6.9a11.87,11.87,0,0,0,3.5,8.45l3.9,3.9a2,2,0,0,1,.6,1.45v3a1.22,1.22,0,0,1-.36.86,1.7,1.7,0,0,1-1.21.5h-5.88a1.2,1.2,0,0,0-1,1.87l3.59,5.38a5.92,5.92,0,0,0,4.95,2.65h3.52a7.61,7.61,0,0,0,4.2-1.26,14.08,14.08,0,0,1-2.89,6.47l-5.47,6.84a1.19,1.19,0,0,0-.14,1.27,1.18,1.18,0,0,0,1.08.68h2.8A18.13,18.13,0,0,0,202,308.76l.13-.13v10.79a1.19,1.19,0,0,0,.37.87,1.23,1.23,0,0,0,.83.33,1.18,1.18,0,0,0,.72-.24l2.81-2.11A18,18,0,0,0,214,303.92V268.56l.05,0,.05,0v35.36a18,18,0,0,0,7.17,14.35l2.81,2.11a1.17,1.17,0,0,0,.71.24,1.21,1.21,0,0,0,1.21-1.2V308.63a17.84,17.84,0,0,0,12.68,5.24h2.93a1.2,1.2,0,0,0,.94-1.95l-5.47-6.84a14.08,14.08,0,0,1-2.89-6.47,7.59,7.59,0,0,0,4.2,1.26h3.52a6,6,0,0,0,5-2.65l3.59-5.38a1.2,1.2,0,0,0-1-1.87h-5.89a1.7,1.7,0,0,1-1.2-.5,1.22,1.22,0,0,1-.36-.86v-3a2,2,0,0,1,.6-1.45l3.9-3.9a11.87,11.87,0,0,0,3.5-8.45v-6.84a9.56,9.56,0,0,0-5.8-8.79l-.37-.16h.71a2,2,0,0,1,1.33.49l7.65,6.47a1.17,1.17,0,0,0,.77.29,1.21,1.21,0,0,0,1.21-1.2V251.89a5.91,5.91,0,0,0-3.29-5.32l-6.77-3.39,10.67-9.88A7.92,7.92,0,0,0,256.73,222.26Zm-50.25-15.79,7.58-6.91,7.58,6.91a2,2,0,0,1,.66,1.47,2,2,0,0,1-.6,1.49L214.06,217l-7.64-7.56a2.07,2.07,0,0,1,.06-3Zm-32.14,18.34,7.73-8.92a8,8,0,0,0,1.94-5.21v-6.81h9.58a4,4,0,0,1,2.85,1.17l38.85,38.47-3.07,2.64-15.8-6.83a5.93,5.93,0,0,0-4.72,0l-15.8,6.83-4.05-3.48h0l0,0a5.79,5.79,0,0,0-.82-.58,5.91,5.91,0,0,0-3-.83,6,6,0,0,0-1.46.19l-11.87-11A4,4,0,0,1,174.34,224.81Zm9.22,27.28a5.94,5.94,0,0,0-3.84,1.41l-3.21,2.72v-4.33a2,2,0,0,1,1.13-1.83l8.37-4.18h0l1-.53a2.14,2.14,0,0,1,.93-.21,2.06,2.06,0,0,1,1.33.49l4.94,4.23,2.35,2.23Zm8.79,42.77a3.81,3.81,0,0,1-2.72,1.11H186.2a2,2,0,0,1-1.7-.91l-.8-1.19h.84a5.61,5.61,0,0,0,3.71-1.4,6.35,6.35,0,0,0,1.76-4.2v-2.69a5.92,5.92,0,0,0-1.74-4.21l-3.9-3.9a8,8,0,0,1-2.36-5.69v-6.84a5.67,5.67,0,0,1,3.43-5.21l5.28-2.26a11.94,11.94,0,0,0-2.61,7.45v8.23a12,12,0,0,0,1.7,6.15l2.29,3.82a14,14,0,0,1,2,7.23v.26A6.05,6.05,0,0,1,192.35,294.86Zm9.76,4.14a9.79,9.79,0,0,1-2.93,7,13.9,13.9,0,0,1-6.82,3.64l1.71-2.14A18,18,0,0,0,198,296.31v-5.95a18,18,0,0,0-2.56-9.24l-2.29-3.83a8,8,0,0,1-1.15-4.14v-8.24a8.07,8.07,0,0,1,3.22-6.43l3.32-2.49h2.17l.09.08-.19.38a23.78,23.78,0,0,0-2.51,10.6V273a32.45,32.45,0,0,0,1.66,10.25l1.62,4.84a15.67,15.67,0,0,1,.72,5.14Zm8,4.92a14.14,14.14,0,0,1-4.1,9.92V292.52a17.92,17.92,0,0,0-.92-5.68L203.47,282a28.45,28.45,0,0,1-1.46-9v-5.91a19.9,19.9,0,0,1,1.77-8.18l6.33,6Zm3.95-40.68-15-14.2,14.2-6.14a2,2,0,0,1,.81-.17,2,2,0,0,1,.81.17l14.2,6.14ZM224.64,282,223,286.84a17.92,17.92,0,0,0-.92,5.68v21.32a14.14,14.14,0,0,1-4.1-9.92V264.87l6.33-6a19.9,19.9,0,0,1,1.77,8.18V273A28.22,28.22,0,0,1,224.64,282Zm11.12,27.68a13.89,13.89,0,0,1-6.83-3.64,9.77,9.77,0,0,1-2.92-7v-6.49a14,14,0,0,1,.72-4.44l1.61-4.84A32.24,32.24,0,0,0,230,273v-5.91a23.85,23.85,0,0,0-2.51-10.61l-.19-.38.08-.08h2.18l3.32,2.49a8.07,8.07,0,0,1,3.22,6.43v8.24a8,8,0,0,1-1.15,4.14l-2.29,3.83a17.88,17.88,0,0,0-2.56,9.23v6a18,18,0,0,0,3.94,11.22Zm10.35-44.73v6.84a8,8,0,0,1-2.36,5.69l-3.9,3.9a5.92,5.92,0,0,0-1.74,4.21v2.89a5.21,5.21,0,0,0,1.14,3.36,5.58,5.58,0,0,0,4.32,2h.84l-.79,1.19a2.27,2.27,0,0,1-2.05.91H238.5a3.89,3.89,0,0,1-2.74-1.1,6.13,6.13,0,0,1-1.75-4.26v-.26a14,14,0,0,1,2-7.23l2.29-3.82a11.93,11.93,0,0,0,1.71-6.15v-8.23a11.94,11.94,0,0,0-2.61-7.45l5.28,2.26A5.67,5.67,0,0,1,246.11,264.94Zm5.5-13.05v4.33l-3.21-2.72a6,6,0,0,0-3.85-1.41h-13l2.32-2.2,5-4.26a2.05,2.05,0,0,1,1.25-.49,5.13,5.13,0,0,1,1.2.31l9.22,4.61A2,2,0,0,1,251.61,251.89Zm1.86-21.46-11.86,11a6,6,0,0,0-1.47-.19h-.22a3.82,3.82,0,0,0-.79.09l-.16,0-.26.06-21.88-21.67L231.68,205a4,4,0,0,1,2.85-1.17h9.58v6.81a8,8,0,0,0,1.94,5.21l7.73,8.92A4,4,0,0,1,253.47,230.43Z" transform="translate(0)"/><path class="cls-1" d="M229.1,341" transform="translate(0)"/><path class="cls-8" d="M255.82,222.84l-7.73-8.92a5.22,5.22,0,0,1-1.28-3.44V201H234.53a6.7,6.7,0,0,0-4.75,1.95L225,207.66a4.71,4.71,0,0,0-1.55-3.39l-9.39-8.56-9.4,8.56a4.7,4.7,0,0,0-1.54,3.39l-4.78-4.74a6.7,6.7,0,0,0-4.75-1.95H181.31v9.51a5.27,5.27,0,0,1-1.28,3.44l-7.73,8.92a6.72,6.72,0,0,0,.51,9.38l11.95,11.06-8.33,4.16a4.72,4.72,0,0,0-2.62,4.25v10.15l7.66-6.48a3.21,3.21,0,0,1,2.09-.77h6.66l-5.84,2.46a8.36,8.36,0,0,0-5.07,7.69v6.84a10.68,10.68,0,0,0,3.15,7.6l3.9,3.9a3.28,3.28,0,0,1,.95,2.3v3a2.41,2.41,0,0,1-.71,1.71,2.89,2.89,0,0,1-2.06.85h-5.88l3.59,5.39a4.74,4.74,0,0,0,3.95,2.11h3.52a6.37,6.37,0,0,0,4.53-1.88,8.35,8.35,0,0,0,1.06-1.3v.82a15.31,15.31,0,0,1-3.34,9.52l-5.47,6.84h2.93a16.59,16.59,0,0,0,11.84-4.91,11.77,11.77,0,0,0,2-2.7v14.36l2.8-2.1a16.84,16.84,0,0,0,6.7-13.4V265.57l1.25,1.18,1.25-1.18v38.15a16.81,16.81,0,0,0,6.7,13.4l2.8,2.1V304.86a12,12,0,0,0,2,2.7,16.63,16.63,0,0,0,11.85,4.91h2.93l-5.47-6.84a15.31,15.31,0,0,1-3.34-9.52v-.82a7.82,7.82,0,0,0,1.06,1.3,6.37,6.37,0,0,0,4.53,1.88h3.52a4.74,4.74,0,0,0,4-2.11l3.59-5.39h-5.89a2.88,2.88,0,0,1-2-.85,2.41,2.41,0,0,1-.71-1.71v-3a3.28,3.28,0,0,1,.95-2.3l3.9-3.9a10.68,10.68,0,0,0,3.15-7.6v-6.84a8.36,8.36,0,0,0-5.07-7.69L238,254.59h6.56a3.22,3.22,0,0,1,2.1.77l7.66,6.48V251.69a4.73,4.73,0,0,0-2.63-4.25l-8.32-4.16,11.95-11.06A6.73,6.73,0,0,0,255.82,222.84Zm-50.14-17.46,8.38-7.64,8.38,7.64a3.22,3.22,0,0,1,1.06,2.33,3.26,3.26,0,0,1-.95,2.38l-8.49,8.4-.78-.77-7.71-7.63a3.26,3.26,0,0,1-.95-2.38A3.18,3.18,0,0,1,205.68,205.38Zm-32.25,18.44,7.73-8.92a6.74,6.74,0,0,0,1.65-4.42v-8h10.78a5.24,5.24,0,0,1,3.7,1.52l7.23,7.16h0l8.47,8.39h0l24.07,23.83h0l-1.35,1.16-3.27,2.81-16.49-7.13a4.75,4.75,0,0,0-3.77,0l-16.48,7.13-4.63-4a5.61,5.61,0,0,0-.55-.41l-.18-.1c-.13-.07-.26-.15-.4-.21l-.31-.12-.29-.1-.44-.1-.15,0a3.93,3.93,0,0,0-.59-.06h0a4.83,4.83,0,0,0-1.91.32h0l-12.38-11.47A5.22,5.22,0,0,1,173.43,223.82Zm10.13,29.27a4.7,4.7,0,0,0-3.06,1.13l-5.19,4.38v-6.91a3.22,3.22,0,0,1,1.8-2.9l8.94-4.48.47-.23a3.66,3.66,0,0,1,.63-.23l.16,0a3.38,3.38,0,0,1,.63-.07h.17a2,2,0,0,1,.35,0l.2,0,.32.08.18.07a2.11,2.11,0,0,1,.34.16.61.61,0,0,1,.14.07,3.65,3.65,0,0,1,.45.32l5,4.26,4.57,4.31H183.56Zm9.62,42.44a4.83,4.83,0,0,1-3.46,1.44H186.2a3.22,3.22,0,0,1-2.7-1.45l-2-3h3.08a4.39,4.39,0,0,0,3.12-1.29,3.89,3.89,0,0,0,1.15-2.77v-3a4.8,4.8,0,0,0-1.39-3.36l-3.9-3.9a9.18,9.18,0,0,1-2.71-6.54v-6.84a6.86,6.86,0,0,1,4.16-6.31l9-3.84h1.72l-2,1.53a10.82,10.82,0,0,0-4.3,8.6V273a10.76,10.76,0,0,0,1.53,5.53l2.3,3.83a15.26,15.26,0,0,1,2.17,7.84v.26A7.26,7.26,0,0,1,193.18,295.53Zm10.13,3.5a10.46,10.46,0,0,1-3.1,7.47A15.13,15.13,0,0,1,189.62,311l3.52-4.4a16.78,16.78,0,0,0,3.67-10.46v-6a16.75,16.75,0,0,0-2.39-8.61l-2.29-3.83a9.18,9.18,0,0,1-1.32-4.76v-8.23a9.3,9.3,0,0,1,3.7-7.4l3.64-2.73h3l.37.35.71.67-.59,1.17a22.64,22.64,0,0,0-2.38,10.09v5.91a31.24,31.24,0,0,0,1.6,9.87l1.62,4.85a15.16,15.16,0,0,1,.78,4.82Zm8,4.69a15.31,15.31,0,0,1-6.1,12.2l-.4.3v-23.9A16.72,16.72,0,0,0,204,287l-1.62-4.85a29.64,29.64,0,0,1-1.52-9.39v-5.91a21.21,21.21,0,0,1,2.22-9.42l.39-.76,4.2,4,3.69,3.49Zm4-40.21-1.25,1.18-1.25-1.18h0l-9-8.56h0l-.39-.36h0l-1.26-1.18-.33-.32h0l-2.59-2.44-2.31-2.19,15.87-6.86a3.22,3.22,0,0,1,2.58,0l15.87,6.86-6.49,6.13h0l-.51.48-8.91,8.44ZM224.17,287a16.72,16.72,0,0,0-.86,5.3v23.9l-.4-.3a15.31,15.31,0,0,1-6.1-12.2V264.15l3.69-3.49,4.2-4,.39.77a21.14,21.14,0,0,1,2.22,9.41v5.91a29.37,29.37,0,0,1-1.53,9.39Zm7.14,3.13v6A16.78,16.78,0,0,0,235,306.57l3.52,4.4a15.15,15.15,0,0,1-10.6-4.47,10.49,10.49,0,0,1-3.09-7.47v-6.71a15.16,15.16,0,0,1,.78-4.82l1.62-4.85a31.24,31.24,0,0,0,1.6-9.87v-5.91a22.64,22.64,0,0,0-2.38-10.09l-.59-1.17.7-.67.38-.35H230l3.64,2.73a9.3,9.3,0,0,1,3.7,7.4V273a9.28,9.28,0,0,1-1.32,4.76l-2.29,3.83A16.66,16.66,0,0,0,231.31,290.15Zm11.84-31.72a6.86,6.86,0,0,1,4.16,6.31v6.84a9.18,9.18,0,0,1-2.71,6.54l-3.9,3.9a4.8,4.8,0,0,0-1.39,3.36v3a3.89,3.89,0,0,0,1.15,2.77,4.38,4.38,0,0,0,3.11,1.29h3.09l-2,3a3.22,3.22,0,0,1-2.7,1.45H238.4a4.87,4.87,0,0,1-3.47-1.44,7.3,7.3,0,0,1-2.12-5.12v-.26a15.26,15.26,0,0,1,2.17-7.84l2.3-3.83a10.76,10.76,0,0,0,1.53-5.53v-8.23a10.82,10.82,0,0,0-4.3-8.6l-2-1.53h1.71Zm9.66-6.74v6.91l-5.19-4.38a4.73,4.73,0,0,0-3.07-1.13H228.5l2.23-2.1,2.33-2.21.46-.39,4.51-3.87a3.13,3.13,0,0,1,1.11-.62l.33-.09a3.59,3.59,0,0,1,.65-.07,6.6,6.6,0,0,1,1.62.41l9.27,4.64A3.22,3.22,0,0,1,252.81,251.69Zm-10.91-9.1a4.64,4.64,0,0,0-1.79-.35h-.19a4.26,4.26,0,0,0-.82.13l-.33.09-.4.11-2.08-2.06-21.16-20.95,4.06-4,4.41-4.36h0l7.23-7.17a5.24,5.24,0,0,1,3.7-1.52h10.78v8A6.69,6.69,0,0,0,247,214.9l7.73,8.92a5.23,5.23,0,0,1-.4,7.29Z" transform="translate(0)"/><path class="cls-1" d="M-638.9,341" transform="translate(0)"/><path class="cls-4" d="M300.29,290.4a6.61,6.61,0,0,1-6.6-6.6V258.4h-9.4a6.6,6.6,0,0,1,0-13.2h32a6.6,6.6,0,0,1,0,13.2h-9.4v25.4A6.61,6.61,0,0,1,300.29,290.4Z" transform="translate(0)"/><path class="cls-4" d="M412.29,290.4a6.61,6.61,0,0,1-6.6-6.6v-9.4h-18.8v9.4a6.6,6.6,0,1,1-13.2,0v-16a22.6,22.6,0,1,1,45.2,0v16A6.61,6.61,0,0,1,412.29,290.4Zm-9.36-29.2a9.26,9.26,0,0,0-13.27,0Z" transform="translate(0)"/><path class="cls-4" d="M460.29,290.4a6.61,6.61,0,0,1-6.6-6.6V267.73L449,272.47a6.6,6.6,0,0,1-9.34,0l-4.73-4.73V283.8a6.6,6.6,0,1,1-13.2,0v-32A6.6,6.6,0,0,1,433,247.13l11.33,11.34,11.34-11.34a6.6,6.6,0,0,1,11.26,4.67v32A6.61,6.61,0,0,1,460.29,290.4Z" transform="translate(0)"/><path class="cls-4" d="M348.29,290.4a22.6,22.6,0,0,1,0-45.2h16a6.6,6.6,0,0,1,0,13.2h-16a9.46,9.46,0,0,0-6.63,2.8h22.63a6.6,6.6,0,0,1,0,13.2H341.66a9.46,9.46,0,0,0,6.63,2.8h16a6.6,6.6,0,0,1,0,13.2Z" transform="translate(0)"/><path class="cls-4" d="M316.29,242.4a6.61,6.61,0,0,1-6.6-6.6V219.73L305,224.47a6.6,6.6,0,0,1-9.33,0l-4.74-4.74V235.8a6.6,6.6,0,1,1-13.2,0v-32A6.6,6.6,0,0,1,289,199.13l11.33,11.34,11.34-11.34a6.6,6.6,0,0,1,11.26,4.67v32A6.61,6.61,0,0,1,316.29,242.4Z" transform="translate(0)"/><path class="cls-4" d="M348.29,242.4a6.61,6.61,0,0,1-6.6-6.6V225.41a22.48,22.48,0,0,1-16-21.61,6.6,6.6,0,1,1,13.2,0,9.4,9.4,0,1,0,18.8,0,6.6,6.6,0,1,1,13.2,0,22.47,22.47,0,0,1-16,21.61V235.8A6.61,6.61,0,0,1,348.29,242.4Z" transform="translate(0)"/><path class="cls-4" d="M396.29,242.4a6.61,6.61,0,0,1-6.6-6.6V210.4h-9.4a6.6,6.6,0,0,1,0-13.2h32a6.6,6.6,0,0,1,0,13.2h-9.4v25.4A6.61,6.61,0,0,1,396.29,242.4Z" transform="translate(0)"/><path class="cls-4" d="M460.29,242.4a6.61,6.61,0,0,1-6.6-6.6v-9.4h-18.8v9.4a6.6,6.6,0,1,1-13.2,0v-32a6.6,6.6,0,1,1,13.2,0v9.4h18.8v-9.4a6.6,6.6,0,1,1,13.2,0v32A6.61,6.61,0,0,1,460.29,242.4Z" transform="translate(0)"/><path class="cls-4" d="M556.29,242.4a6.61,6.61,0,0,1-6.6-6.6v-16a9.4,9.4,0,0,0-18.8,0v16a6.6,6.6,0,0,1-13.2,0v-16a22.6,22.6,0,0,1,45.2,0v16A6.61,6.61,0,0,1,556.29,242.4Z" transform="translate(0)"/><path class="cls-4" d="M572.29,242.4a6.61,6.61,0,0,1-6.6-6.6v-32a6.6,6.6,0,0,1,13.2,0v32A6.61,6.61,0,0,1,572.29,242.4Z" transform="translate(0)"/><path class="cls-4" d="M492.29,242.4a22.6,22.6,0,1,1,22.6-22.6A22.63,22.63,0,0,1,492.29,242.4Zm-6.6-16v0h0Zm13.2,0a9.25,9.25,0,0,0,0-13.26Zm-13.2-13.23v0l0,0Z" transform="translate(0)"/><path class="cls-4" d="M588.29,242.4a6.6,6.6,0,0,1-5.9-9.55l3.46-6.92a6.68,6.68,0,0,1-4.16-6.13,6.61,6.61,0,0,1,6.6-6.6h3.93l6.17-12.35a6.6,6.6,0,0,1,11.81,0l6.17,12.35h3.92a6.61,6.61,0,0,1,6.6,6.6,6.68,6.68,0,0,1-4.16,6.13l3.47,6.92a6.6,6.6,0,0,1-5.91,9.55Zm21.33-13.2-1.4-2.8h-7.85l-1.4,2.8Z" transform="translate(0)"/><path class="cls-5" d="M316.29,240.6a5,5,0,0,1-5-5V215.67l-7.46,7.47a5,5,0,0,1-7.07,0l-7.47-7.47V235.6a5,5,0,0,1-10,0v-32a5,5,0,0,1,5-5,5,5,0,0,1,3.53,1.47l12.46,12.46,12.47-12.46a4.94,4.94,0,0,1,3.53-1.47,5,5,0,0,1,5,5v32A5,5,0,0,1,316.29,240.6Z" transform="translate(0)"/><path class="cls-5" d="M348.29,240.6a5,5,0,0,1-5-5V224a20.74,20.74,0,0,1-16-20.38,5,5,0,1,1,10,0,11,11,0,0,0,22,0,5,5,0,1,1,10,0,20.73,20.73,0,0,1-16,20.38V235.6A5,5,0,0,1,348.29,240.6Z" transform="translate(0)"/><path class="cls-5" d="M396.29,240.6a5,5,0,0,1-5-5v-27h-11a5,5,0,0,1,0-10h32a5,5,0,0,1,0,10h-11v27A5,5,0,0,1,396.29,240.6Z" transform="translate(0)"/><path class="cls-5" d="M460.29,240.6a5,5,0,0,1-5-5v-11h-22v11a5,5,0,0,1-10,0v-32a5,5,0,1,1,10,0v11h22v-11a5,5,0,1,1,10,0v32A5,5,0,0,1,460.29,240.6Z" transform="translate(0)"/><path class="cls-5" d="M556.29,240.6a5,5,0,0,1-5-5v-16a11,11,0,0,0-22,0v16a5,5,0,1,1-10,0v-16a21,21,0,0,1,42,0v16A5,5,0,0,1,556.29,240.6Z" transform="translate(0)"/><path class="cls-5" d="M572.29,240.6a5,5,0,0,1-5-5v-32a5,5,0,0,1,10,0v32A5,5,0,0,1,572.29,240.6Z" transform="translate(0)"/><path class="cls-5" d="M572.29,239a4,4,0,0,1-4-4V203a4,4,0,0,1,8,0v32A4,4,0,0,1,572.29,239Z" transform="translate(0)"/><path class="cls-5" d="M492.29,240.6a21,21,0,1,1,21-21A21,21,0,0,1,492.29,240.6Zm5-11.23a11,11,0,0,0,0-19.54Zm-14.76-4.77a11.35,11.35,0,0,0,4.76,4.77V224.6Zm4.76-10v-4.77a11.29,11.29,0,0,0-4.76,4.77Z" transform="translate(0)"/><path class="cls-5" d="M588.29,240.6a5,5,0,0,1-4.47-7.24l4.38-8.76a5,5,0,0,1,.09-10h4.92l6.61-13.24a5,5,0,0,1,8.95,0l6.61,13.24h4.91a5,5,0,0,1,.09,10l4.39,8.76a5,5,0,0,1-4.48,7.24Zm23.92-10-3-6h-9.83l-3,6Z" transform="translate(0)"/><path class="cls-5" d="M300.29,288.6a5,5,0,0,1-5-5v-27h-11a5,5,0,1,1,0-10h32a5,5,0,1,1,0,10h-11v27A5,5,0,0,1,300.29,288.6Z" transform="translate(0)"/><path class="cls-5" d="M412.29,288.6a5,5,0,0,1-5-5v-11h-22v11a5,5,0,0,1-10,0v-16a21,21,0,1,1,42,0v16A5,5,0,0,1,412.29,288.6Zm-6.23-26a11,11,0,0,0-19.54,0Z" transform="translate(0)"/><path class="cls-5" d="M460.29,288.6a5,5,0,0,1-5-5V263.67l-7.46,7.47a5,5,0,0,1-7.08,0l-7.46-7.46V283.6a5,5,0,0,1-10,0v-32a5,5,0,0,1,5-5,5,5,0,0,1,3.53,1.47l12.46,12.46,12.47-12.46a4.94,4.94,0,0,1,3.53-1.47,5,5,0,0,1,5,5v32A5,5,0,0,1,460.29,288.6Z" transform="translate(0)"/><path class="cls-5" d="M348.29,288.6a21,21,0,1,1,0-42h16a5,5,0,0,1,0,10h-16a11.22,11.22,0,0,0-9.77,6h25.77a5,5,0,1,1,0,10H338.52a11.22,11.22,0,0,0,9.77,6h16a5,5,0,1,1,0,10Z" transform="translate(0)"/><path class="cls-6" d="M300.29,286.8a3.4,3.4,0,0,1-3.4-3.4V254.8h-12.6a3.4,3.4,0,0,1,0-6.8h32a3.4,3.4,0,0,1,0,6.8h-12.6v28.6A3.4,3.4,0,0,1,300.29,286.8Z" transform="translate(0)"/><path class="cls-6" d="M412.29,286.8a3.4,3.4,0,0,1-3.4-3.4V270.8h-25.2v12.6a3.4,3.4,0,1,1-6.8,0v-16a19.4,19.4,0,1,1,38.8,0v16A3.4,3.4,0,0,1,412.29,286.8ZM408.41,264a12.58,12.58,0,0,0-24.23,0Z" transform="translate(0)"/><path class="cls-6" d="M460.29,286.8a3.4,3.4,0,0,1-3.4-3.4V259.61l-10.19,10.2a3.39,3.39,0,0,1-2.41,1,3.33,3.33,0,0,1-2.4-1l-10.2-10.19V283.4a3.4,3.4,0,0,1-6.8,0v-32a3.41,3.41,0,0,1,3.41-3.4,3.37,3.37,0,0,1,2.4,1l13.59,13.59L457.89,249a3.33,3.33,0,0,1,2.4-1,3.4,3.4,0,0,1,3.4,3.4v32A3.4,3.4,0,0,1,460.29,286.8Z" transform="translate(0)"/><path class="cls-6" d="M316.29,238.8a3.4,3.4,0,0,1-3.4-3.4V211.61L302.7,221.8a3.39,3.39,0,0,1-4.81,0l-10.2-10.19V235.4a3.4,3.4,0,1,1-6.8,0v-32a3.41,3.41,0,0,1,3.41-3.4,3.37,3.37,0,0,1,2.4,1l13.59,13.59L313.89,201a3.33,3.33,0,0,1,2.4-1,3.4,3.4,0,0,1,3.4,3.4v32A3.4,3.4,0,0,1,316.29,238.8Z" transform="translate(0)"/><path class="cls-6" d="M348.29,238.8a3.4,3.4,0,0,1-3.4-3.4V222.48a19.27,19.27,0,0,1-16-19.08,3.4,3.4,0,1,1,6.8,0,12.6,12.6,0,1,0,25.2,0,3.4,3.4,0,1,1,6.8,0,19.26,19.26,0,0,1-16,19.08V235.4A3.4,3.4,0,0,1,348.29,238.8Z" transform="translate(0)"/><path class="cls-6" d="M396.29,238.8a3.4,3.4,0,0,1-3.4-3.4V206.8h-12.6a3.4,3.4,0,0,1,0-6.8h32a3.4,3.4,0,0,1,0,6.8h-12.6v28.6A3.4,3.4,0,0,1,396.29,238.8Z" transform="translate(0)"/><path class="cls-6" d="M460.29,238.8a3.4,3.4,0,0,1-3.4-3.4V222.8h-25.2v12.6a3.4,3.4,0,1,1-6.8,0v-32a3.4,3.4,0,1,1,6.8,0V216h25.2V203.4a3.4,3.4,0,1,1,6.8,0v32A3.4,3.4,0,0,1,460.29,238.8Z" transform="translate(0)"/><path class="cls-6" d="M556.29,238.8a3.4,3.4,0,0,1-3.4-3.4v-16a12.6,12.6,0,0,0-25.2,0v16a3.4,3.4,0,0,1-6.8,0v-16a19.4,19.4,0,0,1,38.8,0v16A3.4,3.4,0,0,1,556.29,238.8Z" transform="translate(0)"/><path class="cls-6" d="M572.29,238.8a3.4,3.4,0,0,1-3.4-3.4v-32a3.4,3.4,0,0,1,6.8,0v32A3.4,3.4,0,0,1,572.29,238.8Z" transform="translate(0)"/><path class="cls-6" d="M492.29,238.8a19.4,19.4,0,1,1,19.4-19.4A19.42,19.42,0,0,1,492.29,238.8Zm3.4-7.28a12.58,12.58,0,0,0,0-24.24Zm-15.51-8.72a12.72,12.72,0,0,0,8.71,8.71V222.8Zm8.71-6.8v-8.71a12.72,12.72,0,0,0-8.71,8.71Z" transform="translate(0)"/><path class="cls-6" d="M588.29,238.8a3.4,3.4,0,0,1-3-4.92l5.54-11.08h-2.5a3.4,3.4,0,1,1,0-6.8h5.9l7.06-14.12a3.4,3.4,0,0,1,6.08,0L614.39,216h5.9a3.4,3.4,0,1,1,0,6.8h-2.5l5.54,11.08a3.4,3.4,0,0,1-3,4.92ZM614.8,232l-4.61-9.2h-11.8l-4.6,9.2Zm-8-16-2.5-5-2.5,5Z" transform="translate(0)"/><path class="cls-6" d="M348.29,286.8a19.4,19.4,0,0,1,0-38.8h16a3.4,3.4,0,0,1,0,6.8h-16a12.71,12.71,0,0,0-12.11,9.2h28.11a3.4,3.4,0,0,1,0,6.8H336.18a12.71,12.71,0,0,0,12.11,9.2h16a3.4,3.4,0,0,1,0,6.8Z" transform="translate(0)"/><path class="cls-7" d="M300.29,285.4a2.21,2.21,0,0,1-2.2-2.2V253.4h-13.8a2.2,2.2,0,0,1,0-4.4h32a2.2,2.2,0,1,1,0,4.4h-13.8v29.8A2.2,2.2,0,0,1,300.29,285.4Z" transform="translate(0)"/><path class="cls-7" d="M412.29,285.4a2.21,2.21,0,0,1-2.2-2.2V269.4h-27.6v13.8a2.2,2.2,0,1,1-4.4,0v-16a18.2,18.2,0,1,1,36.4,0v16A2.2,2.2,0,0,1,412.29,285.4ZM409.9,265a13.78,13.78,0,0,0-27.21,0Z" transform="translate(0)"/><path class="cls-7" d="M460.29,285.4a2.21,2.21,0,0,1-2.2-2.2V256.51l-12.24,12.25a2.22,2.22,0,0,1-1.56.64,2.2,2.2,0,0,1-1.55-.64l-12.25-12.25V283.2a2.2,2.2,0,1,1-4.4,0v-32a2.21,2.21,0,0,1,2.21-2.2,2.18,2.18,0,0,1,1.55.65l14.44,14.44,14.45-14.44a2.15,2.15,0,0,1,1.55-.65,2.21,2.21,0,0,1,2.2,2.2v32A2.2,2.2,0,0,1,460.29,285.4Z" transform="translate(0)"/><path class="cls-7" d="M316.29,237.4a2.21,2.21,0,0,1-2.2-2.2V208.51l-12.24,12.25a2.22,2.22,0,0,1-1.56.64,2.2,2.2,0,0,1-1.55-.64l-12.25-12.25V235.2a2.2,2.2,0,1,1-4.4,0v-32a2.21,2.21,0,0,1,2.21-2.2,2.18,2.18,0,0,1,1.55.65l14.44,14.44,14.45-14.44a2.16,2.16,0,0,1,1.55-.65,2.21,2.21,0,0,1,2.2,2.2v32A2.2,2.2,0,0,1,316.29,237.4Z" transform="translate(0)"/><path class="cls-7" d="M348.29,237.4a2.21,2.21,0,0,1-2.2-2.2V221.25a18.17,18.17,0,0,1-16-18.05,2.2,2.2,0,0,1,4.4,0,13.8,13.8,0,1,0,27.6,0,2.2,2.2,0,0,1,4.4,0,18.16,18.16,0,0,1-16,18.05V235.2A2.2,2.2,0,0,1,348.29,237.4Z" transform="translate(0)"/><path class="cls-7" d="M396.29,237.4a2.21,2.21,0,0,1-2.2-2.2V205.4h-13.8a2.2,2.2,0,0,1,0-4.4h32a2.2,2.2,0,0,1,0,4.4h-13.8v29.8A2.2,2.2,0,0,1,396.29,237.4Z" transform="translate(0)"/><path class="cls-7" d="M460.29,237.4a2.21,2.21,0,0,1-2.2-2.2V221.4h-27.6v13.8a2.2,2.2,0,1,1-4.4,0v-32a2.2,2.2,0,0,1,4.4,0V217h27.6V203.2a2.2,2.2,0,1,1,4.4,0v32A2.2,2.2,0,0,1,460.29,237.4Z" transform="translate(0)"/><path class="cls-7" d="M556.29,237.4a2.21,2.21,0,0,1-2.2-2.2v-16a13.8,13.8,0,0,0-27.6,0v16a2.2,2.2,0,0,1-4.4,0v-16a18.2,18.2,0,0,1,36.4,0v16A2.2,2.2,0,0,1,556.29,237.4Z" transform="translate(0)"/><path class="cls-7" d="M572.29,237.4a2.21,2.21,0,0,1-2.2-2.2v-32a2.2,2.2,0,0,1,4.4,0v32A2.2,2.2,0,0,1,572.29,237.4Z" transform="translate(0)"/><path class="cls-7" d="M492.29,237.4a18.2,18.2,0,1,1,18.2-18.2A18.22,18.22,0,0,1,492.29,237.4Zm2.2-4.59a13.78,13.78,0,0,0,0-27.22Zm-15.8-11.41a13.86,13.86,0,0,0,11.4,11.41V221.4Zm11.4-4.4V205.59A13.86,13.86,0,0,0,478.69,217Z" transform="translate(0)"/><path class="cls-7" d="M588.29,237.2a2,2,0,0,1-1.79-2.89l6.56-13.11h-4.77a2,2,0,0,1,0-4h6.77l7.44-14.89a2,2,0,0,1,1.79-1.11,2,2,0,0,1,1.79,1.11l7.45,14.89h6.76a2,2,0,0,1,0,4h-4.76l6.55,13.11a2,2,0,0,1-1.79,2.89Zm3.24-4h25.53l-6-12H597.53Zm8-16h9.53l-4.77-9.53Z" transform="translate(0)"/><path class="cls-7" d="M348.29,285.4a18.2,18.2,0,0,1,0-36.4h16a2.2,2.2,0,1,1,0,4.4h-16a13.84,13.84,0,0,0-13.6,11.6h29.6a2.2,2.2,0,0,1,0,4.4h-29.6a13.84,13.84,0,0,0,13.6,11.6h16a2.2,2.2,0,0,1,0,4.4Z" transform="translate(0)"/><path class="cls-8" d="M315.59,202.29l-15.3,15.3L285,202.29a1,1,0,0,0-1.71.71v32a1,1,0,0,0,2,0V205.41l14.3,14.3a1,1,0,0,0,1.41,0l14.29-14.3V235a1,1,0,0,0,2,0V203A1,1,0,0,0,315.59,202.29Z" transform="translate(0)"/><path class="cls-8" d="M364.29,202a1,1,0,0,0-1,1,15,15,0,0,1-30,0,1,1,0,1,0-2,0,17,17,0,0,0,16,16.95V235a1,1,0,0,0,2,0V220a17,17,0,0,0,16-16.95A1,1,0,0,0,364.29,202Z" transform="translate(0)"/><path class="cls-8" d="M412.29,202h-32a1,1,0,1,0,0,2h15v31a1,1,0,0,0,2,0V204h15a1,1,0,0,0,0-2Z" transform="translate(0)"/><path class="cls-8" d="M460.29,202a1,1,0,0,0-1,1v15h-30V203a1,1,0,1,0-2,0v32a1,1,0,0,0,2,0V220h30v15a1,1,0,0,0,2,0V203A1,1,0,0,0,460.29,202Z" transform="translate(0)"/><path class="cls-8" d="M540.29,202a17,17,0,0,0-17,17v16a1,1,0,0,0,2,0V219a15,15,0,0,1,30,0v16a1,1,0,0,0,2,0V219A17,17,0,0,0,540.29,202Z" transform="translate(0)"/><path class="cls-8" d="M572.29,202a1,1,0,0,0-1,1v32a1,1,0,0,0,2,0V203A1,1,0,0,0,572.29,202Z" transform="translate(0)"/><path class="cls-8" d="M492.29,202a17,17,0,1,0,17,17A17,17,0,0,0,492.29,202Zm-1,2.05V218h-14A15,15,0,0,1,491.29,204.05Zm-14,15.95h14V234A15,15,0,0,1,477.34,220Zm16,13.95v-29.9a15,15,0,0,1,0,29.9Z" transform="translate(0)"/><path class="cls-8" d="M613.91,220h6.38a1,1,0,0,0,0-2h-7.38l-7.72-15.45a1,1,0,0,0-1.79,0L595.68,218h-7.39a1,1,0,0,0,0,2h6.39l-7.28,14.55a1,1,0,0,0,.89,1.45h32a1,1,0,0,0,.9-1.45Zm-9.62-14.76L610.68,218H597.91ZM589.91,234l7-14h14.77l7,14Z" transform="translate(0)"/><path class="cls-8" d="M316.29,250h-32a1,1,0,1,0,0,2h15v31a1,1,0,0,0,2,0V252h15a1,1,0,0,0,0-2Z" transform="translate(0)"/><path class="cls-8" d="M396.29,250a17,17,0,0,0-17,17v16a1,1,0,0,0,2,0V268h30v15a1,1,0,0,0,2,0V267A17,17,0,0,0,396.29,250Zm-15,16a15,15,0,0,1,29.9,0Z" transform="translate(0)"/><path class="cls-8" d="M459.59,250.29l-15.3,15.3L429,250.29a1,1,0,0,0-1.71.71v32a1,1,0,0,0,2,0V253.41l14.3,14.3a1,1,0,0,0,1.41,0l14.29-14.3V283a1,1,0,0,0,2,0V251A1,1,0,0,0,459.59,250.29Z" transform="translate(0)"/><path class="cls-8" d="M365.29,267a1,1,0,0,0-1-1h-31a15,15,0,0,1,15-14h16a1,1,0,0,0,0-2h-16a17,17,0,1,0,0,34h16a1,1,0,0,0,0-2h-16a15,15,0,0,1-15-14h31A1,1,0,0,0,365.29,267Z" transform="translate(0)"/></svg>